<svg xmlns="http://www.w3.org/2000/svg" viewBox="0 0 420 611"><defs><radialGradient id="a" cx="211.7" cy="76.1" r="171.6" gradientTransform="matrix(1 0 0 .3193 0 52)" gradientUnits="userSpaceOnUse"><stop offset="0" stop-color="#a44100"/><stop offset="1" stop-color="#803300"/></radialGradient><linearGradient id="b" x1="2.8" x2="416.1" y1="344.6" y2="344.6" gradientUnits="userSpaceOnUse"><stop offset="0" stop-color="#803300"/><stop offset=".5" stop-color="#a24100"/><stop offset="1" stop-color="#803300"/></linearGradient></defs><path fill="gray" d="M183 3c-30 0-61 1-90 12-22 7-44 16-60 34-7 8-9 18-11 28-8 40-13 81-18 122-3 31-1 63-1 95 0 42 1 84 4 126 2 22 7 44 8 67a276 276 0 0 0 12 60c10 14 24 22 38 30 38 21 81 32 124 33 31 0 63-4 93-10 29-6 58-18 81-37 6-5 12-11 14-19 3-14 7-27 9-41 3-21 9-40 15-60 4-26 4-53 7-79 4-47 7-94 9-142 1-21-2-42-4-63-3-21-5-43-9-64-3-16-7-32-16-46-9-9-21-14-32-20-21-10-42-16-65-19-35-7-72-7-108-7z"/><path fill="url(#a)" fill-rule="evenodd" d="m56 98 14 6 19 7 27 8 27 6 39 4 37 2 28-1 49-6 49-7 28-13 7-17 3-8-2-12-9-12-26-12-30-9-32-7-34-4-41-2-45 3-34 3-30 5-26 6-21 11-13 13 2 19 8 15z"/><path fill="url(#b)" fill-rule="evenodd" d="m18 109-7 36-7 55 6 7 14 11 12 7 12 6 35 16 35 10 37 7 33 4h45l39-4 51-10 35-11 32-17 14-12 12-17-4-41-7-43-32 22-54 18-38 9-41 4-41 1-46-4-35-8-15-3-30-12-43-24zM5 224l-2 44v88l3 54 2 6 10 10 13 10 20 13 20 11 26 10 35 8 25 4 36 3h39l44-5 33-8 23-8 24-11 24-11 12-7 8-10 5-31 7-81 3-56 1-30-10 7-14 12-22 11-25 10-34 9-46 7-46 2-51-1-48-9-40-11-39-16-22-12zm58 321 23 12 32 11 43 10 44 2 39-1 38-7 37-12 30-19 19-17 16-21 10-39 1-10-11 6-17 10-27 11-29 9-39 8-46 7-51-2-48-7-42-11-37-19-22-13-12-11-5-3 4 23 3 29 3 16 8 9 11 13 16 14 6 4z"/><path d="M166 610c-55-3-132-39-144-67-2-4-3-13-2-15 1-3 0-7-2-9-3-3-4-13-3-19s1-8-1-24a1429 1429 0 0 1-6-37c-4-11-6-27-4-35v-10a1627 1627 0 0 1 8-264 252 252 0 0 0 5-39l3-15c3-22 12-34 34-47A245 245 0 0 1 171 1a662 662 0 0 1 158 15 195 195 0 0 1 60 31l5 9c3 5 5 9 5 14l3 9 3 9 2 9 2 15 2 14 2 19c3 34 4 41 6 48v26l-1 28c0 14-1 25-2 25v14a657 657 0 0 1-8 94l-2 15-1 13v17c1 10 1 13-1 15-3 6-7 18-9 30l-6 18-2 17c-1 9-3 20-6 23l-1 9c0 19-20 37-63 55a427 427 0 0 1-151 18zm30-1a354 354 0 0 1 36-2l9-1 10-1 7-2 7-1h5l7-1 8-2a158 158 0 0 0 44-16c2 0 12-5 15-8l8-4 8-6 7-7c6-5 12-22 8-22l-10 10c0 1 1 1 3-1 3-2 3-3 3-1l-8 8-4 2a148 148 0 0 1-57 32 330 330 0 0 1-211-7l-9-4a255 255 0 0 1-53-39c-3-2-4-1-3 3 0 2 1 3 3 4l6 4 5 5a367 367 0 0 0 37 24 195 195 0 0 1 19 9l11 4a144 144 0 0 0 28 9 306 306 0 0 0 63 8 247 247 0 0 1-133-33c-7-5-18-12-26-20-6-5-9-6-7-3a148 148 0 0 0 30 25l3 1c2 3 19 11 28 14a789 789 0 0 1 33 10l16 4 29 4 12 1 5 1 8-1zm14-4h19l-10 1-9-1zm23-1 5-1c4 0 5 0 3 1h-8zm39-6 2-1 10-3c7-2 9-2 9-1l-5 3c-7 2-16 3-16 2zm23-5v-1l8-4a57 57 0 0 1 11-4l8-3 18-9 24-18 4-2c1 2-8 10-20 17l-8 6a143 143 0 0 1-42 18h-3zm-76-2 35-4 16-3c0-1-4-1-17 1-60 10-127 0-178-27-17-8-34-22-50-41-3-4-4-5-5-4-1 2 1 5 4 8l6 8c5 6 18 17 26 22a233 233 0 0 0 61 27 251 251 0 0 0 102 13zm23-7c25-3 47-8 47-11h-3a450 450 0 0 1-109 9l-7-1a388 388 0 0 1-92-26l-8-4c-6-3-9-4-6-1l18 9a473 473 0 0 0 93 26c6 1 58 0 67-1zm-124-1-5-1c-1 1 2 2 6 2 2 0 2 0-1-1zm174-5c1-2-2-2-5 0h5zm-76-12c0-11 2-19 3-20v8l-1 16v7h3l3 1v-5l1-15a1393 1393 0 0 0 3-48l1-3h-8c-10 1-10 1-10 63-1 14 4 10 5-4zm2-31 1-4 1 4-1 5-1-5zm1-14v-10c1-1 1 1 1 7l-1 10v-7zm-37 54v-7l1-8 1 3c0 9 1 14 3 14 3 0 3-2 4-29l1-27c1-1 1 0 1 1 1 49 1 55 4 55s3-1 3-36l1-34h-4c-3 1-3 1-4 4 0 5-1 5-1 0 0-4 1-4-10-4h-5l-1 11v56c0 3 4 4 6 1zm1-31a626 626 0 0 0 0-33c2 0 3 18 2 37-1 14-2 11-2-4zm25 22c2-45 2-59-3-59l-3 1v24c0 48 0 45 3 45 2 0 2-1 3-11zm24 10 3-1c5 1 5 0 6-14l1-16 2-19 2-17c3-5 3 13 0 32-2 16-3 32-1 33 3 1 3 0 4-13l5-49c1-9 1-8-6-7l-11 2c-4 0-6 3-5 10l-1 18-3 40c0 2 3 2 4 1zm1-5 1-14a702 702 0 0 0 5-47c1 0 1 4-2 38-2 22-3 28-4 23zm-61-9v-56h-4c-4-1-4-1-4 7l1 32c1 28 1 31 5 30 2 0 2 0 2-13zm-9 3a4075 4075 0 0 1-4-61h-3c-2-1-2 3-1 26 1 45 1 45 6 45 2 0 2-1 2-10zm98 7 1-7 2-20a715 715 0 0 0 3-43c-2 0-4 2-3 4l-1 18a659 659 0 0 0-6 48c-2 0-1-20 1-35l3-33c-3-3-5 1-5 10l-1 20c-5 38-4 46 6 38zm-108-16-1-23-1-18v-12l-3-1h-4c-1 1 0 24 1 37 3 28 3 33 1 29s-6-57-5-63c1-4 1-4-8-5l-9-3-9-1-8-2-4-1-8-2c-6-2-6-3-4 13a1464 1464 0 0 1 7 46c1 8 2 11 5 11 2 0 2-1 2-2a553 553 0 0 1-5-55l2 11 2 20c3 25 4 28 8 28 3 0 3 0 0-13l-4-38c0-9 2-6 3 5l8 48 4 1c3 0 3 0 1-10-5-28-8-58-6-58s4 10 7 42c2 15 6 29 9 29 2 0 2-2 1-12l-3-17a4335 4335 0 0 1-2-37 1544 1544 0 0 0 9 62c0 6 2 7 13 8h2l-1-17zm143 16c2-1 3-3 1-3s-6 4-4 4l3-1zm-26-8a409 409 0 0 1 6-60c2-2 1 22-2 53-1 7-1 9 1 9a915 915 0 0 1 5-35c2-20 2-32 0-31l-4 1c-4 1-5 2-6 20l-5 46c-1 3 0 4 3 4 2 0 2 0 2-7zm14 4v-1c-2-1-2-6-1-10l2-9a244 244 0 0 1 3-35l1-12v-2c-2-1-4 2-5 7a800 800 0 0 1-5 60c-2 4 2 5 5 2zm27 0-2-2c-3 0-3 2 0 2l2 1v-1zm-21-4c0-2 2-4 3-2s2 2 4 2c3 0 4-1 1-4v-6l2-11 2-16c2-11 3-28 2-30 0-3-4-1-4 1 1 4-3 47-5 57-1 5-4 3-3-2 5-36 7-56 4-55-2 0-2 2-3 15a533 533 0 0 1-5 53c1 0 2 0 2-2zm15-10 3-15 3-25c0-11 1-18 2-18 2-2 1-3-1-3-3 0-3 2-5 20a508 508 0 0 1-6 49c2 2 3-1 4-8zm18 0c3 0 11-6 10-8l5-29c5-25 6-37 1-32l-4 1c-4 0-5 2-5 5v7l-2 15a395 395 0 0 1-9 40l1-15c4-10 8-47 6-48-1 0-2 3-5 30a276 276 0 0 1-5 27c-1 7-2 10-4 10-2-1-4 1-3 2l7-2 7-3zm1-5 1-6a592 592 0 0 0 9-49c0-4 2-7 4-7 3 0 0 17-5 43l-2 9c-2 9-7 16-7 10zm-230 0-1-11-5-36c-1-14-1-14-5-15l-3-1v3l2 12a549 549 0 0 0 7 50c0 4 2 6 5 6v-8zm218 2 3-20v-3l-2 2-2 7-2 14c-1 5 2 4 3 0zm-228 1-2-13c-3-18-8-51-7-54 1-1-3-5-4-4a230 230 0 0 0 7 64c1 6 6 12 6 7zm268-3 1-2-3 1c-2 3-1 3 2 1zm-277-2-1-7-2-12c-2-11-5-38-4-44v-5l-4-1-6-3-3-2a336 336 0 0 0 10 71c2 0 2-2 0-11-3-14-6-53-5-55 2-3 3 4 4 17 0 17 6 50 8 52s4 2 3 0zm265-4v-3c-1-1 0-3 1-5l3-13a486 486 0 0 1 6-39c1-2 0-2-1-2s-2 3-3 11a425 425 0 0 1-9 51c0 2 2 2 3 0zm25-4c11-9 12-10 16-21 4-12 4-11 2-11-1 0-2 1-2 3-2 5-9 15-12 17s-3 3-3 5c1 2 0 3-3 6-5 5-3 6 2 1zm-18-4a243 243 0 0 1 6-30 415 415 0 0 1 4-27c-2 0-3 4-4 15a216 216 0 0 1-7 33l-2 11v3c1 2 3-1 3-5zm-287 3-1-4c-2-4-6-42-6-54-1-8-1-10-5-10l-1 1 1 9c3 37 12 81 12 58zm301-1c2-2 2-3 1-3l-6 5c0 2 2 1 5-2zM49 523c-3-17-5-38-5-47-1-9-2-12-4-12s-2 0 0 13l3 25c2 24 5 34 7 32l-1-11zm305 7 1-6a448 448 0 0 0 9-51l-3 5a1355 1355 0 0 1-9 56l2-4zm-310-3a328 328 0 0 1-8-57c0-9 0-9-3-11l-5-3c-3-3-5-3-4 0l3 22 2 2v-9l1-9c1 0 2 2 2 10l2 14 2 15c1 9 3 22 5 27 2 3 3 2 3-1zm273-4 1-13c2-16 2-18 0-18-2 1-2 1-3 6l-1 15c-1 12-1 16 2 13l1-3zm47 3 1-5 2-11a244 244 0 0 0 7-41l-3 2v1c1 1 1 2-1 16a104 104 0 0 1-8 30l-2 7c0 2 2 2 4 1zm-327-5-1-4-3-15-3-18c-2 0-1 10 1 21l2 12c0 3 1 6 3 6l1-2zm336-6 1-5 1-7 3-9 2-9c3-13 4-18 3-19a970 970 0 0 1-13 47c-2 5 0 6 3 2zm-345-4c0-5-3-9-4-8-2 1 2 11 4 11v-3zm356-16a5038 5038 0 0 0 8-36c-2-2-4 3-7 14a460 460 0 0 1-7 32c2 1 4-3 6-10zm-141 5a272 272 0 0 0 44-7c8-2 9-2 9-4h-2l-3 1c-2-1 18-7 22-7l3-2c2-2-1-2-5-1a237 237 0 0 1-61 11l-17 2a335 335 0 0 1-105-9c11 3 15 3 20 3l11 2a413 413 0 0 0 112-2 203 203 0 0 0 48-13l6-2 3-2h-3l-6 1a332 332 0 0 1-162 13 326 326 0 0 1-91-25c-13-6-25-13-40-25l-8-4c0 6 39 30 66 41a415 415 0 0 1 22 8c7 2 12 3 10 4l-8-2-10-2-7-2-4-2v1c8 3 10 6 4 5a220 220 0 0 1-63-32h-3l2 2 4 2c1 2 4 3 14 10a221 221 0 0 0 73 29 175 175 0 0 0 45 7c6 2 61 3 80 1zm-80-4-3-1c2-1 5-1 15 1h-12zm74 0 23-3c5 0 2 1-7 3h-16zm-109-5-10-3-4-1h4l18 4h-8zm-103-2a8823 8823 0 0 0-3-36c1-2-5-8-8-8v10c1 4 2 3 2-1 0-7 2-4 2 2 1 5 0 6-1 8-2 2-2 2-1 6l2 11 2 9 2 3-1-3 1-3v3c0 2 1 3 3 3v-4zm-6-10a48 48 0 0 1 0-13l1 8c1 6 0 7-1 5zm297 6c0-2-2-2-4 0s-2 2 1 1l3-1zm-90-2 6-1a2979 2979 0 0 0 8-187v-9l-8 1h-45l-1 3c-2 4-3 4-3 0 0-3 0-4-2-4-5 0-5 0-5 20l-2 37-1 33a2747 2747 0 0 1-2 63c-2 0-1-139 1-148 1-6 2-6-9-6l-9-1-1 4v19c1 5 0 13-1 21v31c0 18 0 23-2 21-1-1 0-79 1-93l1-4-7-1-8-1c-3-1-4 2-4 14 1 31-1 71-3 67-1-3 0-74 1-78 2-4 1-4-8-6l-10-3-6-1-6-1-7-2-6-2-3-2-7-2-6-3a378 378 0 0 0-1 71 1814 1814 0 0 0 7 127c1 1 5 2 6 1s2-1 3 1c2 6 7 5 6-1-6-34-8-195-3-190a783 783 0 0 1 1 99 663 663 0 0 0 5 95c0 3 14 7 16 6v-8c-5-30-6-180-1-185 2-3 4-2 3 3a3169 3169 0 0 0 2 192l4 1h5l-1-3a392 392 0 0 1-5-50v-4l1-49c0-53 1-85 3-87v45l-1 24 1 67a289 289 0 0 0 4 56v3h7c8 1 9 1 9-2 0-2 1-2 2 1 0 3 5 5 7 3 2-1 3-1 3 1l1 1 11 1 3 1v-19l1-20c2-2 3 0 3 14l1 19v6h14v-10l1-38 1 24-1 25h36zm-10-5c-1-3 0-19 2-19v11c0 11 0 13-2 8zm-9 0zm-27-7v-34a1158 1158 0 0 1 2-110c0-28 1-33 2-31v47a1590 1590 0 0 0-3 132l-1-4zm18 4c-1-1 0-26 1-28v13c0 14 0 16-1 15zm-47-6zm10 0c-2-2-1-21 1-21l1 11c0 12 0 12-2 10zm-19-2zm-39 0c-3-5-7-80-5-88 2-5 2 0 3 26a522 522 0 0 0 2 62zm30-1zm93 0c-1-1 0-20 1-24v-3l1 4v15c0 5-1 10-2 8zM83 451c-3-24-7-176-4-179 1-2 2 6 2 53a1606 1606 0 0 0 2 126zm135-20a577 577 0 0 1 3-34 207 207 0 0 1-3 48v-14zm-58 13a1034 1034 0 0 1 1-40 675 675 0 0 0 1 39c0 2-1 2-2 1zm68-11v-7a3948 3948 0 0 0 0 7zm-29-13c0-15 0-19 2-16v29c-1 4-2 1-2-13zm-9-24zm20 4a20729 20729 0 0 1 4-97v40l-1 23a264 264 0 0 1-3 49v-15zm-10-5c1-7 2-7 2 0l-1 5-1-5zm0-13 1-23 1-32c0-12 0-16 2-16a544 544 0 0 1-4 71zm21-15zm9 13 1-4c0-1 1-1 1 2l-1 3-1-1zm1-24 1-18c1-1 1 3 1 14l-2 18v-14zm-133 8c-1-6 0-88 1-89 2-2 3 33 1 46v22c1 20 0 36-2 21zm94-17a565 565 0 0 0 2-56 427 427 0 0 1-2 56zm-32-23c-1-13 0-30 1-32 1-1 1 7 1 21 0 24-1 30-2 11zm73-9v-22a328 328 0 0 1 0 22zm-31-9v-5l1-7 1-4c1 1 0 17-1 18l-1-2zm48 175c14-1 13 1 15-21l2-22a2422 2422 0 0 0 8-151c2-12 2 12 0 46a1276 1276 0 0 0-3 59l-4 75-1 12h4c7-1 7-1 7-11a501 501 0 0 1 4-59l2-28a969 969 0 0 0 7-98 579 579 0 0 1-4 105 2451 2451 0 0 1-6 78c0 10 0 10 9 9 13-3 14-3 12-6l-1-8a2711 2711 0 0 0 9-182 1412 1412 0 0 1-9 140l-1 25c-2 23-4 31-7 27a858 858 0 0 0 8-110 923 923 0 0 1 3-82c-4 0-5 2-5 28a1676 1676 0 0 1-13 166c-1 0-1-20 1-30a393 393 0 0 0 4-45l5-96 1-21-6 1-6 1a1363 1363 0 0 0-4 77 943 943 0 0 0-5 80 655 655 0 0 0-4 34c-1-1 0-26 1-42a729 729 0 0 0 3-43 1459 1459 0 0 0 6-104c0-2 0-2-6-2l-19 2c-15 1-13-2-14 20a1542 1542 0 0 1-4 108 412 412 0 0 1-4 61l-1 9h3l13-2zm-1-12 1-22a2430 2430 0 0 0 8-139c0-14 1-22 2-12l-1 31a878 878 0 0 1-2 51 704 704 0 0 1-5 86c-1 15-1 15-3 15v-10zm-8-2 1-18a1086 1086 0 0 0 5-41 267 267 0 0 1-3 51c-1 20-3 24-3 8zm17-5 2-28a2392 2392 0 0 0 8-144v48a3643 3643 0 0 0-7 116l-1 8v6l-1 7c-1 2-1-3-1-13zm-9-126 2-41c1-5 1 43-1 54-1 15-2 10-1-13zm83 140c7-2 10-4 9-5s-20 6-21 8c-2 2 2 1 12-3zm17-1a591 591 0 0 1 29-16c2 0 14-7 18-11 2-3 6-13 5-14s-4 2-7 5c-5 4-6 5-4 6v2l-2-1c0-1-2-1-4 1-1 2-4 4-7 5-20 10-22 12-18 12l12-6 3-1 7-5 6-4c2 1-3 5-8 7l-3 3-2 1-12 6a157 157 0 0 1-23 11c0 2 6 1 10-1zm-270-3-2-1-25-13c-9-4-12-5-8-2 2 2 18 11 31 16 3 2 5 2 4 0zm259-5 6-4a635 635 0 0 1-6 4zm-25 0 1-5v-4l5-45c6-70 7-75 8-74 1 0 1 9-2 48l-1 16-2 18c-1 17-3 35-5 42v4l3-1c7-2 8-3 8-5a1852 1852 0 0 0 17-190 551 551 0 0 1-5 111 1433 1433 0 0 1-9 78c-2 3-1 3 6 0 4-2 4-2 4-8a5209 5209 0 0 1 13-115 449 449 0 0 0 0-65 545 545 0 0 1-4 78 5364 5364 0 0 0-6 55 317 317 0 0 0-4 36 513 513 0 0 0-4 13 961 961 0 0 1 7-59l2-20a741 741 0 0 0 5-90c1-19 1-18-6-15l-5 1v9a1315 1315 0 0 1-14 142 1604 1604 0 0 0 10-130l1-19c1-1 1-1-1-1l-6 1c-6 1-6 2-6 24a927 927 0 0 1-6 101l-6 56c0 10-1 14-3 13v-11a4814 4814 0 0 0 11-176c1-3 0-4-2-3l-2 1a585 585 0 0 1-3 93 3103 3103 0 0 1-7 97c2 1 6 1 8-1zm13-156c1-30 1-35 3-35 3-1 2 53-1 58-2 3-2-2-2-23zm32 147 8-4 4-3c5-1 19-9 16-9l-8 3a288 288 0 0 1-27 14c0 2 1 2 7-1zm-286-5-2-23-2-15c-2-8-2-148 0-152 1-2 0-3-3-3a789 789 0 0 0 1 188c1 4 0 5-1 5-2 0-2-5-5-34-2-29-3-152 0-159 0-3 0-3-6-5l-11-5-18-8a1318 1318 0 0 0 2 164c1 18 3 26 5 28a908 908 0 0 1-3-175 2667 2667 0 0 0 5 152c0 10 3 26 4 28l9 5a1205 1205 0 0 1-2-189c2 0 3 8 2 21-2 54 1 151 5 170 0 1 9 8 11 8l4 2c5 2 5 2 5-3zm-15-6a1161 1161 0 0 1-4-189v52a1238 1238 0 0 0 4 137zm-16-8-3-19a1422 1422 0 0 1-2-165c0-4 0-4 2-4s2 0 1 49c0 59 0 56 2 92a9636 9636 0 0 1 0 47zM29 252l1-5 1 5-1 4-1-4zm321 192a572 572 0 0 0 10-87 220 220 0 0 0 3-35c3-38 3-59 0-59a1163 1163 0 0 1-16 189l3-8zm5 3a734 734 0 0 1 11-89l1-14 5-81c0-2-1-3-4-1v2c2 2 1 14-1 44a645 645 0 0 1-6 74 2011 2011 0 0 0-6 65zm-320 0-3-2c-2 0-2 1 0 2 3 2 5 2 3 0zm327-4a2800 2800 0 0 0 16-186c-2 0-4 2-3 4a674 674 0 0 1-9 127 420 420 0 0 0-5 48l-1 12c1 0 2-2 2-5zm6 0v-6a778 778 0 0 0 14-121c3-31 4-61 3-62-2-2-3 2-3 16a611 611 0 0 1-6 78 1258 1258 0 0 1-9 83c-3 16-3 15-1 15s2-1 2-3zm7-2v-2l1-7a1786 1786 0 0 0 15-183l-1 4a1539 1539 0 0 1-17 178c-3 15-3 14 0 12l2-2zm-352-1c0-1-1-3-4-5s-4-4-4-5c0-3-2-4-4-2-2 1-3 4-1 4l6 4c6 5 7 5 7 4zm360-3 2-5c1-15 3-28 4-29l2-24a9143 9143 0 0 1 8-95c2-16 2-40 1-41a1292 1292 0 0 1-13 148 1013 1013 0 0 0-4 46zm17-6-1-2c-1-1-2 1-1 2 1 2 2 1 2 0zm-9-4 2-12a452 452 0 0 1 5-37l1-22a313 313 0 0 0 3-32l2-11a473 473 0 0 1-3 48 1367 1367 0 0 1-5 61c0 3 0 4 1 3a266 266 0 0 0 9-72 525 525 0 0 0 6-63c2-39 3-57 2-58-2-1-3 3-4 17 0 16-1 22-2 20v-15c0-14 0-16-3-15l-1 14-1 22a1191 1191 0 0 0-8 96 3519 3519 0 0 0-4 26c-2 15-2 43 0 30zM25 413a981 981 0 0 1-2-171 424 424 0 0 1-13-12c-3-2-3-2-3 2l-1 15a1141 1141 0 0 0 1 138c1 21 5 42 5 25 0-4 1-5 2-3l1 7c0 6 1 9 3 9a1186 1186 0 0 1-4-185c4-5 6 5 4 17a1240 1240 0 0 0 5 170c-1 1 3 6 4 5l-2-17zm-13-9c-1-1-3-19-2-20l-1-8v-10c1-3 1-4 2 15l2 18c1 4 0 8-1 5zm-4-60zm0-95c1-15 1-17 3-15v15c-2 17-3 18-3 0zm3 173c0-1-2-3-4-3v4c1 1 4 1 4-1zm207-140 2-1c0-2 28-4 30-2 1 2 38-1 45-3 2-1 2-2 1-3v-3c-2-1-8 1-8 2 0 3-13 4-16 3l-4-1-3 1-8-1-25 1 6-1 13-1 15-2a387 387 0 0 0 73-19l-9 3-14 3-17 4a384 384 0 0 1-166 0l-12-3-16-4a329 329 0 0 1-94-45c-5-6-6-6-6-1 0 4 1 7 4 10l1 2c-2 0-2 3 1 5l6 5a162 162 0 0 0 47 24 490 490 0 0 0 85 24c18 3 27 4 47 4l22-1zm-38-2a125 125 0 0 1-24-4 408 408 0 0 1-61-15l39 9 18 4c8 2 18 3 35 4 15 1 9 2-7 2zM72 254a296 296 0 0 0-19-7c-12-4-43-23-38-23l13 8a227 227 0 0 0 41 20l10 5-7-3zm-39-23c-5-2-6-3-4-3l7 3c6 4 5 4-3 0zm-13-8c-5-4-8-6-6-6l12 8c1 2-2 1-6-2zm222 58-3-1-3 1 3 1 3-1zm91-13a315 315 0 0 0 21-7c13-4 46-22 40-22l-15 8-15 7-13 6c-2 1-18 6-26 7-5 1-6 2-6 3 1 1 2 1 14-2zm-97-1c2-1 2-1 1-4v-16a892 892 0 0 0 1-76c2 2 3 22 3 58v37h8a267 267 0 0 0 35-6h3v-43c-2-26-2-53-1-52 2 2 3 28 4 75l1 18c2 1 10 0 10-1a502 502 0 0 0-2-82c0-16 0-16-7-13l-13 2-15 2 1 4a954 954 0 0 1-2-1c1-3-1-3-7-3-9 1-9 2-7 21a429 429 0 0 1-1 65 851 851 0 0 0-2-78c1-7-9-10-15-4h-3l-16-1-23-1c-13-1-12-7-13 47 0 47-1 49-4 46-2-1-1-23 2-87v-7l-5-1-25-4-6-2h-5l-5-1-8-1-30-9c-10-4-10-4-12 29a4384 4384 0 0 1-6 59c-2-1-2-23-1-37a3633 3633 0 0 0 6-57 294 294 0 0 1-56-30l-4 15-3 15c-1 2-5 56-4 59s2 0 2-6l1-9 1-3 1 3v11c-1 8-1 9 1 11 3 2 3 1 3-12a373 373 0 0 1 6-67c2-11 4-13 6-8l3 3c2 0 2 10 0 26-3 15-4 27-5 47 0 16 0 18-2 18s0-32 2-50c3-21 4-35 3-36-2-2-3 0-3 4l-1 9c-2 6-3 21-5 47l-1 21c-1 2 6 9 10 9l1-14a500 500 0 0 1 7-51l-4 60v8l3 2c4 3 5 2 2-2-2-3-2-15 3-60 3-30 3-31 6-30 2 0 2 2 1 9a328 328 0 0 0-2 23 600 600 0 0 0-4 61c-1 1 9 8 21 12l7 3 13 5 20 5c1-1 2 0 3 1l5 2 9 2 22 4 23 5c12 2 59 3 68 2zm-26-14v-31c2-12 3 14 1 34l-1 8v-11zm19 8a709 709 0 0 1 2-49v7l-2 22v20zm-38-17 1-20c1-3 1 3 1 16l-1 21c-1 1-1-4-1-17zm10 18c-2-3-1-39 1-37a120 120 0 0 1-1 37zm18-2v-53l1-7v6l1 13a941 941 0 0 1-2 41zm38-8a1115 1115 0 0 1 1-71 833 833 0 0 1-1 71zm17 7a986 986 0 0 1-2-88c2 10 4 91 2 88zm-112-8v-12l1-5v25l-1-8zm-10 6c-2-2-2-8-1-10l1-15c1-18 1-17 2-15v17a5420 5420 0 0 0-2 23zm-10-17a485 485 0 0 1 3-23c1 4 0 37-2 38l-1-15zm138 2zm15 13-1-25a1423 1423 0 0 0-2-65c3-4 4 13 4 56 1 32 0 37-1 34zm-113-24 2-30v-7l1 8v9l-1 20-1 21-1-21zm-70 18a421 421 0 0 1 6-90c3-1 3 6 0 49l-2 29c0 12-1 15-4 12zm22-21zm-32 18c-1-5 1-53 3-55 1-1 1 1 1 5l-1 7-1 17c0 13-1 27-2 26zm21-10c1-21 2-28 3-28l-1 36c-1 5-2 1-2-8zm-31 6v-29a2201 2201 0 0 0 4-50l1-5 1 5-2 32-1 23c0 23-1 27-3 24zm-10-4a704 704 0 0 1 6-84c2 0 0 32-3 49l-1 19c0 13-1 19-2 16zm-19-5c0-3 0-24 2-46 3-37 4-43 5-43 2 0 1 16-2 41l-1 20c-1 25-2 34-4 28zm-6-1a412 412 0 0 1 8-86c-2 13-5 54-5 70 0 14-1 19-3 16zm-7-4a358 358 0 0 1 9-90l-4 39a549 549 0 0 0-5 51zm151-23c1-17 1-19 2-18s0 31-1 33c-1 1-1-2-1-15zm-38 9v-4l1-11v-14c1-4 1-1 1 12 0 16-1 23-2 17zm47-16 1-18 1 1v16l-1 17c-1 1-1-4-1-16zm-56 1c0-18 1-32 2-32l-1 44c-1 2-1-1-1-12zm-28-6 3-27c1 0 1 4-1 21-1 19-2 23-2 6zm66 5c0-12 1-24 2-18v21c-1 4-2 2-2-3zm-87-13v-8l1-13 1-5v27l-2-1zm-90-18 1-9c1-4 1-3 1 3l-1 9c-1 2-1 1-1-3zm2-21 3-15c2-12 3-15 4-14 1 2-5 30-6 30l-1-1zm297 121 11-3c15-3 31-8 38-13l10-4 9-5 7-4c4-2 15-12 13-12l-6 4-6 4-4 3-4 3-9 4a228 228 0 0 1-64 23c-2 1 2 2 5 0zm-4-12 1-1-1-24-3-62a621 621 0 0 1 7 80c0 6 0 6 3 6 2 0 2-1 2-2a898 898 0 0 1-4-63c-2-20-2-35 0-28a770 770 0 0 1 8 91c3-1 1-53-2-77-2-13-2-17 0-17l2 1 1 13c2 9 3 24 3 46 1 32 2 32 3 32 3 0 2 2 1-30a944 944 0 0 0-2-63 584 584 0 0 1 9 91l27-10 5-3v-9a744 744 0 0 1-3-48c-4-33-4-34-2-34 3 0 9 57 8 80 0 10 0 10 6 7 3-3 4-4 3-6v-10l-6-73c0-4-2-4-9-1s-7 3-6 14c7 47 7 78 0 81-7 4-7 4-7-8a289 289 0 0 0-2-41 258 258 0 0 0-4-33c0-5 0-5-2-5a2438 2438 0 0 1-39 9c-4 0-5 2-4 8a896 896 0 0 1 4 89h3zm31-11-2-20c-1-16-1-26-5-59-2-15 2-13 4 1a449 449 0 0 1 3 78zm6-4-1-18a438 438 0 0 0-5-70c4-2 9 48 9 84 0 4-2 7-3 4zm29-27-5-58c-2-12-2-13 1-13 2 0 2 2 4 29 3 31 3 58 2 58-2 0-2-3-2-16zm8 22c3-2 6-4 4-4l-6 3c-5 3-6 4-4 4l6-3zm20-2c6-5 5-8-1-3l-5 6c-1 1 3 0 6-3zm-42-22a502 502 0 0 0-5-64h-4l1 5 1 8 2 11 2 32c1 29 1 30 3 29v-21zm25-6a373 373 0 0 0-7-64 722 722 0 0 1 6 84l1-20zm26 18c2-3 2-18 0-18-1 0-2 2-2 6l-1 5v5c0 4 1 5 3 2zm-20-4a422 422 0 0 0-7-85c-1 0-1 3 2 29l2 36c0 21 1 24 3 20zm7-7c2-3 0-5-2-2s-2 4 0 4l2-2zm0-10a282 282 0 0 0-5-62l1-1c1 0 2 2 2 5l2 11 2 21c2 27 2 29 4 29a164 164 0 0 0-4-55l-4-25-4 3-3 3 1 10a515 515 0 0 1 6 64c1 1 2 0 2-3zm13-8-1-13-1-13c-1-13-5-44-7-46-2-4-3 0-1 10a389 389 0 0 1 5 35l3 30 2-3zm-158-31a19755 19755 0 0 1 18-4l-24 2h-12l10-1a852 852 0 0 1 44-6c1-1-7-2-16 0a371 371 0 0 1-51 1 280 280 0 0 0 31-2 143 143 0 0 0 31-3 121 121 0 0 0 26-6c8-2 11-3 8-3h-5c-34 9-107 13-145 7a456 456 0 0 1-100-25c-3 2 22 11 47 18 16 4 23 7 19 7-9 0-47-11-64-19-10-5-12-6-12-4-1 2-3 1-16-7l-11-6c0 4 27 20 30 18l-1-2c-1 0-1 0 0 0 1-1 3 2 2 3l2 2 8 5 8 4 8 3c11 4 23 8 40 11a594 594 0 0 1 41 7l16 1c10 1 55 0 68-1zm-64-2 19-1 24 1h-43zm-26-2-7-1h15l3 1h-11zm23-3a275 275 0 0 1-45-7 742 742 0 0 0 57 6l9 1h-21zm-51-1-2-2c1-1 8 1 9 2h-7zm-18-5a450 450 0 0 1 3 0c2 1 2 1 0 1l-3-1zm-40-13-7-3-3-2 3 1c3 0 5 1 11 5l-4-1zm223 14c1-1 1-1-1-1l-3 1c-1 2-1 2 1 2l3-2zm16-3c2-1 2-2 1-2l-8 2c0 2 5 1 7 0zm-73-2a634 634 0 0 0 62-8h-10a807 807 0 0 1-95 5 321 321 0 0 1-116-22l-31-13c-3-1-3-1 0 2a226 226 0 0 0 78 29l21 4 13 1 21 2h57zm83-1v-2l-4 2c-2 1-2 1 0 1l4-1zm-68-6a438 438 0 0 0 73-15l-6 2-5 1a933 933 0 0 0-35 6l-22 2c-18 2-39 3-42 2s-1-1 5-1a132 132 0 0 0 19-1 789 789 0 0 0 15-3 451 451 0 0 1-183-21c2 4-7 0-10-5h-5c-1 2 5 7 10 9l12 4a229 229 0 0 0 38 12 75 75 0 0 0 14 3 351 351 0 0 0 122 5zm-75-2a381 381 0 0 1-83-16l-4-2h3l16 4a322 322 0 0 0 93 13h8l-5 1h-28zm-97-20c-6-3-8-4-5-4l2 1 5 2c5 0 10 3 6 3l-8-2zm243 22 3-1c1-2-3-1-7 0s-5 3-1 2l5-1zm32-5 3-3-9 3-3 2h4l5-2zm-128-5c19-1 58-4 59-6h-34a6687 6687 0 0 1-103 2 407 407 0 0 0 78 4zm80-4h-6 6zm68-2 1-2-4 2c0 2 1 2 3 0zm-327-3-1-1-4-1c-2-2-3-2-3-1l2 2 3 2c1 1 3 1 3-1zm203 0c48 1 56 1 78-6 2-1-4-1-18-1a576 576 0 0 1-8-3h36l7-3 8-3c1-1-53-1-134-1H83c-12-1-12 0 3 5l9 3h30a9152 9152 0 0 0 124 0c2 2-7 2-72 2l-72 1 8 2 9 2c4 2 27 3 76 2h61zm-213-5c-2-3-10-7-10-7-1 1 3 5 7 7 3 2 4 2 3 0zm351-4c2-1 3-9 2-8-1 0-2 1-2 3l-2 4c-3 2-3 5 0 4l2-3zm-369-4c-4-3-6-4-6-2s5 6 7 6 2-1-1-4zm14 0-3-2 1 2 3 2s1-1-1-2zm-12-4-3-4c-2-2-3-3-2-5 1-5-2-6-4-2-2 5-2 4 1 7 5 5 10 8 8 4zm7 0-2-2c-2-1-3 0-1 2h3zm-8-7-3-2 2 5c2 1 2-2 1-3zm341 2c20-5 23-31 6-46-6-5-32-19-34-18l12 7c25 13 35 29 28 45l-2 5h-84a13149 13149 0 0 1-242 0l5 4 3 3h308zm29-5c2-3 0-9-3-10-2-1-3 2-1 6v6c-2 5 2 3 4-2zM39 92l-3-4-7-11c-4-9-6-9-5 0 1 6 15 20 15 15zm233-4a9662 9662 0 0 1 108-1l1-4 1-2h-56a796 796 0 0 1 30-2h27l-1-3-1-3-169-1-169-1v3c0 4 0 4 93 4l88 1c20 2-3 2-90 2-83 0-89 0-88 1 2 5 1 5 47 6a2757 2757 0 0 1 87 1l92-1zM42 87l-2-5c-3-5-6-13-5-14l1-3c2-15 29-34 60-41l9-2 10-3c15-2 19-3 16-4-2-1-15 1-20 3l-6 2-9 1c-11 2-8 0 3-3a246 246 0 0 1 80-9h10l12 1a5625 5625 0 0 1 78 4c25 4 24 4 33 7 56 16 78 32 78 56 0 3 2 4 3 1 3-10-7-28-18-35a184 184 0 0 0-68-28l-6-2-12-2-32-5a811 811 0 0 0-145 4c-10 3-40 13-46 17-8 4-8 4-8 6 0 3-1 3-8 7-11 7-21 27-17 37 3 6 9 13 9 10zm25-57c2-2 10-5 14-6s4-1 2 1c-3 2-18 7-16 5zm307 39c6 0 7 0 3-4l-2-3h-29l-31-1c-2-1-3-1 30-1 31 0 31 0 19-6l-6-3h-84a6793 6793 0 0 1 78-1c4 1 4 1-3-3-13-6-4-6-141-6L82 40l-5 3-10 4c-5 2-4 2 38 2l42 1-68 1H60l-5 3-5 3a1784 1784 0 0 0 87 2h80c57 0 70 0 66 2H171C26 60 45 59 44 66l-1 2 53 1h278zm-59-34c-12-4-17-4-71-5a789 789 0 0 0-138 4c-6 1-5 1 13 2a8683 8683 0 0 1 141 1h61l-6-2zm19 1-2-1-7-2-8-2-3-1-21-6-23-4a490 490 0 0 0-154 5 554 554 0 0 1 190 5 1445 1445 0 0 1 28 6zM54 35l1-1-4 2c0 1 1 1 3-1zm223-7-17-2-12-1a552 552 0 0 0-74 2l43 1h60zm-88-15 2-2-23 1a967 967 0 0 1-31 3c1 1 45-1 52-2z"/></svg>