<svg xmlns="http://www.w3.org/2000/svg" version="1.0" viewBox="0 0 1723 265"><path d="M808 388c0-1-3-2-7-2h-20c-28 0-52 0-65-2l-78 1c-59 1-135 0-155-2-18-3-83-3-105-1-29 3-25 3-63 1-23-1-34-1-41 1l-18 3a26453 26453 0 0 0-213-6 2590 2590 0 0 1-333-3c-4-5-5-31-6-122a393 393 0 0 1 2-102c2-2 2-3 0-6-6-6-2-19 5-19l5-2c2-3 22-3 86-1a8238 8238 0 0 0 397 5c10 2 190 2 241-1l95-1 125 1c60-1 187 1 219 4a3150 3150 0 0 0 264-1 397 397 0 0 1 115 1 1428 1428 0 0 0 151-5c16 4 16 5 17 50 1 26 0 37-1 41-2 4-2 9 0 24s2 23 0 31v17a405 405 0 0 1-1 86l-3 7h-127a5744 5744 0 0 1-193 2 634 634 0 0 0-81-1c-2-3-17-2-21 1-3 2-5 2-5 0-2-3-10-2-25 2-7 1-11 2-12 0-3-3-25-4-26-1-1 2-2 2-4 1a794 794 0 0 1-119 0zm85-9c44-1 45-1 30-10-8-5-8-5-14 0-8 5-16 3-21-5-5-9-10-9-16 0-4 6-5 7-9 6-6-2-20 6-18 10l3 1c2-1 22-2 45-2zm-57-5c3-4 4-6 2-8-1-2-3-2-9 2l-8 7c0 7 10 6 15-1zm-991-1c15-3 21-3 32 0 10 2 21 2 35 1l41-1c19 1 57 0 58-1l-5-13c-3-10-4-16-4-25 0-10 0-12 6-20a66 66 0 0 1 17-16c2-2 5-3 8-3l6-2c4-3-11-7-16-5l-5 1-9 1c-7 3-10 5-19 21-5 8-5 9-9 6-4-4-4-15 0-23l3-6-3-5c-3-4-4-4-8-2l-7 6c-3 5-5 4-11-5l-7-8c-2 0-4 8-2 9 3 2 9 11 9 15s-7 10-13 10c-4 0-6-2-12-11l-7-10 1-14c1-13 1-14-2-15-5-3-8-11-7-22v-10h-6c-5-1-7 0-11 6-5 5-5 7-3 10 3 5 3 21 1 25l-11 10c-8 5-10 7-11 13-3 10-2 13 1 16 4 3 9-1 6-6-1-2-1-3 1-5 7-5 12 4 7 9-3 3-3 4-2 5 5 2-3 7-11 7-7 0-7 0-10-7-2-8-2-8 2-19l4-11-6-3c-6-5-8-12-6-21 2-6 4-9 11-11 5-1 6 0 11 7 3 5 5 9 4 11-1 5 3 4 5-2 1-2 1-5-1-11-3-8-3-8-1-17l5-9 4-4c2-3 6-6 10-7 7-3 8-4 4-10-6-7-21-11-26-6-2 2-2 3 0 10l3 8-4 8c-5 11-11 15-15 14-2-1-5 0-7 2-4 5-9 2-12-6-2-8-6-9-6-2 0 3-2 9-5 13l-6 12-3 4-3 2c0 3 6 5 10 3 3-1 4 0 5 3 2 6 1 10-5 16-5 5-13 6-19 3-4-2-5-2-9 1-5 5-5 8-2 12l2 6 3 6c2 3 2 4 1 7-2 6-11 7-12 2-2-5 0-7 4-4 1 2 3 2 3 1 0-3-4-7-8-7-2 0-7-1-10-3l-10-3c-3 0-3 0 1 5 7 8 2 18-6 13-4-3-5-9-2-13 2-3-3-9-8-10-3-1-3 0-4 7 0 10 3 23 10 36 5 10 6 11 16 13 10 3 15 2 12-3-3-4-2-15 1-20 4-6 14-5 19 2l4 8c0 9-12 26-19 26l-2 2c0 3 11 7 17 6l25-3zm863 1h97l2-5 5-10c2-4 2-4-2-4-5 0-7-6-2-11 2-3 3-5 1-6-2-2-4 0-7 8-2 6-3 7-6 6s-7 0-12 4-9 6-16 6c-9 0-10-1-17-11s-8-12-8-21c0-22 14-39 19-22 1 3 2 8 1 10-1 4-6 7-8 4s-1-7 2-7c2 0 2-2 2-4 0-5-6-3-9 4-3 5-3 7-1 11v6c-2 1-1 2 10 11 8 6 14 5 23-2 6-6 9-12 10-25 1-9 0-13-2-20-4-8-6-10-11-6-2 2-15-1-23-6-5-3-9-4-17-3-4 0-5 1-6 7-1 9-4 11-10 5-2-3-4-4-5-4-2 4-19 12-23 12-10 0-17-10-14-21 1-5 6-10 9-10l5 5c3 5 7 4 7-1 0-2-4-10-9-17l-11-20c-2-5-3-7-5-6-4 2-14-3-16-8-2-6-1-16 1-22 3-6 2-13-3-26-3-8-5-10-11-12l-12-3-7-2c-3-2-7-2-17 1-17 4-24 9-30 19-4 7-4 9-4 26v18l7 14c7 13 17 27 19 27l8-4-6-6c-6-4-7-9-6-19 1-7 9-18 13-18 10 0 18 14 18 28 0 15-11 35-19 35l-7 4-3 5 7-2c6-1 7 0 8 3 1 5-2 10-4 6-1-1-5-2-10-1-11 2-26-7-31-19-3-8-4-8-7 2-2 5-2 7 0 10l5 14c3 9 4 11 9 13 7 2 8 6 1 7-4 1-6-1-9-6-4-6-6-7-7-4-8 15-14 23-18 21l-2-6c0-5-3-6-4-2-1 3-4 2-4-1 0-5-5-11-10-11-4 0-9-4-9-8s4-9 7-9l5-3c2-2 2-3 1-6-1-2-4-3-11-2-9 0-10 0-17-8-10-13-12-28-5-47 4-13 23-17 29-6l4 14c0 7 0 9-4 15-5 7-6 7-12 6-8-2-8 1-1 6 3 3 6 4 12 3s8-2 14-11c12-21 15-41 9-64-6-20-14-30-28-33-4-1-8-2-9-4-1-1-4-1-7 1s-5 2-8 0c-3-3-4-2-6 1-2 2-4 4-5 3-6-1-12 7-18 25-3 7-3 7 0 15 3 9 3 9 1 18-4 12-9 18-16 18-3 0-5 1-5 3s-2 3-4 4-4 4-4 7l-5 6c-2 1-5 4-6 8-2 9-1 13 3 10s9-2 13 3c4 6 4 11-1 19-5 9-9 11-17 6a116 116 0 0 0-19-8c-3-2-3-1-3 4 0 6-1 7-4 7-4 1-8-3-17-20l-5-9-6 10c-6 8-7 9-11 7l-7 1c-2 2-4 1-7-2-4-5-10-4-10 2l-1 18c-1 15 2 29 7 31l4 4c7 8 18 6 25-3 5-7 6-20 2-17-7 4-10 4-12-2-3-7-3-12 2-17 3-4 5-4 9-2s9 14 9 23c0 7-8 25-13 29-11 8-28 3-37-12l-7-7-2-4c0-7-2-7-5-1-2 4-4 5-7 5l-4 2 6 11 7 13c1 4 3 5 16 6h27a1098 1098 0 0 1 208 4l26 1 111-2zm-145-13c-5-4-7-8-6-14 2-13 20-16 23-4 4 14-8 26-17 18zm11-10c2-3 2-5 1-7-3-4-8-3-11 2-2 4-3 5-1 7 4 3 9 2 11-2zm-4-21c-1-3 2-7 4-5s2 8-1 8l-3-3zm-7-3c-2-2-3-3-1-4 1-2 6 2 6 5s-2 3-5-1zm20-15c-8-7-13-15-12-21 2-4 4-4 13 3 5 4 9 5 16 5h11c3 0 2 4-2 6-2 2-3 5-3 7 0 6-4 6-6 1 0-3-3-6-8-7l-10-7c-2-1-4-2-5-1-1 2 1 4 11 10 5 3 8 7 8 8 0 5-4 4-13-4zm395 64-15-3c-15-2-20-5-31-15-3-3-7-5-10-5s-4-1-5-3h-3c-1 4 0 6 9 11l14 8 12 6c6 2 30 3 29 1zm21-2 11-5 4-3-5 1-23 9 2 1 11-3zm61-4 4-7c-2-3-8-6-10-6-8 0 0-15 9-17 5-2 7-3 7-6 1-12 2-15 5-17s4-2 7 2c4 6 4 6 9 0s10-6 13 1c1 4 3 6 5 6 6 0 7 21 1 31-4 7-4 12 1 8 5-5 8-18 7-29-1-10-8-21-13-21l-4-3c-1-2-6-3-12-3-13 0-21 6-34 24a151 151 0 0 1-34 37l-4 4 5 1 20 1c13 0 14 0 18-6zm52 3-4-1c-2 1-5 0-5-1l-6-3c-6 0-14-6-15-10v-15c0-12-1-14-4-14-3-1-3 0-3 6l2 11c2 7 0 8-6 4l-9-4c-5 0-5 6 0 7 10 3 17 8 18 14l4 8c2 3 26 1 28-2zm141 2c34 0 62-1 62-2l-3-6c-5-6-3-25 2-25 2 0 2 1 1 3l-1 11c0 5 1 7 5 10 6 5 19 6 23 2 4-3 0-5-4-2-3 2-6 2-8 2l-6-3c-5-1-6-8-2-9 5-2 5-8 1-10s-4-7 1-7c4 0 6 6 5 15v8l5-1c10-3 21-9 24-14 9-11 16-44 11-45-3-1-13 14-13 20 0 3-1 7-3 9-3 4-7-1-7-8 0-4-1-7-3-9-4-3-14 4-16 11s-5 9-8 5c-4-4-3-9 2-12 4-2 4-3 4-9s-1-7-6-7c-4 0-5-1-6-5 0-5-2-6-10-8-14-2-19-11-13-23 2-4 2-5-1-11-2-4-3-10-3-13s-1-6-2-5c-4 0-8 2-8 6 0 2-2 3-4 2s-5 0-6 1-3 0-4-1c-2-2-4-1-7 2-4 3-4 3-7-1l-3-9-2-6-2-8c0-4-1-7-2-7-3 0-1-8 2-11l4-3-5-3-9-3c-4 0-14 7-18 12-2 3 2 8 9 9l11 7c5 6 7 16 7 39 0 8 1 10 3 11 1 1 2-2 3-7 1-7 2-8 4-7 1 1 4-1 6-3 5-8 11-1 11 14 0 6-1 9-4 12-4 4-4 5-3 12 3 12 2 19-3 25-6 8-10 9-14 4-5-5-7-19-3-25 3-5 5-4 5 4 0 6 4 9 7 5v-11c-1-9-2-10-8-12-12-5-12-6-12-28 0-17 0-19-3-23-4-5-9-5-14-2-4 2-4 4-5 15v13l-7 1h-7l4 10c5 10 5 13 0 29-5 17-25 16-25-2-1-9 8-16 13-10 2 4 4 1 2-4s-11-14-14-14v3c2 4 0 14-5 17-1 2-5 2-8 2-4-1-4-1-4-7 1-6 0-6-2-4l-2 6c0 2-2 4-4 5-4 3-4 3-3 14 1 9 1 11-2 13-2 2-5 2-7 2-4-1-5-2-6-9-1-5-3-9-7-11-8-6-19-10-22-8-2 2-2 3 3 6 13 8 23 23 23 37 0 8-5 27-9 33l-3 6h30a198 198 0 0 1 38 1l67-1zm-977-4c3-3 3-3-10-3-9-1-10-1-13-8-2-6-4-7-7-6-9 2-14 4-18 8-3 3-5 4-11 3-6-2-14 2-12 5 0 1 5 2 11 2l12 2c1 2 46-1 48-3zm799 2c2-2 2-2 0-3l-5-1-5 1-1 3c0 3 8 3 11 0zm336-1c9-3 9-4 8-46-1-56-1-55-3-55-1 0-3 2-3 5-1 6-3 9-11 16-6 5-9 7-13 6-9-2-11 3-11 21 1 16-12 40-24 49l-5 5c1 3 53 2 62-1zm-28-49c-3-4-2-8 2-11 3-2 4-2 6 1 3 4 3 4 0 8-3 6-5 6-8 2zm13-14c-2-3-1-4 2-8 4-5 5-5 7 1 0 3 0 5-2 8-4 3-4 3-7-1zm-1598 62c0-2-3-3-6-3-10 0-29-14-29-20 0-2 2-2 3-1 3 1 3 0 2-3s-3-4-5-4c-3 1-4 0-5-5l-4-24c-2-21-2-20-11-19-6 1-10 2-12 5-4 5-6 5-8 0-2-6-2-6 2-13l4-5-5-3c-3-2-6-3-7-1-2 3-2 88 0 90s20 3 41 4l19 2c8 2 21 2 21 0zm-59-54c-4-3-3-10 1-16l4-5 3 5c4 6 4 8 0 14-4 5-4 5-8 2zm6-9-3-2-1 2 2 2 2-2zm358 61c6-2 6-4-2-7-6-2-9-6-17-18-8-11-14-18-24-26-7-5-15-10-17-10-3 0-3 1-2 6 2 6 3 6 8 2 4-3 8 3 9 13 0 7 1 7 7 6 8-1 10 4 6 12-2 4-3 6-2 7l4 3c4 3 4 5 4 8-1 5 0 6 10 6l16-2zm67-1c-1-1-6-3-11-3l-8-1 6 3c9 4 15 4 13 1zm12 0c1-1 0-2-2-2l-4 2c0 2 1 3 2 3l4-3zm114 1c0-4-4-5-7-3-5 4-4 5 2 5 3 0 5-1 5-2zm530-5c5-3 5-4 7-14 2-15 11-8 11 9 0 10 2 12 7 6 3-5 3-11 0-18-3-5-2-12 0-12 4 0 11 12 11 16-1 2 0 6 1 8 1 3 2 3 4 1s2-5 2-7l-1-11c-1-7-5-16-8-16l-5-6-4-5 4-5c3-4 3-5 1-9s-1-5 2-9c6-6 5-11-1-10-4 0-5 0-4-5 0-6 0-6-6-2-3 2-7 1-14 0-11-3-15-2-11 3 3 3 3 3 0 4-4 3-3 6 2 5 5 0 8 4 8 8 0 1-2 2-5 1-7-2-7 2-1 10 4 4 5 8 5 17 1 10 1 13-3 22-2 6-6 11-9 14-7 5-9 13-3 10l10-5zm-788 1c10-5 12-10 8-24l-4-11-2-6c0-5-3-9-6-9s-6 13-6 22c0 5 0 7 3 7 2 0 3 1 3 5s0 4 3 1c6-6 8-2 3 5-2 4-5 7-6 7l-4 3c-4 4-1 4 8 0zm155 2h-3c-1 1-1 1 1 1s3 0 2-1zm113-11c-7-11-8-14-9-24-1-11-1-11-3-7-4 7-1 26 6 35 3 4 9 7 13 8l-7-12zm-246 0c5-6 8-12 8-13l-4-1c-5 0-12 9-12 14l-1 7c-2 5 0 4 9-7zm9 5c-3-2-10 0-10 2 0 1 3 2 7 1 5 0 5-1 3-3zm131 3c7-6 13-16 12-21s0-6 2-6c3 0 2-5-2-6-13-3-26-9-34-17-13-11-16-16-16-18l-3-6c-2-2-1 0 1 6 4 9 16 24 22 28l10 4c9 4 11 6 11 9 0 5-6 5-8 1l-4-3c-2 0-2 0 0 4s2 5 1 6l-4 6c-3 4-2 4 4 3l9-4c1-1 2-2 3-1 1 0 0 4-4 9-6 8-6 10 0 6zm760-1c-1-1-3-3-6-3h-5l4 3c6 4 8 4 7 0zm26-1 22-15c14-10 20-18 18-25-1-5-8-6-13-1l-14 11c-7 6-10 7-12 5-2-1-5-1-11 2-13 6-20 10-21 12-2 3 9 2 13-2 2-1 7-3 11-3 7 0 10-2 29-15 3-2 5-3 6-2 1 2-7 13-9 13l-11 6c-10 8-20 14-24 14l-5 2c-1 4 13 2 21-2zm-1179-1c2-1 3-3 2-3-1-1-4 1-6 2-6 4-3 5 4 1zm333 1c0-2-1-3-3-3s-6-3-9-6l-6-6c-2 3-16-8-22-17-6-10-7-16-5-22 1-2 3-2 7 1 8 6 15 7 19 3 3-3 3-3-5-12a59 59 0 0 0-19-14c-4-3-22-1-26 3l-10 5c-8 1-7 3 2 9 7 3 22 20 35 37 6 9 20 20 28 22 7 2 13 2 14 0zm145-3c-2-9-1-24 3-33l4-13 3-5c1 0 12-15 12-17l-4-1c-4 0-5-2-2-6v-8c-1-5-3-6-6-6l-6 2-7 7c-5 4-8 5-13 4l-7-2 6 8c4 5 5 8 4 9s-1 3 2 6l3 4-3 5-5 10c-1 5-1 5 2 5l7-6c3-4 6-7 7-6 3 2 3 3-4 14-4 5-6 9-5 9 2 0 2 1 0 4-4 6-3 10 2 16s8 6 7 0zm728-1c8-3 11-6 23-23l22-27c11-10 11-11-4-15l-15-2c-9-1-11-1-19 6-13 9-17 15-15 18 1 2 3 2 8-1s9-4 14-3l7 2-1 8c-1 11-8 22-21 31-11 8-16 14-10 11l11-5zm343 2c3-2 6-5 7-8 2-4 1-3-4 2l-7 5c-1 0-3 1-3 3-2 3 2 2 7-2zM23 354c-4-4-6-6-6-14-2-10-1-13 3-15 3-2 10-11 10-14s-3 0-9 8c-6 9-7 11-7 19 0 13 1 17 6 20 8 5 10 2 3-4zm154 5c8-4 4-6-10-6-17 1-29-3-31-11-1-4-9-9-15-9-1 0-2-1-2-3 0-6 18 1 27 11 4 4 5 2 1-8-2-5-5-8-13-11-8-5-9-5-11-2-2 5-6 5-15 0-4-2-7-3-8-2l5 9c4 6 7 8 12 9 11 2 13 3 14 7 1 6 18 15 30 16l10 2c1 1 2 1 6-2zm731 0c1-1 0-3-2-5-2-3-2-3 0-7 4-6 3-8 0-6-4 4-5 3-5 0l4-8c3-3 4-5 3-7s-3-1-7 3c-3 5-5 6-6 4-2-3 0-10 3-11 2-1 3-2 3-4-1-4-4-4-8 2-3 4-4 6-3 12 2 8 1 11-2 7-1-2-3-2-5 1l-5 4c-2 0-3 0-1 2l5 1c3-1 5 0 6 5l6 8c5 2 13 2 14-1zm-638-1-1-4c-1-5-3-4-3 1l2 4 2-1zm677-5c0-1-4-4-9-6l-11-6c-3-3-11-1-11 3l7 3c9 1 18 5 20 9 3 3 6 1 4-3zm89-4 10-13 12-15c7-9 13-13 17-14l7-4c1-4-12 1-17 5a3144 3144 0 0 0-23 27l-13 19c-8 9-3 6 7-5zm56 5c-1-5 0-6 3-5 2 0 3-1 3-4-1-2 0-6 2-7 3-3 1-17-2-17-6 0-10 9-12 25 0 9 1 13 5 13 2 0 2-1 1-5zm14 2c2-4 5-13 5-17s-3-1-7 9c-4 8-4 11-3 11l5-3zm-327-3c1-1-2-1-6-1-6 1-10 0-14-3-5-2-6-3-4 0 5 7 17 9 24 4zm-962-4c2-6 2-7-1-11-3-5-11-4-12 1v6l10 10 3-6zm284 4-3-3-12-16c-8-12-14-18-24-26-13-9-14-10-24-8-8 0-12 2-20 9-9 9-12 13-12 21 0 3 1 3 2-1 3-7 14-21 21-24 9-6 16-5 32 7 11 8 16 14 24 27 6 9 12 16 14 16l2-2zm123-3c3-2 8-4 11-4l10-3c4-4 3-5-2-2s-9 1-9-3-2-4-4-1c-2 5-4 2-3-5 1-5 1-8-1-11-3-5-8-6-5-1 3 6 0 7-5 3l-8-4c-2 0-2 1 3 4 8 4 11 9 11 18 0 5-1 7-3 8s-3 2-2 4c1 3 2 3 7-3zm36 3c0-2-1-3-2-3l-1 3 1 2 2-2zm556-7c4-7 2-8-3-1-3 4-4 5-2 5l5-4zm-792-4-1-5c-1 0-2 2-2 5l2 4 1-4zm139 2-5-8c-3-3-5-8-5-10 0-5-10-18-14-18-2 0-3 1-3 2l2 2c3 0 15 18 15 21 0 4 6 13 8 13l2-2zm12-4c0-2-1-3-2-3-4 0-6 3-4 5 1 3 5 1 6-2zm650 0c4-8 2-30-3-33-4-2-5 0-2 4 3 5 5 19 3 27-2 7-1 8 2 2zm133 2c1-3-6-3-12 0-3 1-2 1 4 2l8-2zm413-7c4-12 2-14-2-2-3 10-4 11-2 11 1 0 3-4 4-9zM54 336c1-11-3-16-7-9v3l2 6c2 7 4 7 5 0zm744 1c0-2 2-4 3-4 2 0 2-2 1-10 0-9 0-11 2-11 1 0 3 3 4 7 3 8 5 6 5-5 0-6-2-10-5-16-3-5-5-9-4-10 1-3 4-1 7 6l4 4c1-1 1-3-1-5l-2-8c0-5-8-15-12-15s-10-8-8-11c0-1 3-2 6-1 6 1 13-2 13-6l-4-9c-4-6-4-8-3-11 3-7 1-8-3-2-3 5-8 5-19 1-4-2-4-1-1 2 5 5 2 7-4 3-3-2-8-4-11-4l-9-2c-2-2-9-3-14-3l-11-3c-2-2-12 1-12 4 0 2 2 4 4 5 3 1 3 1 0 5-3 3-3 2-6-1-2-3-2-3-2 2s5 15 8 15c1 0 2-1 1-3-1-3 5-12 8-12s4 5 4 16c0 7 1 10 3 10 3 1 3 0 2-9-1-10 1-14 3-8 1 2 2 1 3-1 1-5 7-5 10 0l2 17c0 12 1 14 3 15 2 0 2-1 2-2a117 117 0 0 1 0-34c2 0 3 5 3 18s3 22 6 22c4 0 4-5 1-19-4-15-3-21 1-21 3 0 6 7 5 12l1 5 1 6c0 3 2 5 3 5l7 13c7 19 6 47-3 56-1 1 1 1 3 1 3 1 4-1 5-4zm-614-1 1-3-4 3-2 3 5-3zm74 0c3-2 5-5 5-6 0-3-1-2-7 4s-5 7 2 2zm619-2c0-2 4-8 9-14 10-12 15-12 23-3l5 7 13-3c16-3 17-3 27-12 9-9 13-17 15-29 2-10 2-40 0-43-2-2-10 12-10 17l2 7 3 10c1 11-2 17-10 17s-15 2-16 6c-1 3-7 8-18 14-7 4-11 2-20-11-7-9-8-12-8-19 0-10-1-10-7-1-4 5-5 6-7 4s-4-13-4-22c0-5-2-6-4-3l-6 4c-6 1-6 1-5 8 0 7 1 7 10 3 3-1 4-1 4 4s-1 6-4 7-4 3-4 6l-2 6v8c0 5 0 9-2 11-3 4-3 6 0 6l7 9c6 9 9 11 9 6zm43 0c3-2 8-4 11-4l15-3c17-7 28-24 30-47 0-8 0-9-1-4-3 18-9 30-21 40-5 6-10 8-21 10-8 1-16 4-18 6-6 6-4 7 5 2zm28 1c2-2 1-2-2-2l-5 2c-1 3 4 3 7 0zm-783-2c0-3-9-15-10-13-1 1 1 4 3 8 4 7 7 9 7 5zm85-2c4-2 9-7 13-13 6-9 6-9 3-12-2-2-3-6-3-8 0-3-1-8-3-11-4-8-4-14 1-13 12 1 17 1 21-4 7-5 19-10 20-7l7 6c6 4 7 4 10 0 5-4 5-7 1-9l-6-6-3-5 5-7 5-8-3-4c-8-9-6-37 3-47 8-10 22-2 22 12 0 10-10 16-14 9-3-5-6-4-6 3 0 13 16 20 28 13 3-2 9-4 14-4 8 0 10-1 9-4 0-2-2-3-5-3-4 1-10-4-10-10l-3-4c-1-1-3-3-3-6l-1-4c-2 0-4-2-7-6l-4-5 4-6c4-5 5-7 4-10l-1-6c0-1 0-4-2-6-2-4-14-5-73-6-4 0-13 1-21 4-5 1-6 2-5 8 0 6 1 7 4 8h5c3 1 4 15 2 26-3 11-2 12 4 12 4 0 5-3 2-5-4-2-3-7 1-10 8-5 15 5 9 14l-3 5 3 2 5 6c1 4 0 5-3 10-4 5-6 6-11 5-6-2-13 1-13 4l10 10c11 10 21 12 28 4 6-6 6-11 1-11-8 0-9-15-1-22 4-3 5-3 8-1 6 5 7 11 6 25-2 9-4 14-7 18-8 12-26 11-38 0-4-4-8-7-9-6-3 1-9 21-8 23 0 1 3 0 5-2 3-2 4-2 6 1s2 4-1 9c-2 5-3 5-7 3-2-2-5-2-6-1l-7 1c-5-2-10 4-9 12 0 4-1 6-5 11-8 7-15 6-15-1-1-5-1-5-6-4s-7-1-8-9c-1-6-11-11-16-7-3 2-4 1-7-2-2-4-2-4 0-12l2-11c0-6-8-27-10-27-3 2-5 18-4 27 4 21 14 42 24 51 14 11 18 13 22 10 4-4 24-6 28-4l7 12c5 10 5 10 15 5zm722-7c4-5 6-14 3-14l-6 7-7 7-5 4-4 4 8-2c4-1 9-4 11-6zm-807-10c-6-9-12-19-13-23-2-8-6-9-6-3-1 5 24 42 28 42 2 0 1-2-9-16zm166 11-2-7c-1-1-1-1-1 2l1 7c0 2 1 3 2 3v-5zm655 1 13-17c9-14 19-24 29-27 7-3 21-1 40 7 5 2 10 3 12 2s1-2-5-4c-12-3-12-7 0-7 7 0 11-1 14-5 6-6 28-21 32-21s24 7 27 9l7 5c2 1 6 5 7 9 3 7 7 9 9 3l-1-7c-1-2-2-6-1-10 1-6 0-7-3-9l-7-4c-5-4-22-9-30-9s-23 7-30 15c-2 3-5 5-6 5l-12 7-11 6-8 3c-4 2-6 2-7 1 0-2-2-3-4-3-3 1-4-1-5-3 0-3 1-4 5-4s6-2 10-8c5-9 8-21 7-28v-4c10 6 10 7 9 15l-3 13c-3 12 4 8 9-5l5-8c2 0 3 6 0 8-2 2-2 6 0 6l8-7c7-7 15-23 18-38 6-23 21-42 32-43l6-2c1-1-1-2-3-2-3 0-5-2-6-4-1-3-2-3-7 0-3 1-7 5-9 8-10 20-13 28-14 34-1 7-5 9-5 2 0-5 7-26 9-28s14-27 14-30c0-4-7-2-12 2l-4 8c0 2-2 7-5 11-5 7-6 11-8 26-5 32-6 36-9 36a567 567 0 0 0 6-52c4-12 5-33 3-34-2-2-7 5-10 13-2 5-3 14-3 33 0 27-1 33-7 33-8 0-12-12-12-31 0-9 0-12-3-17-2-3-5-6-7-6l-4-2c-2-3-9 0-11 4-1 3 2 4 6 1 4-4 9-1 9 4l1 6c2 2 2 9-1 11-1 2-2 3 0 10 2 6 2 7-1 10l-2 6-4 8c-5 7-6 15-3 23l2 9c0 3-5 2-7-1-3-5-6-4-8 2-2 5-2 7 0 10 1 4 1 4-4 6-12 3-28 17-41 35l-11 15c-5 6-2 5 5 0zm-681-7c0-8 0-9-2-7-2 3-3 12-1 15s3 1 3-8zm695 4c3-4 3-4-1-3l-6 5c-2 3-2 3 1 3 2 0 5-2 6-5zm254-6 3-9c0-2-1-1-2 3-2 5-3 6-7 5-4-2-6 0-3 4 2 3 5 1 9-3zm-882 0 3-3-3-2c-4-2-7-1-7 4 0 4 3 4 7 1zm182 0c4-3 8-15 7-21 0-4-1-3-3 4l-6 12c-2 3-3 7-2 7l4-2zm-773-2-1-3c-1 0-2 1-2 3s1 2 2 2l1-2zm370-8c-2-3-5-6-7-6-4 0-4 1 3 7 7 8 9 7 4-1zm179-5c-1-9 0-12 2-15l6-14 6-12 5-8c1-4 4-6 8-7 7-2 7 2 0 9-3 4-5 8-5 11l-2 8c-2 3 0 10 3 9l4-9c3-11 9-23 13-27 3-2 4-1 6 3 4 6 4 6 5-2 1-4 2-7 4-7s1 6-3 18c-4 8-3 10 1 5l4-8c0-6 7-17 11-17 3 0 5 5 4 9l-4 7-4 8-1 6c-3 2-2 8 1 8 2 0 3-1 3-3 0-4 5-18 9-23l3-9c0-4 6-14 8-14l1 3c-2 6 1 3 6-6s5-9 1-9l-5 2c-4 6-24 12-42 13-11 0-22 2-25 3-7 4-10 3-7-1 4-4 3-5-5-4-10 2-19-5-20-15l-3-7c-2 0 1 13 5 18 6 8 6 13 0 16-7 3-5 10 3 11 8 2 9 3 6 8v5c3 3 1 7-6 9-7 1-13 8-13 13 0 4 2 4 3 1 2-3 7-3 7 0l-3 5c-4 4-3 12 2 9 4-1 5 3 1 6s-2 6 3 5 5-1 4-11zm813 6c0-9-4-19-8-22-4-4-24-6-28-3-4 2-3 2 6 3 16 3 25 11 25 22 0 5 1 7 2 7 2 0 3-3 3-7zm-596-1c5-5 10-17 12-32 3-17 14-21 17-7 2 10 18 21 21 13 1-2 0-2-8-5-4-1-10-11-17-28-3-7-4-8-6-17l-2-7-2 6-2 14c0 13-5 32-10 40s-16 15-22 15c-3 0-4 1-4 3 0 5 4 5 12 0l8-2c2 2-2 8-4 8s-3 1-3 2c0 4 4 3 10-3zm565 3-3-2v2l2 2 1-2zm229-13c1-8 3-11 6-7v9c-3 10 0 8 4-2 5-13 4-14-4-13-10 2-10 2-13 1-4-1-7 10-4 15 1 2 2 2 2 0l3-7c2-4 2-4 3 0 1 2 0 6-1 8-2 2-3 5-3 7 0 5 6-4 7-11zm19 3 4-15c0-4 1-6 3-6 4 0 6 3 4 6-3 2-2 7 1 7 2 0 3-1 3-6 0-9-3-13-9-15-5-1-6 0-7 3-1 2-2 6-1 9l-3 14c-5 12-5 14-2 13 2-1 5-5 7-10zm-1557 1-4-2-4-2c0-1-1-2-2-1-2 2 1 7 5 8 5 1 6 0 5-3zm183 1c1-7 10-15 19-20 5-2 9-5 9-6l-1-2c-3 0-17 8-19 11l-4 3c-2 0-8 11-8 15s3 3 4-1zm147 2c0-2-3-5-14-15l-9-11c-7-9-8-9-19-9-11-1-13 1-12 7 1 3 2 3 3 1 3-3 22-1 22 2l3 4 9 8c9 11 17 17 17 13zm177 0c0-2-1-3-2-3l-1 3 1 2 2-2zm794 0c0-2-3-3-6-3-4 1-4 1-1 3 4 2 8 2 7 0zm87 0c4-3 8-17 7-25l-5-12c-3-5-4-6-7-4l-3 2 3 2c8 5 11 18 8 28-2 5-8 6-10 1-1-5-5-4-5 1 0 3 1 5 3 6 5 3 5 3 9 1zm-975-12c4-9 4-22 1-23-4-3-7 4-8 19-1 12 0 14 2 13 1 0 4-4 5-9zm705 8-2-11c-2-10-4-14-4-6 0 3-1 5-3 5s-2-2-1-8c1-9-2-10-4-3v15c2 9 2 9 8 9l6-1zm59-1v-2l-2 2 1 2 1-2zm20-5c3-4 11-12 17-16 8-7 12-11 14-17 2-5 5-10 8-11 3-2 4-3 3-6l11-35c3-4 1-8-3-8s-3-6 1-11c5-4 4-8-2-6-3 1-6 0-8-2-4-4-4-4-2-11 3-8 7-11 15-11 15 0 22 11 22 33l1 11 1 5c0 2 1 4 3 4s2-4 2-20c0-26 2-35 6-43 2-4 2-6 1-7l-26-1a2056 2056 0 0 1-116 3l10 16c7 10 10 16 10 20l2 8c4 2 8 16 7 23l1 12c3 6 4 15 4 42 0 13 0 19 2 22l1 7c-1 3 0 4 3 5l5 1 7-7zm-1241 2 1-7c0-2 0-3-2-3s-2 2-2 6l1 7c1 0 2-1 2-3zm189-1c0-3-1-4-6-3s-5 0-7-6c-2-7-1-24 2-28l4-4c4 0 6-4 3-10-2-7 0-9 4-3 2 4 4 4 7 3 5-2 5-2 3-7-3-7-1-9 4-3 4 6 9 5 7-1-1-4 1-4 6-1 3 1 6 2 7 1 2-1 2-2-1-6-3-8 0-11 4-4 3 5 10 11 13 11s3-3 1-5c-3-2-2-6 0-6l3 3c1 5 10 11 12 9 2-1 3-3 2-5l-1-11-3-7c-2 0-7-14-7-20 0-5-16-26-22-28-9-4-12 3-6 12 6 6 6 10 2 8-2-1-3 0-2 5 1 6-2 7-11 2s-20-5-22 1-2 9 1 9l3 2c2 3-4 11-8 11-10 0-21 14-21 27 0 5 1 7 10 8 7 1 7 1 5 4-3 3-6 14-6 19 0 7 5 22 9 24 5 4 11 3 11-1zm190-7c0-9 1-10 4-10 5-1 5-2 3-10-4-14 0-49 6-59 2-3 3-8 3-11 0-4 2-8 6-13s6-9 7-16c1-11 5-19 12-22 7-4 7-6 0-8-8-1-133 0-135 2v6c2 7 3 20 1 37-2 21-1 32 5 32 4 0 4-6 0-8-2-1-3-2-2-5l2-17c1-11 2-14 6-19 7-8 15-12 22-10 6 2 13 10 13 16 0 10-8 13-13 6-2-3-3-3-4-1-2 2-2 3 1 5 3 3 3 12-1 16-3 4-3 4 1 12l5 19c0 10 1 12 6 15 4 3 5 5 5 10 0 4 1 5 8 8 4 1 10 5 12 9l10 10 9 11 6 6c1 0 2-5 2-11zm-362 5c-3-5-3-11-1-13 1-1 2 1 3 3 1 5 3 7 3 3 0-7-10-25-13-23l-4 7c-2 5-2 8-1 12 3 7 9 15 13 15 3 0 3 0 0-4zm1546 0c3-4 4-10 2-10-3 0-8 8-7 11 1 4 2 4 5-1zm-1532-1c0-1 0-2-2-2s-2 1-2 2l1 3 3-3zm14-10-2-9c-2-4-2-4-5 0-2 5-1 13 1 19 2 3 6-3 6-10zm594 11c1-3-3-8-4-6s0 8 2 8l2-2zm29-3c-6-13-9-23-8-31 1-11 5-18 9-18 2 0 6-3 8-6 5-6 2-7-7-1-8 6-18 20-18 26 0 3-1 6-3 7l-1 9c2 9 5 9 5 0 0-8 1-13 3-11l1 3c-2 4 2 20 6 23 6 5 8 4 5-1zm14-1c0-5-3-10-6-10-4 0-6 6-2 11 3 6 7 5 8-1zm262 0 5-6c1 0 2-3 2-7 1-9 6-11 6-3 0 4 0 4 1 1 3-6 1-11-7-23l-9-12 3 10c4 8 4 12 3 20-1 15-10 25-17 19-4-3-3-7 1-7 2 0 2-1 1-2-2-3-7 0-7 5 0 11 11 14 18 5zm389 3c1-2-4-2-7 0-1 2-1 3 2 3 2 0 5-1 5-3zm-159-2c1-2 1-4-1-7-4-6-8-5-8 1 0 8 5 11 9 6zm-730-3c3-5 3-12 1-8l-6 1c-3-2-4 0-2 7 1 4 4 4 7 0zm-138-3c2 0 3-2 3-3 0-3-6-3-7 0l-3 2-4 3c-1 2 3 2 11-2zm836 0-1-2-2 4 2 2 1-4zm484 0c2-6 2-18 1-20-1 0-3 2-3 5l-3 5-2 7c0 5 1 7 3 7s4-2 4-4zm15-2c1-4 2-5 5-5 4 0 4-4 1-10-3-3-3-4 1-4 3 0 3 0-1-6-5-8-8-9-12-2-3 4-3 7-3 19 1 13 1 14 4 14s4-2 5-6zm-1245-4c-1-4-3-6-3-5-1 1 0 4 1 7l4 5-2-7zm391 4c4-4 8-14 8-21 0-6-2-6-4 1l-9 13-6 9c-1 3 7 2 11-2zm184-1c2-3 2-6 1-8-1-3-2-6-1-9l-2-4c-2 0-2 1-2 3v13c1 11 1 12 4 5zm419 2c2-5-3-9-15-11-8-2-11-2-13 0-1 1 1 2 7 3l12 6c5 5 8 6 9 2zm-1406-3-1-6-1-11c0-10-1-10-5-5-3 4-4 8-1 18 2 8 6 10 8 4zm624-2c0-3 2-7 5-11 6-8 4-10-3-4-6 4-7 6-7 13 0 8 4 10 5 2zm30 4h-3c-1 1-1 1 1 1l2-1zm923-5c11-9 17-24 17-40 0-7 1-13 3-15 3-5 5-2 3 3l-1 14-4 21c-4 11-4 13-2 15l4 1 6-2c2 0 4-2 6-6 1-4 2-8 1-9s0-4 1-6c2-5 1-8-2-22-1-2-1-3 1-3 3 0 7 10 7 18 0 10 5 18 11 20 8 2 10 0 7-13-2-13-2-14 1-14l4 6c3 9 6 9 5 1-1-4 0-5 1-6 8-4 8-3 4-9l-2-5c4-2 7 1 9 9 1 5 3 8 4 8l5 5c4 5 5 4 2-7-2-7-9-20-12-20l-9-8c-4-4-9-8-11-8-3 0-4-1-4-3l-3-6c-3-1-4-2-1-3 3-2 15 6 23 15l6 5c2-2-11-19-14-19l-3-2-3-2-20-3 1-4c1-3 16-1 24 4 4 1 10 7 13 12 7 9 14 15 17 15 4 0 2-4-5-11l-8-10-4-10c-8-13-22-18-44-14-13 3-14 3-17-1l-7-7c-6-5-22-12-30-13l-7-1 8 3c26 11 30 15 30 28 0 6 0 7-4 7-3 0-3 0-1 5 1 2 2 4 4 4s9 8 9 10l-3 6c-2 2-3 11-4 19l-4 18-1 5c1 2-8 17-14 24-3 3-4 7-2 7l9-6zm-1354 0c1-3 3-5 6-6 4-1 5-3 7-8 1-4 2-6 5-6l8-3c4-2 7-2 16 1l13 6c5 4 30 18 32 18 4 0 2-2-24-28-3-3-7-6-10-6l-9-2-17-2c-11 0-14 0-20 4-3 3-7 5-9 5l-4 2-5 2-5 2c-1 2-3 3-6 4-4 2-6 4-5 8 1 1 3 0 7-3 6-5 9-5 14-2 3 3 3 3 0 7l-2 8c2 5 7 4 8-1zm29 0 8-5 4-2-6-2c-6 0-9 2-11 5-7 9-4 11 5 4zm44 2c-2-2-11-7-14-7-4 0-2 4 2 7 5 2 14 3 12 0zm1222-1c3-3 2-3-5-2-9 1-9 0-6 3s8 3 11-1zm46-2c-1-2-2-2-3-2l-4-3c-3-5-5-4-5 2 1 3 2 5 5 6 4 2 7 0 7-3zm-1552 0c3-4 3-6-2-9-8-6-10-4-5 6 2 7 5 7 7 3zm60-3-5-10-2-4c-4 0-2 9 3 15 8 7 10 6 4-1zm1131 4c0-3-4-6-5-4s1 6 3 6 2-1 2-2zm13 0c0-1-1-3-3-3-3-2-5-13-3-19s1-9-3-4c-5 7-1 28 6 28l3-2zm-1121-4-7-3c-3 0-7-2-8-3-2-4-7-6-8-3-1 2 1 5 4 8 4 4 7 5 12 4 4 0 7-1 7-3zm677 1-2-2-6-4c-3-4-4-7-4-14 0-9 4-19 7-17 2 2 2 3 0 5-4 8 7 12 12 5 6-8-3-27-10-22-12 8-14 14-13 29 1 9 3 13 8 19 4 4 8 5 8 1zm390-1c3-6 3-8-1-5l-3 5c0 5 2 5 4 0zm-1031-1-6-5-3-1 2 4 8 4c4 0 4 0-1-2zm302-5c0-9-4-9-5-1-1 7-1 9 3 8 1 0 2-3 2-7zm11 2c1-2-1-6-3-9-4-7-6-7-4-2l2 10c1 7 4 8 5 1zm630 2c2-5 11-6 20-3 13 4 14 0 2-7-9-5-9-6-13-19-3-13-3-14 0-24 1-5 4-11 6-13 4-3 5-3 8 0 7 6 8 10 5 17l-7 9c-7 5-1 17 9 17 4 0 9-3 13-6l9-6c2 0 3-3 1-5-3-3-2-10 2-17 6-9 8-7 4 2-4 8-3 12 3 12 4 0 4-1 3-10 0-5-2-11-3-13-3-5-12-9-15-8-2 1-4 0-6-2-3-3-3-3 0-7 2-2 3-3 5-1 4 3 6-3 6-13v-14c2-6 3-7 8-5 6 1 6 1 7-5v-7c-1-1-23-2-50-2-54 0-50-1-53 14-1 6-1 7 3 13l5 6-6 7c-3 4-6 10-6 13-1 4-3 6-5 4l-3 4-8 5c-6 2-6 6 1 7l14 6c15 6 19 7 23 1s5-14 3-20c-1-3-2-3-5 0-5 4-9 1-9-6s5-17 9-17c6 0 11 9 14 20 3 10 3 13 1 21l-3 12c-1 2-1 4 1 7 3 7 7 19 6 22 0 2-2 3-4 3-3 0-4 5-1 9 2 3 3 3 6-1zm38-56c-2-2-2-3-1-6 3-4 7-5 9-2 1 4-1 12-3 12l-5-4zm-1066 55-2-4-2-14-1-16c0-7 4-29 6-30s2 3 2 10c0 12 2 15 5 7 2-7 0-22-5-30l-4-6 5-6c5-6 5-7 3-11-4-11 7-21 31-26 14-4 16-4 28 0 26 6 56 23 60 32l4 2c5 0 2-2-13-14-12-10-25-17-43-24-7-3-35-3-45-1-9 2-20 10-26 19-7 8-14 10-22 7-10-4-32 9-42 25-6 9-10 18-10 21 0 7 7 2 17-15 13-21 14-22 23-24 15-2 22 0 22 8 0 3-4 4-5 1l-3-3-2 2c0 1-4 4-9 6-9 4-11 6-17 17-5 8-10 14-13 16-4 2-7 6-10 14l-4 14c0 6 4 2 9-8 6-12 17-22 19-18 0 2 0 4-2 5-2 3-3 8-1 8l3-3 3-3c2 0 4 8 4 15 0 9 2 15 5 17 4 2 8-1 8-6l3-14c2-7 4-10 6-10 4 0 5 4 2 14-2 10-1 17 5 23 4 5 8 7 8 3zm286 1c0-1-2-4-6-6-9-6-17-19-17-28 0-8 3-10 5-2 1 4 1 4 2 1 1-5 5-5 5 0l5 22c1 3 12 5 15 3 3-3 3-9-1-9-5 0-9-8-9-19 0-8-1-12-3-17-5-8-5-12-1-19 3-5 3-5 1-7-5-2-3-16 3-20 2-2 4-2 6 2 4 4 7 4 5-1-1-4-7-8-12-8s-12 4-15 10c-3 5-5 26-2 31 3 7 2 14-2 18-4 5-8 4-12-2s-5-20-2-32l1-21c0-13 0-15-4-19-4-6-9-7-10-3l1 15a529 529 0 0 1 6 52c1 4-3 5-5 0l-3-24c-2-23-3-27-11-40-6-8-13-12-15-8-1 2 1 6 6 16a103 103 0 0 1 15 46c1 5 0 6-2 3l-2-7a111 111 0 0 0-21-47c-2-4-8-5-8-2l9 20c3 0 11 15 15 27a470 470 0 0 0 16 43l3-4c2-3 2-3 5 4 3 11 10 21 19 28 7 5 17 7 20 4zm-14-50c-1-4 2-8 4-6s2 8-1 8l-3-2zm554 48c6-4 10-14 10-26 0-8-6-20-11-20-4 0-9 8-9 15 0 6 1 7 5 8l7-1c3-3 4-1 3 8-2 11-5 15-13 15s-13-4-20-16c-7-11-16-39-16-47 0-16 8-40 15-45l6-4 11-6c11-5 32-3 45 4 9 5 13 2 4-3l-9-6c-4-3-34-3-43 1-8 3-14 8-20 15-3 4-4 4-5 2-3-4 6-15 15-19l6-4-33-1c-19 0-34 1-34 2l3 2c6 0 27 21 27 27l3 9 2 7 3-8c2-8 5-12 6-10v4a107 107 0 0 0 17 95c5 6 17 7 25 2zm138 1c0-4-3-13-4-13-2 0-2 10 0 13s4 3 4 0zm-735-2h-5c-2 1-1 1 2 1s4 0 3-1zm215-1c0-4-5-10-8-10-4 0-6 4-4 9s12 6 12 1zm698 1c3-3 6-16 5-20-1-6-2-6-7-1-4 4-5 9-2 10 2 1 1 9-1 9l-4-3c-7-8 5-26 13-23 4 1 4 1 3-3l1-6c2-1 2-3 2-6-1-4-1-5 2-4s3 1 3-4c0-3 1-5 2-5 3 2 4 11 1 17s-3 12-1 12 3-4 5-19c2-14 4-17 7-11 11 17 14 20 15 18l-1-4-2-11c0-12-2-18-6-18-5 0-6-1-4-10 1-7 0-8-10-23s-17-20-18-16c-1 1 1 4 3 5 12 10 23 34 21 43-2 7-5 4-6-6s-8-22-20-34c-9-9-11-10-12-3-1 6 3 12 10 14 5 2 17 20 16 24-1 1-4-1-7-6s-7-8-9-8c-5 0-15-12-17-21s-5-10-8-2c-1 4-1 7 1 12 4 9 2 11-6 11s-8 4-1 8c5 3 5 4 4 7-1 2-3 3-5 3-4 0-10 9-11 17-1 7-1 8 2 8l6-3c1-1 3-2 4-1 2 1 2 2-1 7-5 6-5 9-2 15 2 5 5 5 10 0 6-6 8-4 5 4s-1 17 4 23c4 6 12 8 16 4zm188-3c2-3-4-2-9 2l-4 3 6-1 7-4zm138 3-2-2-2 2 2 2 2-2zm-1058-7c1-5-1-10-5-13l-6-9-4-7c-2 0-1 7 2 13 3 3 5 9 5 13l2 8c1 3 5-1 6-5zm345-1 11-23c7-21 8-37 2-56-4-14-9-21-22-30-10-6-11-7-28-7-16 0-20 0-27 5-5 3-11 7-13 10-5 7-14 31-13 35 1 5-2 10-5 8-2-1-2-2-1-5l2-12c1-11 8-25 18-35l8-9c0-2-115 0-116 2s3 6 9 9c5 2 9 2 18 0 12-2 28-1 35 4 18 10 29 23 25 29-2 3-10-4-12-11-1-3-3-5-5-5l-13-5c-9-6-11-6-27-5-18 2-20 1-34-9-1-1-1 1-1 2l1 4 3 4c2 4 2 5-1 6-8 4-10 6-8 9 1 2 4 3 6 2s4 0 5 3v6c-2 3 6 12 11 12 6 0 9 3 9 7l1 6c2 1 3-5 2-13l1-6c3 0 5 7 5 17l1 10c2 0 8-12 8-16 0-5-7-18-10-19s-3-1-1-5 3-3 7 1l4 7 2 6c2 2 3 6 3 13 0 12 1 13 3 2 2-7 2-10 0-14-3-8-1-10 3-5 2 2 4 6 4 11 0 6 1 9 3 9 4 1 8-4 5-5-4-2-2-6 2-6 8 0 15 6 15 12l-4 2c-4 0-5 0-3 3v5c-1 1 1 1 9-3 3-1 3-1 3 5-1 7 1 8 2 1 1-4 2-4 6-3 8 2 15-12 9-17s-1-29 10-43c4-6 8-8 15-10 13-4 25-4 38 0 8 2 11 4 16 11 15 20 19 43 14 68-4 15-6 21-12 30-4 5-6 9-5 9l7-8zm-102-55c-2-8-6-13-9-13l-3-2c0-1 2-3 5-3 5 0 10 9 10 17 0 7-2 8-3 1zm-63-17c-2-3-2-10 1-10l2 4v5c0 2-2 3-3 1zm523 76 2-10c1-5 1-5-4-5l-9 4c-2 1-5 4-8 4s-4 1-4 3c0 5 4 7 7 4 4-4 9-4 9 0 0 5 4 5 7 0zm41-3-1-7c-2 0-3 9-2 12 1 4 3 1 3-5zm374 1c4-8 7-18 7-32 0-8 1-12 3-16 5-6 5-9 2-9-4 0-10 12-12 27-3 15-8 27-13 29-3 2 0 7 5 7 2 0 5-2 8-6zm-1588 1c0-2 2-7 5-11 5-7 5-8 3-11-2-2-3-2-5-1-3 3-8 18-7 22s4 5 4 1zm149-2c0-5-6-8-8-5l-1 6c2 5 8 4 9-1zm327 2-1-2-2 2 2 3 1-3zm864-7c0-1-1-1-3 2l-2 6c0 2 1 1 2-2l3-6zm-1268 0c0-5-7-24-9-24s-3 9-2 16c2 12 11 19 11 8zm438-5c-1-7 0-7 3-6 2 1 3 0 3-5 0-9-3-15-7-15-3 0-4 1-4 7 0 3-1 9-3 12l-3 7c9 10 13 10 11 0zm-413 2c2-1 3-3 2-3l-2-9c0-6 0-8 2-7 4 2 10 1 11-1l-3-3c-7-2-10-5-16-20l-7-17c-3-3-3 1 0 12l3 15c-1 2 0 8 2 14 4 10 5 12 1 10-3-2-8-16-10-27-1-14-6-30-9-30s-3 2 1 9c3 6 6 25 5 29-1 2-2 2-3 2-2 0-3 1-3 3l1 4 2-2 2-2c1 0 2 1 1 6-1 6 0 8 5 14 6 7 9 8 15 3zm1019 1c-5-2-6-2-5 0s2 3 4 2c3 0 3 0 1-2zm18-1c6-4 8-7 7-10-1-2-19 11-19 13s6 0 12-3zm333 1c9 0 10-1 7-6v-4c5-4-2-21-8-21-2 0-5-2-6-4-1-3-1-4 1-6l4-3 1-4c0-4-5-7-15-9l-9-2c-1-1-5 1-9 4-5 4-8 5-9 4-2-2-1-4 3-9 5-6 5-7 3-11-2-3-3-3-8 0l-7 4c-4 1-4-5 1-8 3-3 3-3 0-3-9 0-19 14-27 41-6 20-5 22 4 8l7-9c3 0 2 6-2 11-5 8-2 9 6 2 7-6 7-6 7 1-1 5 3 3 8-3 3-3 4-4 5-2v5c-3 3-4 9-2 9l5-4c5-6 10-3 6 3-2 3-2 4 0 5 3 3 7 3 13 0 7-4 8-1 4 5-4 7-2 9 4 7l13-1zm106 0c4 0 10-11 10-17 0-11 3-22 7-30 5-8 4-12-1-10-3 1-5 7-9 19-4 14-6 17-11 20-3 2-6 5-6 7 0 3 2 3 8-1 4-3 4-3 4 0l-4 8c-5 3-5 8-1 6l3-2zm-1085-2c2-1 2-4 1-11-1-8-1-9 2-9 2 0 4 1 5 3 5 9 6 0 1-11-5-12-3-14 9-9 5 2 5-1 0-13-3-8-5-10-8-10-5 0-4-4 2-9 7-5 7-8 0-9s-8-4-3-10c4-5 4-6 2-7s-3-3-3-5c0-1-1-2-3-1s-2 1 1 4c3 4 1 8-4 6-4-1-5 0-8 6-2 4-4 7-5 6s-3 0-4 2-3 4-6 5c-3 0-7 5-10 9l-5 7 4 6c5 6 5 12 0 12h-3l3 4 5 10c3 8 7 9 5 1-2-7-1-9 3-6 2 1 3 5 3 8 0 5 5 14 8 14l1 5c0 5 3 6 7 2zm77-4c-1-1-2 1-4 3-2 4-2 4 1 1l3-4zm134 2c2-4 0-5-2-1l-1 3 3-2zm271-2c-3-7-6-12-8-12s-2 4 2 10c5 7 8 8 6 2zm279 1-2-2c-1 0-1-1-1 1l1 2 2-1zm-90-3c2-2 2-16 1-16l-8 5c-7 8-8 13 0 13l7-2zm87-9-1-2v4c2 3 3 2 1-2zm-797-1-1-2-2 2 2 3 1-3zm538-14-9-3c-4 0-8-2-9-3-6-6-12-10-15-8-1 2-3 2-3 1-2-2 2-14 6-19s10-8 10-5l-3 3c-3 2-9 12-7 14 0 1 2 0 3-2 3-4 3-4 6-2l4 7c2 6 4 5 7-2 4-11 12-14 10-4-1 6 1 12 4 10l5-13c1-7 4-13 5-14 3-2 4 0 2 5-3 8-4 20-1 25 4 6 5 5 5-4 0-11 3-18 6-18 2 0 3 3 1 5-3 3-2 19 1 19 1 0 2-1 2-3l2-4c1-1 2-3 1-6-1-6 2-8 6-4 5 5 9 5 9-1 0-4 0-5 4-4 5 2 6-2 1-6-5-5-4-9 3-8 4 0 7-1 9-3s3-3 1-4h-4l-3-1c-3-1-3-9 0-16 2-6 1-11-2-11s-18 10-19 13h-9c-20-4-28-3-39 5l-13 9-10 11c-3 5-7 9-8 9l-4-12c-3-12-6-20-9-20-2 0-2 2 1 7a43 43 0 0 1 2 39c-2 4-1 10 4 14 3 2 5 3 6 1s4-3 7-3c4 0 5 1 5 5 0 3 1 4 4 4s5 1 5 2c0 2 2 2 4 1 4-1 5 0 6 5l2 6 5-7c3-5 4-8 3-10zm244 6c0-4-1-7-2-6l-1 9 1 7 2-10zm294 5-1-6c-2-3-6 6-4 10 1 3 4 1 5-4zm21 0c0-5-4-10-8-10-2 0-2 0 0 6 5 10 8 12 8 4zm-1104 1-1-2-2 2 1 2 2-2zm1091-6c-2-6-5-6-5-2s2 6 4 6 2-1 1-4zm-1543-3-1-2-2 4 2 2 1-4zm144 1c2-4 1-10-3-10-1 0-5 8-5 13 0 2 6 0 8-3zm13-2c0-6-6-14-8-11l2 9c2 9 7 10 6 2zm292 2c2-5 1-10 0-10-2 0-5 9-4 12s3 2 4-2zm669-3c4 1 4-4 0-8-3-2-8 4-8 11 0 5 0 5 2 0 1-3 4-4 6-3zm462 1 3-9c0-6 8-21 12-23 3-2 6-6 7-11 3-7 3-8 0-13-5-7-19-11-38-10-9 0-17 1-18 3s-3 1-4 0c-3-1-14 3-17 7l-15 12c-7 5-11 11-5 9 8-4 13-4 19-2 5 2 5 2 7-4 3-7 6-9 8-5 1 4 5 3 5 0l3-7c3-4 3-4 9 3l6 7c1 0 2 2 2 5-1 3 0 5 2 5 8 0 9 7 3 16-3 5-4 6-2 8 2 1 3 4 3 8 0 6 0 7 4 7 2 0 4-3 6-6zM164 210c5-2 6-2 9 1l6 3c3 0 2-1-1-4-3-4-3-6-2-14 0-5 2-11 3-13 4-6 14-15 24-21 10-5 14-9 14-14 0-4-8-2-13 3l-13 10c-9 5-20 20-18 26 1 3-2 14-4 14l-1-7c0-7-1-8-6-4-2 3-2 4-1 7 2 3 1 5-4 15-7 13-8 20-2 9 2-4 6-9 9-11zm198 15c3 0 5-1 5-2 0-2-13 0-14 3-2 1-1 2 1 1l8-2zm851 1h-3c-1 1-1 1 1 1s3 0 2-1zm-1370-3-1-3-4-11c-2-9-2-11 0-14l4-3 1-4c0-6 3-10 8-10 4 0 6-1 7-5 2-7 6-7 10 0 3 5 5 6 19 8l20 3c3 1 4 1 4-2 0-2-1-4-3-5l-8-5c-6-7-27-17-35-17l-18-4c-8-2-11-2-19 1l-15 5-8 4c-3 3-3 4-1 10l4 8c4 2 10 13 17 29 4 10 6 13 10 15 8 3 8 3 8 0zm457 0-3-5c-2-3-4-3-6-1-5 4-3 8 3 7l6-1zm462 0-2-2-2 2 3 2 1-2zm488-1c2-5-1-15-4-14-4 1-5 6-1 6s4 4 1 5c-2 1-2 3-2 4 2 3 3 3 6-1zm34 2c0-4-2-7-5-9-5-2-4-8 2-11 3-1 5-3 5-4 0-2-6-2-9 1-4 4-6 1-3-4 4-6 3-8-1-6-4 1-4 1-3-6 1-5 1-7-1-7-3 0-5 8-3 15 1 8-3 7-7-1-3-7-7-10-6-4v9c-2 7-1 13 2 13 2 0 2-2 1-5 0-4 0-5 2-4s3 3 3 6c1 2 3 6 6 8l10 7c4 3 7 4 7 2zm-1033-3 4-2-5-8c-6-10-9-10-8-1 2 14 2 15 9 11zm1160 1-2-2c-1 0-1-1-1 1l1 2 2-1zm-202-3c1-1 0-4-2-5l-3-9c0-5 0-6 5-7 3 0 6-2 6-3 0-3-6-8-12-8s-11 4-8 6c4 3 6 8 5 12-2 9-2 11 2 13 4 3 6 3 7 1zm-1356-4c5-3 5-4 4-5-5-5-14 0-12 6 2 3 2 3 8-1zm413-3 2-6c0-1-1-2-4-1-3 0-6-1-8-3-7-7-8-3-1 7 5 8 10 9 11 3zm-384 0c0-3-5-14-6-12-2 3-1 9 1 12 4 2 5 3 5 0zm51-2c3-2 3-2-1-5-8-4-14-2-9 4 3 3 5 3 10 1zm-68-5 3-4c2 0 9-11 7-14 0-2-1-2-2 0-3 4-5 3-6-2s-5-8-7-6l1 5c3 5 1 7-3 4-3-3-10-4-10-1 0 1 2 3 6 3 3 1 6 3 6 5 0 3-1 3-4 1-4-3-5-2-5 0l-5 2c-2 0-4 2-4 3 0 2 2 2 6 1 6-1 8 0 10 3 3 6 6 6 7 0zm458-10c4-5 9-6 11-3 1 4 4 1 3-4 0-1-2-3-4-3-4 0-13 6-13 9l-1 7c0 5 0 5 1 1l3-7zm-383-1c2-13 2-14-1-15s-4 0-3 4c0 6-2 6-9 2-3-2-6-2-7-1-2 1-3 2-1 7l3 5 5 1 7 3c3 4 5 2 6-6zm1480-12-2-23c0-10-3-16-7-18-3-2-75-3-100-1-5 0-4 5 1 5l5 2 3 2c2 0 9 4 18 11 4 3 7 3 18 1 12-2 22-1 31 3 7 3 17 13 18 17 1 6 11 20 14 20 1 0 2-4 1-19zm-1679-14c13-10 15-11 31-11 12 0 14-1 17-4 1-3 5-7 9-9s6-5 6-6c0-2-8-4-15-4h-30c-21 0-37 3-42 7l-1 17-1 22-1 13c1 5 1 5 9-7 5-7 11-14 18-18zm506 26c4-3 6-6 6-7-1-1 0-4 1-6v-9c0-4-2-5-9-5-8 0-10 2-6 7 2 2 2 4 1 5-2 3-2 19 0 19l7-4zm643-1c3-3 3-4 0-8s-3-5-1-9c1-4 1-5-1-8-3-4-9-8-12-8s-3 6 0 8c1 1 1 2-1 4-3 3-3 3 0 7 4 5 3 8-1 8s-4 4 0 7c5 3 12 3 16-1zm-95-2c0-5 3-5 7 0 1 2 3 3 3 1 0-5-8-8-10-5-3 3-3 7-1 7l1-3zm-525-1c0-2-1-3-2-3s-2 1-1 3l2 2 1-2zm-383-4-3-1c-2 0-3 1-3 2s1 2 3 1l3-2zm1303-5c-1-1-10 2-10 4 0 4 6 4 8 0 2-1 3-3 2-4zm-1295 5h-4l2 1 2-1zm1283-5c8-8 15-9 17-4 1 6 11 2 29-11a178 178 0 0 1 33-21 272 272 0 0 0-82-5c-25 1-37 3-37 6l3 2c7 1 7 1 8 6l5 6c5 1 8 6 5 10-1 3 0 4 3 7l6 7c3 4 2 4 10-3zm-1211-1 2-10c0-9 4-15 10-13 4 1 4 1 4-9v-10h-31a1034 1034 0 0 1-74 0l2 2c3 0 33 22 42 31 4 4 6 5 13 3 5 0 9 0 10 2l9 4c11 3 11 3 13 0zm1254-1c13-14 37-27 54-29 11-1 14-5 3-5-10 0-28 8-47 22-16 11-20 16-16 16l6-4zm-536-8 18-15c9-7 12-7 31-8 23-1 25-2 22-6a551 551 0 0 0-110-1l17 10c6 3 12 15 12 22s2 7 10-2zm-497-17c9-7 12-11 10-14-1-2-3 0-7 4l-11 10c-3 1-5 5-6 9-2 9 0 10 4 2l10-11zm710 13 1-8c-1-4-1-7 1-9s1-2-4-2c-8 0-10 5-5 15 3 7 4 7 7 4zm-656-10c0-7-3-11-5-9-4 2-4 7 0 10s5 3 5-1zm871-7c2-6 1-8-1-5-3 3-3 9-1 9l2-4z" style="fill:#000" transform="translate(297 -125)"/></svg>