<svg xmlns="http://www.w3.org/2000/svg" viewBox="0 0 738 2251"><path d="M291 2250c-5-1-6-3-3-6l1-8c0-12 8-39 15-52 6-10 7-13 4-27l-5-22c-15-72-16-74-25-97-7-18-11-39-14-62l-3-27c-2-16 0-48 4-73 2-12 2-12-6-4l-4 5v27l1 85c4 276 5 252-1 259-3 3-31 3-33 0-4-6-7-197-4-296 1-46 2-45-21-22a1818 1818 0 0 1-171 155l-5 3-8-1c-15-3-18-19-4-23 8-2 198-191 206-204v-151c-1-118-3-143-8-144-3-1-8-5-26-24-16-16-20-42-12-79l1-14 2-19c2-17 2-17-35-18-23-1-23 0-13-31l4-15 6-14 10-20c4-11 16-34 18-37 17-25 30-38 38-39l6-1-1-59-1-63-1-5-4 1c-10 0-13 2-19 20-2 6-6 15-10 21l-6 14c-1 3-3 5-11 13-6 5-10 10-10 11 0 2-15 12-23 17-26 13-23 12-26 10l-6-2c-7 0-34-34-40-51-7-20-7-40 0-49 2-4 2-6 3-17a305 305 0 0 1 11-67c2-5 3-7 2-11 0-3 0-5 2-7l2-3-3-1c-5-1-13-12-18-25-10-24 3-67 31-107a11910 11910 0 0 0 25-33l14-16c12-13 28-17 51-10l12 3 12 4c14 4 12 14 12-98-2-271-4-325-11-328-17-6-50 34-53 64a334 334 0 0 0 5 92c0 3 1 7 3 10 4 6 4 14-1 14-7 0-23-13-33-26a327 327 0 0 1-46-117 486 486 0 0 1 20-228c0-2 11-28 17-38 7-14 16-25 21-24 4 2 4 5-2 17-5 11-11 30-11 38l-2 8c-4 10-2 45 4 59 9 17 29 27 44 21 8-4 9-1 6 9-5 15 4 31 19 34 14 3 15 1 13-55-1-76 0-271 2-284 3-21 16-10 17 15l2 17c1 7 6 125 7 205 2 72 2 70 7 78 4 7 9 9 22 9 9 1 10 2 11 6s2 4 10 1c22-7 44 7 44 29 0 9-3 10-13 5-18-10-49 6-62 31-8 16-11 38-11 65a13082 13082 0 0 0 5 183c0 131 1 182 2 184 2 2 38-7 41-11l4-1c4 0 18-7 20-9 4-10 4-15-2-17-31-10-41-49-19-70 4-4 5-5 4-7l-1-6c-1-6-3-9-8-11-9-3-12-17-6-24 4-5 3-12-1-18-4-4-4-5-1-11 5-8 2-15-4-13-21 4-25-24-6-50 7-10 7-10 3-13-8-6-10-34-4-49 9-22 21-32 39-34 5 0 8-1 13-4 9-4 16-5 23-3l9 1c11-1 14 0 17 1 5 3 16 14 18 20 9 18 9 19 10 32l-1 17c-5 14-5 17 4 23 7 5 7 5 10 1l2-2 16 1c24 3 34 6 54 17 12 8 13 9 19 17 9 14 10 17 11 29v11l-3 6c-6 9-10 13-16 13s-15 4-16 8c-3 8-4 19-4 33l-2 18c-1 4 1 8 6 13 9 7 12 16 8 24l-3 8c-1 5-15 19-18 19s-5-3-3-5c3-5 3-7 1-6l-4 5-3 5-4 10c0 5-2 11-3 14-2 8-5 6 24 16a211 211 0 0 0 30 8c5 1 21-4 28-10 27-20 33-22 54-16 18 5 43 22 49 32l5 9c19 25 26 45 27 84 1 20 1 20 8 31l4 7 2 9 13 22a135 135 0 0 1 7 12l6 8c2 1 3 4 3 6l5 9 8 16 6 12 7 13 7 14c2 3 3 5 3 10l1 10c3 12-48 55-100 84-7 4-8 5-8 7 2 16 1 20-7 30-6 6-10 9-22 15-9 5-27 3-34-4-4-4-6-4-11-1-5 2-5 4-1 7a143 143 0 0 1 45 70l3 11 5 16 3 15c0 8 1 9 7 5 7-5 16-7 25-8 10 0 11-1 10-7-2-7 2-11 12-14l8-3c8-3 14 1 15 10l2 11c1 7 0 11-7 14-6 2-6 11-1 15 9 8 0 27-11 22-4-2-4-2-5 15 0 11-1 16-2 17l-4 8c-8 21-30 34-45 26-6-3-17-4-13-1 3 2 3 4-1 7l-6 7c0 2 3 1 5-2 6-9 14-9 12 1-2 9-20 15-24 9-4-5-7-3-7 5l-5 20c-1 4-16 20-18 20l-3 3c-1 3-5 8-14 15-14 12-17 17-17 28 0 6-4 25-8 40l-4 16-2 8-4 10a286 286 0 0 1-22 52l-6 11-7 13-2 27-1 29-7 27c0 3-2 8-8 21l-3 6 1 8a797 797 0 0 1-20 182c-1 9-1 82 1 92 2 12-1 9 35 42 27 24 37 29 62 31 32 3 28 2 35 8 25 25 19 33-26 32a4546 4546 0 0 0-172 0h-74zm-49-8c1-1 2-45 1-73v-160l-2-89a3068 3068 0 0 0-3-148 17366 17366 0 0 0-8-336c-3-4-3-4 1-6 3-4 4-11 1-15-4-3-4-4-1-8 3-3 3-9-1-13l-2-4 2-3c4-4 4-7 0-11l-2-3 2-3c4-4 4-5 1-10-2-3-2-3 0-6 1-4 1-6-2-10v-4c3-3 4-8 1-10-4-3-4-4-1-7s4-5 1-9v-7c3-4 2-7 0-11-3-4-3-6 0-9 2-3 3-6 0-11v-7c2-5 2-10-1-13-3-2-3-4 0-6 3-3 3-7 0-9-4-3-4-4 0-8 2-4 3-7 0-11v-6c1-3 1-5-1-9v-5c2-3 2-4 0-8s-2-4 0-7c3-5 2-5 0-9-4-3-4-5-1-8s3-8 0-10c-4-3-4-3 0-7 2-4 3-6 0-12v-7c3-4 2-8 0-11s-2-3-1-7c2-4 2-7 0-11-2-3-2-4 0-7l2-3-2-4c-2-3-2-4 0-5 2-2 3-5 1-10v-6c2-2 2-6 0-8v-10c-1-2-4 0-5 3l-2 5-2 98a36713 36713 0 0 0 11 825c-1 163 0 240 4 255 0 4 6 6 9 4zm100-4 9-2 11-3c12-4 24-6 38-7 12 0 15-1 11-3-6-2-16-2-20-1l-7 2-9 1a900 900 0 0 1-47 15l14-2zm163-2c8-4-6-7-16-3-5 1-7 1-7-1 0-4 3-5 15-5l12-1 2 5c3 4 5 6 10 5l17-3c15-1 16-1 16-4 0-4-8-8-18-8l-19-3c-12-2-13-2-15 0l-14 5-16 6c-6 4-8 0-3-4 3-3 18-7 23-7s7-3 3-4c-6-3-16-1-28 5l-7 2c-3-2 3-6 13-10s10-4 4-10l-21-19c-20-20-21-20-25-12l-4 6c-2 3-3 6 0 7 2 2-1 4-7 4-8 1-12 4-12 6 1 2 4 2 10 0 6-3 13-4 15-2 1 2-2 4-6 4-3 0-9 4-9 6l6 1c11-1 17-1 17 1 0 1-1 2-8 4-4 1-3 4 1 3 8 0 13 3 6 5-4 1-4 6 0 8l4 3c0 5 13 10 27 11 6 1 33 0 34-1zm-172-5c9-1 10-2 16-7 6-4 13-8 21-9s8-1 2 2c-7 5-6 5 16 2 21-3 32-1 27 4-1 2 3 5 13 9l1-3c0-2-1-3-4-3-4 0-5-2-2-5 1-2-1-5-5-5-2 0-12-10-18-19-5-7-7-10-10-11l-5-4-12-18-2-3-3 2c-3 2-6 5-8 9-10 15-19 22-29 22l-8 1-7 3c-4 1-10 5-10 6h5l12-3c7 0 4 4-3 6-7 1-20 9-16 9l8-2c8-3 17-4 17-2s-2 3-10 5l-7 3-7 2c-9 4-5 6 5 4 7-3 16-3 16-2 2 2 0 3-7 5-4 0-8 2-9 3l-3 2 10-1 16-2zm9-9c0-7 35-25 39-20 1 1-1 3-3 3-4 0-28 12-31 16-2 2-5 2-5 1zm-1-11c-6-5 18-19 33-19 5 0 4 3-1 4-13 3-25 9-28 13-2 3-3 4-4 2zm-19-20c0-2-2-4-4-4s-4 3-3 4h7zm21-21c14-21 23-28 29-21 5 5 4-5 0-32a618 618 0 0 1-5-71 314 314 0 0 1 7-94 138 138 0 0 0 0-57l-7-45v-21l3-11 3-15c3-11 4-24 1-31-2-7-3-8 0-15 5-13 8-37 9-78 1-19 8-61 11-68 2-4 6-23 6-30 0-8 0-9-8-11l-11-3c-13-4-19-5-48-5-44 0-59 3-76 14-1 2-4 3-5 3-3 0-3 0-1 12a674 674 0 0 1 7 50l4 14a570 570 0 0 0 13 54c6 16 8 28 11 74 2 34 2 39 0 46-5 17-14 57-16 72a296 296 0 0 0 16 123l4 13a1521 1521 0 0 1 29 132v7l6 4c8 6 8 6 18-10zm-21-333c-1-2 3-5 7-5 4-1 4 3-1 5h-6zm-8-13c0-3 1-4 8-8 8-5 12-4 7 2-4 6-13 9-15 6zm0-13c-2-1-1-4 2-7 3-4 3-4 2-12 0-9 2-14 6-14 3 1 3 3 2 11-1 4-1 4 1 4 4 0 4 2 2 6l-1 6c-1 4-11 9-14 6zm91 363 15-11 3-4-2-18c-5-48-4-78 5-132a3053 3053 0 0 0 8-52c6-28 6-38 6-74-1-40-1-43 6-50l4-6 3-14c5-20 6-28 5-43-1-20 1-26 17-62l12-26c15-33 24-69 27-97v-9l-4-3c-11-9-58-9-76 0l-5 2c-19 10-18 7-25 49l-2 10c-5 18-8 44-10 79l-2 25c-3 8-4 21-4 28a116 116 0 0 1-1 44l-5 20c-3 14-3 15-2 22a367 367 0 0 1 6 37l2 13c3 12 0 53-4 68-3 8-4 20-5 45a766 766 0 0 0 16 154c5 9 6 10 8 7l4-2zm2-337c-4-4-4-12 0-13 1 0 3 1 4 4l4 5c3 2 2 3 0 5-3 3-5 3-8-1zm-1-20c0-4 6-6 9-3 1 1 1 2-1 3-3 3-8 3-8 0zm-1-8v-7c3-3 11-2 12 1 0 3-10 8-12 6zm-1-15c-1-3 2-5 7-5s7 1 7 4-13 3-14 1zM19 2076a624 624 0 0 0 79-64l26-23a2599 2599 0 0 1 72-69c22-21 21-19 21-34-1-14 0-15-23 9a15795 15795 0 0 1-183 183c1 2 3 1 8-2zm245-223 9-13 4-14c3-11 3-17 0-18-1 0-16 16-16 18l-4 6-4 4 1 12c1 16 0 16 10 5zm1-46c12-15 11-15 11-25l-2-24c-1-22-2-26-12-55a755 755 0 0 1-11-31 1022 1022 0 0 0 2 127c0 23 0 23 12 8zm123-253 1-6 4-11c2-9 4-11 7-10 1 0 1 2-1 12 0 4 1 5 3 1 1-3 5-10 7-10 3-2 4 2 2 6s-2 4 0 4c5 0 17-30 21-54 2-17 12-59 15-66 1-2-37-2-39-1-1 2-4 20-4 27l-1 9-3 14a321 321 0 0 1-13 54c-3 5-3 6-4 16l-2 12c0 2 3 6 5 6s2-1 2-3zm61 1c10-2 31-21 37-32 5-10 9-31 14-74l2-18c1-5 0-8-2-6l-16 1c-21 2-21 2-24 64 0 13-1 20-2 25a220 220 0 0 0-6 23c-2 3 0 3 5-1 7-5 13-7 13-5l-3 3-8 7-11 8c-8 6-8 7 1 5zm79-18c23-23 24-24 26-38 1-12 4-28 8-46 6-26 7-39 2-40-5 0-16 4-17 7l-2 6-5 18a3788 3788 0 0 1-23 89l13-10c6-5 10-7 10-5l-14 16c-14 14-17 17-17 20 0 2 2 1 19-17zm-246 13-2-4c-3-5-7-14-9-25l-4-16c-2-6-1-32 2-62 4-44 4-43-12-44-14-1-13-7-11 50 2 82 2 88 4 89 1 2 3 0 3-2 0-4 3-5 4-2 2 3 8 9 9 8l-3-6c-3-6-4-9-1-9 2 0 4 3 9 11 8 14 11 17 11 12zm90-1-2-5v5c1 2 2 1 2 0zm-24-26c0-17 1-24 2-27 4-9 8-39 10-67 1-16 1-17-5-17l-6-1-23-4c-6 0-6-1-8 30l-2 38c-4 28 2 69 9 72 3 1 3 0 0-12-2-11-2-12-1-15 2-4 6-4 6 1 4 25 7 31 6 12l1-13c3-2 3-1 5 13 1 12 2 16 4 14l2-24zm-136 21c0-3-2-10-4-13-5-6-11-34-11-50s4-56 7-66c4-14 3-16-6-15-6 1-8 3-10 12a2277 2277 0 0 1-8 56v32c2 15 11 31 21 39l6 5c3 3 4 3 5 0zm217-4c7-6 11-15 13-27l4-18c2-9 5-42 4-43-1-2-4 9-4 17a257 257 0 0 1-3 30c-1 8-2 12-6 18l-4 8-6 11c-7 11-7 12 2 4zm-59-10c0-5 0-5-2-7-3-1-3-1-3-7l4-29 3-28 2-29c2-14 1-22-1-13l-3 22-4 44c-1 17-3 27-8 38-1 5-2 12 0 12l2-2c2-5 5-5 6 0 2 7 2 8 3 6l1-7zm192-1c6-7 8-11 7-13-1-1-3 2-8 11l-5 8-2 2c0 2 1 0 8-8zm-256-2a179 179 0 0 1-2-45l2-37c2-28 1-41-2-38-3 2-3 6-3 33v29c-1 42 0 53 4 63 2 4 3 3 1-5zm-18-3c-4-16-5-19-4-35a891 891 0 0 0 2-83c-2-3-3 2-4 19l-2 55c-1 14-1 17 2 35 1 7 6 20 8 19l-2-10zm218-23a201 201 0 0 0 6-36 299 299 0 0 0 6-40c-2-2-4 2-5 10a1087 1087 0 0 1-7 36l-3 20c-3 25-2 32 3 10zm-213 6a1260 1260 0 0 0 2-103c-3 0-3 1-2 19v17c-1 4-4 43-4 60 0 15 3 19 4 7zm225-17c4-15 7-37 5-39-1-1-3 4-4 11a240 240 0 0 1-4 29c-2 14 0 13 3-1zm70 0c2-3 1-6-2-7-2 0-5 4-4 7 0 3 4 3 6 0zm-198-22c2-8 5-29 5-42 1-15-2-12-4 4l-3 15c-1 3-2 25-1 30 0 3 2-1 3-7zm248 5c5-3 16-18 18-26 2-7 2-13 1-13l-8 17c0 2-3 6-10 13-12 11-12 15-1 9zm-20-9c6-6 4-8-6-6-6 1-7 1-7 3 0 6 9 7 13 3zm-237-12a330 330 0 0 1 5-34c0-3-3-2-3 0a156 156 0 0 0-4 42v3l1-3 1-8zm258-3 7-12c11-25 12-28 16-30 2-1 4-1 7 1 6 2 8 2 9-1 1-7-8-9-17-4-3 1-13 15-13 18l-3 7c-6 13-7 15-11 15-2 0-2 1-3 9-2 8 1 7 8-3zm-43 1c7-5 14-14 16-19 6-16 32-48 39-48 2 0 4-2 2-3-6-6-43 23-53 44-16 33-17 35-4 26zm29-1c0-1-1-2-3-2l-4-1h-3c-4 3-2 4 4 4l6-1zm-36-25c6-20 6-20 0-18s-6 4-8 19c-3 23 0 22 8-1zm38 14c2-1 3-4 1-4s-4 2-4 3l3 1zm-100-6c0-3-1-5-2-3v6l2-3zm113-13 2-3 4-7c11-15 11-22 0-10-9 10-15 28-6 20zm-156-9a339 339 0 0 0 56-11l14-3 13-4c26-5 36-9 36-14l-4-14c-1-1-8 0-28 6a381 381 0 0 1-41 9l-36 6h-5l1-30c1-63-13-133-26-131h-8c-5 0-5 2-3 14a703 703 0 0 1 14 109l-2 36c-2 11-1 25 1 27 1 2 2 2 18 0zm-51-8c8-8-3-56-23-111-6-17-9-28-11-54-1-10-2-11-10-11-7 0-9 2-10 8-2 15 2 36 18 87l4 16 3 12 2 12 2 9c6 11-8 14-36 7-5-2-12-3-16-3l-16-2-83-9c-12-1-12-1-12 12v8l8-1a442 442 0 0 1 81 9 941 941 0 0 0 93 12l6-1zm-292-10c7-4 42-11 52-11 14 0 13 0 14-9 2-11-4-13-25-9l-12 1-15 3-12 3c-4 0-6 1-6 3l-4 10c-5 11-2 15 8 9zm374-18a362 362 0 0 0 57-13c25-7 26-8 17-29-10-23-11-23-23-20a351 351 0 0 1-62 11c-8 0-7 0-8 26 0 24 0 25 3 27l16-2zm-9-6c-3-2-2-4 2-4l26-6c12-3 17-3 17-2 3 4-40 15-45 12zm2-14c-3-1 0-3 5-4l34-6c12-3 17-1 8 3-8 4-44 9-47 7zm4-13c-2-1 2-3 10-4l28-4c6-2 7-2 8-1 4 4-9 7-30 9-14 2-16 2-16 0zm1-8c-3-2-1-3 6-4 13-1 21-3 28-5s11-2 11 0c0 3-39 11-45 9zm-115 39c2-2 2-1 1-13-2-10-7-32-9-35s-2-3-27-3a357 357 0 0 1-59-6l-56-6c-4 0-5 13-3 35 1 11 0 11 26 13l34 3c26 4 49 6 41 3a241 241 0 0 0-44-9l-10-1c-5-1-8-3-7-5a481 481 0 0 0 45 6c13 4 23 6 37 7 8 1 11 2 11 4s-3 2-7 2h-4c-1 2 0 2 8 4 15 3 21 3 23 1zm-56-23a3106 3106 0 0 1-53-13c-2-3 0-3 8-1 19 5 44 9 61 11 9 1 11 2 11 4 0 3-8 3-27-1zm-2-11c-11-2-43-12-46-15s0-4 5-2c17 7 45 13 57 12 4 0 6 3 2 5h-18zm330 31c0-3 0-4 3-7 5-6 1-9-7-5-4 3-5 6-1 12 4 5 6 5 5 0zm-217-23a308 308 0 0 0-6-40c0-5-7-34-10-42l-6-29c0-9-7-12-10-6-2 4 1 23 5 39a503 503 0 0 1 7 25 380 380 0 0 1 19 67l1-14zm-300 14 9-2 8-1 19-3c19-1 17 2 17-25 1-28 2-26-11-24l-13 2c-7 1-14 4-14 6h11c4-1 4-1 4 1 0 1-2 2-5 2-9 0-19 7-15 9h9c8-1 10 0 10 2l-4 1c-6 0-18 4-20 6-4 4-1 5 8 3 12-2 14-2 14 0s-3 3-7 3c-6 0-21 5-23 8-4 4-3 5 4 3a116 116 0 0 1 20-3c2-1 3-1 3 1l-4 2-10 2-12 5c-10 3-7 5 2 2zm367-46 47-12c5-2 0-10-5-8s-39 10-48 11c-17 2-17 3-18 6 0 4 6 5 24 3zm-155-3 10-1c7 0 8-1 8-4s-1-3-3-3c-14 2-35 0-53-3-18-4-29-6-52-7-31-3-30-3-31 0 0 6 1 7 22 8 19 1 24 2 38 5a315 315 0 0 0 45 7l16-2zm-177-16h11c5 1 7 1 7-1 2-3-2-5-9-4-18 1-20 2-20 5l3 1 8-1zm332-13c25-5 30-7 27-11-2-3-6-4-8-2-3 2-14 4-30 6-16 3-18 4-14 8 3 3 8 3 25-1zm-145-3v-4l-1-3-16-1a210 210 0 0 1-46-6l-15-2c-12-3-18-3-36-4h-17v4c0 5 0 6 14 5a140 140 0 0 1 33 3l19 4c17 5 61 7 65 4zm-171-9c2-2 2-5 1-7-3-2-10 3-9 7 1 2 6 2 8 0zm308-4c11-1 20-3 21-5l-16-17-15-16-4 2-8 2c-5 0-7 2-5 5 1 3 5 4 10 2 6-1 8-1 8 1s-3 3-8 4c-7 1-8 1-8 3 0 4 4 5 10 4h13c0 2-4 4-12 4l-8 1 1 4c0 7 1 9 6 8l15-2zm-15-1c-3-2-2-3 5-4l11-2c6-1 10 0 5 2-11 5-19 6-21 4zm-133-4 5-1c5 0 2-3-5-5-4-2-4-5 1-5s7-2 5-5c-2-2-3-3-10-3-8 0-10-1-7-4l7-1c6 2 10 1 10-3-1-2-1-2-12-2-13-1-17-3-9-6 5-2 1-2-14-3-16 0-16 0-15 3 1 5-5 6-16 2-6-2-7-4-6-10s0-7-6-7c-5 0-5 1-7 4-3 5-8 8-13 10l-7 4-9 3c-9 3-9 3-10 6l-1 4c0 1 1 2 6 3 6 0 8 1 9 2 2 3 7 4 15 4l13 2a491 491 0 0 0 76 8zm-49-7c-7-2-20-8-20-9 0-3 5-2 17 2 4 2 10 3 16 3 9 1 12 2 9 5-2 2-14 2-22-1zm2-12-11-3c-4-1-9-4-9-7 0-2 1-2 14 2l16 4c8 1 10 6 1 6l-11-2zm277 9c4-1 12-5 20-11s9-19 2-27l-2-4-4-7c-3-5-5-9-8-20-4-17-8-25-13-29-18-14-47-18-52-8-1 3 0 12 1 13 2 2 7 2 11 0 21-9 50 39 40 65l-2 6c0 2-2 4-4 5-13 10-13 14-1 17 6 2 6 2 12 0zm-32-18c22-12 25-21 16-40-12-25-16-27-34-24l-14-2c-12-2-17-2-15 1 3 3 2 4 0 5-1 0-2 1-2 3l-3 7c-2 5-3 7-1 10 2 2 2 5 2 10 0 9 1 11 5 14 4 2 6 5 6 7h-4l-4 1 6 4c5 5 6 6 23 10 7 1 6 2 19-6zm-69-6c10-1 10-4 2-8s-17 0-14 6c2 4 3 4 12 2zm-392-5 10-6 7-5c17-6 39-33 51-63l5-10c3-5 3-8 0-9-2-1-10-10-14-17l-10-7-15-13c-9-10-10-10-15-3-11 13-20 20-24 20-6 0-8 2-6 4 2 4 1 20-1 22-5 4-7-1-7-13 0-9 0-10-6-6-4 4-5 5-2 6s3 5 1 11c-5 11-6 23-4 32 2 6 0 9-3 9s-6-3-6-6l-2-5c-2-5 0-28 4-34 1-2-1-4-2-3-11 4-9 49 2 64l5 8c3 6 7 11 16 20 5 6 7 6 16 4zm167-4c8-4 8-6 3-6-4-1-5 0-9 4-8 8-6 9 6 2zm-17-4 6-7 4-3 4-3-2-8c-5-23-17-54-20-52l1 78c0 2 2 1 7-5zm190 1h-10a17934 17934 0 0 1 10 0zm-58 0c4-1-8-4-16-3l-9-1h-5c-2 2 0 2 6 3a3630 3630 0 0 1 24 1zm83-2 2-2c0-1-4-1-7 1-2 2 2 2 5 1zm-116-2-1-1h-13 5l5 2h2l2-1zm60-8c12-11 16-27 11-37l-6-14c-4-8-5-7-11 3-16 30-16 30-14 36 4 13 13 18 20 12zm-7-17c-4-5 0-16 5-16 4 0 7 4 7 9-1 7-8 11-12 7zm33 18c1-2-5-17-7-17l-3 3-5 7c-5 7-4 8 7 8l8-1zm-48-2-2-4-1-3-2 2c-2 3-3 5 0 6 2 2 4 1 5-1zm-73 0v-32l-2-20a668 668 0 0 0-70-244c-3-5-4-2-4 11v12l3 3 9 7c6 5 7 8 4 20l-1 8c2 2 3 32 2 36-4 13-8 24-15 31-3 4-3 9 1 12 2 2 2 2 1 9-3 11-1 11 4 2l11-17c2 0 0 3-4 11-4 6-10 24-10 28 0 3 3 1 6-4 5-9 13-21 15-21s1 1-2 5l-4 6-5 10c-4 9-11 28-10 30 1 3 2 1 10-14 8-14 13-21 16-21 2 0 1 2-3 9-9 13-18 40-15 45 1 2 1 1 4-6 8-16 17-29 19-27 1 1 0 4-7 18-10 20-11 37-1 20 6-11 10-16 12-15 1 1 1 2-1 4l-4 9-3 7c-2 3-6 14-6 18-1 5 2 3 7-5 6-9 9-12 11-12s1 3-6 15c-9 16-11 27-3 15 5-7 8-10 10-10 3 0 3 2 0 6-4 5-13 24-11 26 0 1 2 0 4-3 5-7 11-13 12-12 3 1 2 4-1 7l-3 5-3 4c-5 8-2 10 4 3 5-5 9-6 11-3v3c-7 4-8 7-3 7 2 0 3-1 4-4 2-5 7-3 6 2 0 5 10 10 11 6zm57 0 8-15c1-2-12-31-15-33-2-2-4 3-4 10v8h4c10 1 10 19 0 19-5 0-6 5-2 10 1 2 7 2 9 1zm78-2 5-10 6-10c4-6 4-12 0-24-6-17-7-17-14-3l-6 10c-9 13-9 15-2 31 4 10 7 11 11 6zm-6-19c-3-3-2-8 2-12 5-4 11-1 10 6s-7 10-12 6zm-93 18c2-1 2-3 2-6-1-5-2-6-4-2-3 4-5 4-8 0-4-4-5-3-4 3s1 6 6 6a2856 2856 0 0 1 8-1zm286-6c11-5 43-26 46-29 1-1 1-2-1-6-3-6-3-7 3-10 7-4 6-5-2-8-8-2-11-3-11-6 0-2 2-3 5-2 20 11 45 0 45-20v-9l-6-13a261 261 0 0 0-19-34l-10-18c-16-26-22-33-24-28 0 3-9 14-21 25l-13 16-10 12c-6 6-6 6-3 11l3 10c2 7 4 9 10 12 6 2 6 2 14-3 18-12 39-11 48 2 6 7 3 9-8 3-13-7-23-5-40 6-14 10-13 11 2 12 18 1 21 6 4 6-12 0-17 1-20 4-2 2-4 2-8 2-5-1-17 7-21 14l-2 3 3 4c3 3 10 22 10 26 0 6 4 18 7 21l4 3 5-2c3-1 8-2 10-4zm56-73c-12-3-27-11-27-14s5-5 10-3a5782 5782 0 0 1 29 9c15 2 12 9-4 9l-8-1zm-67-40c-7-2-4-6 6-7 21-4 42-3 42 2 0 2 0 2-15 2-14 0-17 1-20 2-4 3-8 3-13 1zm-154 117v-5c-1-3-1-4 2-7 4-5 5-9 1-7-5 3-10 20-6 20l3-1zm-142-3a532 532 0 0 0-19-165 327 327 0 0 0-19-59l-10-25-5-12-4-8-9-14c-11-21-22-37-24-36s-1 4 2 8l7 11 6 12a334 334 0 0 1 35 81l3 9 4 10 4 14 3 11c1 2 3 7 3 11l3 11c2 3 5 20 7 36l2 17 4 59c2 26 2 31 5 31l2-2zm18-11c4-6 0-23-4-21-5 1-7 10-4 17 4 9 5 9 8 4zm-7-9 2-5c2 0 4 3 4 5-1 2-5 2-6 0zm47-2 10-19c9-17 9-16 4-26-11-22-13-23-18-14a98 98 0 0 1-7 12l-5 8c-5 10-5 11 3 28 9 17 10 18 13 11zm-6-26c-5-5-1-17 5-16 4 0 7 6 7 10-1 7-8 10-12 6zm54 14c16-23 16-26 11-39-10-25-12-25-30 10l-3 7 3 7 6 12c6 14 6 14 13 3zm-8-15c-3-3-3-13 0-15 6-6 12 0 10 8s-7 11-10 7zm54 11c2-2 2-2 0-5s-3-3-4 2c-2 6 0 8 4 3zm-128-2c1-4 1-7-1-7-1 0-4 4-4 6 0 7 3 7 5 1zm-15 2c1-3 0-6-2-6s-2 1-1 4c0 4 3 5 3 2zm188-7c8-16 29-24 42-16l8 1c6 0 6 0 23-10 7-3 17-19 15-23-2-5-12-18-17-23l-7-9-1-4h-14l-4-5-5-4h-13c-14 1-15 1-23-6-5-3-8-4-8-3l-1 7-2 16a303 303 0 0 1-16 70c-4 14-4 14 4 15 14 2 15 2 19-6zm-59-1 1-7c-2-4-1-7 1-10 3-5 5-18 3-18s-14 19-14 22c0 5 6 20 8 19l1-6zm-120-5c5-5 0-24-6-24-2 0-6 8-6 11v3l2-2c3-3 6-3 7 0 0 3-1 5-5 5-3 0-3 2 1 7 2 5 3 5 7 0zm149-13c1-7 0-9-3-5-1 1-2 3-2 7 0 8 2 7 5-2zm-131 5 2-6 7-11 7-12c4-6 4-8-5-22-11-18-10-18-17-4-6 11-5 21 0 14 4-4 6-4 9-1 8 8 2 24-6 19-4-3-4-2-4 10 0 11 1 14 5 14l2-1zm117-5-1-2c-1 0-2 3-1 4 0 2 2 1 2-2zm-70-5 11-16c9-15 9-15 4-24-11-20-15-23-18-17l-14 25c-4 6-4 6 1 14l8 14c4 8 5 8 8 4zm-6-23c-4-3-4-5-1-10 5-7 14-4 13 4-1 9-8 12-12 6zm52 21 7-12c9-14 9-14 1-35-5-11-6-13-8-13-1 0-8 10-8 12l-3 5c-9 13-9 16-4 23l8 16c0 6 4 8 7 4zm-6-20c-4-4 2-16 7-14 3 1 4 11 2 14-2 2-7 2-9 0zm40 14c4-6 5-10 3-14l-2-5c-1-3-4-3-6-1-3 4-2 4 1 4 4 0 5 2 4 6-1 2-1 3-5 2-5 0-5 2-2 12 1 3 3 1 7-4zm-157 0c0-3-3-8-4-7v5c1 6 3 7 4 2zm-137 1c5-1 5-2 6-19 0-16 0-18-6-15-4 2-8 2-10 0l-8-4c-22-7-33-31-24-55 5-11-13-10-19 2l-4 8c-4 7-2 32 4 42 3 7 11 15 21 20 5 3 10 7 13 11 6 6 12 9 18 10a1359 1359 0 0 1 9 0zm152-7c0-11-4-16-7-11-2 4-1 8 1 12 5 10 7 10 6-1zm-271-8 10-4c5-2 7-3 13-10l10-11c9-6 14-32 8-38-2-2-19-1-28 2-15 5-18 10-23 29l-3 15-3 29c0 1 2 0 6-4l10-8zm261-8c5-7 5-8-2-14-5-6-6-5-9 1s-2 8 2 4c3-3 4-3 6-1 3 3 2 7-2 9s-5 2-3 5c3 4 4 3 8-4zm163 1c3-13 2-18-3-13-3 4-4 8-2 13 2 4 4 4 5 0zm-108-14 9-16c6-9 6-9 2-15-5-7-5-8-11-7l-10-1c-6-2-7-1-14 13l-2 5 3 7 7 10 3 6c0 2 5 8 7 7 1 0 4-4 6-9zm-13-14c-3-4-3-10 0-14 5-6 14-1 13 7s-9 12-13 7zm56 16c4-5 16-25 16-28s-11-20-13-20c-16 0-27 19-18 33 11 18 12 19 15 15zm-7-20c-4-6-2-15 5-15s10 12 4 16c-3 3-5 3-9-1zm46 10c1-6 1-7-2-10-4-5-4-8 3-14 3-3 3-4 3-9 0-10-2-11-6-2l-7 10c-6 6-7 8-1 20 8 18 9 18 10 5zm21 3 4-4-2-8c-3-8-4-8-9-1-7 10-1 21 7 13zm-6-6c-1-4 1-6 4-6 2 0 3 1 3 2 1 6-5 9-7 4zm-134 0c4-9 4-9-4-20-9-14-10-14-8-4l2 7c0 2 1 2 3 3 6 0 8 9 2 12l-2 4c0 7 3 6 7-2zm-15 4c1-1-1-13-2-14s-5 5-5 8 6 8 7 6zm-147-6c2-2 1-2-4-2s-6 1-2 3c3 1 4 1 6-1zm-11-5c-1-2 2-5 4-5 4 0 11-4 12-7l3-6 1-5c-1-6 3-9 16-10s19-4 16-8l-2-4c0-5-1-5-13-3-13 1-15 0-15-3s2-4 8-4l9-2 8-2c4-1 5-2 6-8 2-6-1-7-11-6-19 2-25 1-25-1 0-3 4-4 24-5 13-1 13-1 13-7 1-11-8-14-24-9-18 6-34 5-31-2 0-2 6-4 10-3l22-4c9-4 14-3 20 1 9 7 10 2 1-6-3-2-6-7-7-9-5-10-12-14-17-10l-7 3-14 8-14 9c-7 4-9 6-9 13v7h3c4 0 4 3 3 15l-1 6 4 4 3 4v9c0 13-1 13-4 3-4-13-9-9-9 6 0 6 0 9-2 11-5 6-4 13 3 21 7 7 17 14 16 9zm150-6c4-8 3-11-4-16-8-8-13 7-6 18 5 7 7 7 10-2zm-8-1v-6c2-2 6-2 6 0 2 4-2 7-6 6zm182-5c2-14 0-18-6-11-3 4-2 9 2 18 2 5 3 3 4-7zm-139-5c6-9 6-9 3-17l-3-6-1 5c-2 5-2 6-5 6-9 0-13-13-6-18 2-2 3-3 2-4l-1-6c-2-6-3-4-12 12-5 8-3 11 14 32 4 6 4 6 9-4zm242 1c21-15 46-44 46-51-1-5-2-4-8 7a287 287 0 0 1-49 52l11-8zm-120 4-1-4c-1-1-3 3-3 5 1 2 3 1 4-1zm-78-3c2-2 1-5-1-5l-4-2c-4-4-6 0-1 6 3 3 4 3 6 1zm171 0c18-9 36-24 48-40 5-6 2-5-5 3-7 6-19 17-21 17l6-8c7-8 8-10 1-4-9 6-15 6-7 0 10-9 21-25 24-36 2-5 4-8 6-7 2 2-5 20-11 28-6 9-5 9 4 0 8-7 10-9 10-6 0 4 3-1 5-8 3-9 3-16 2-43-2-38-5-45-10-25a184 184 0 0 1-38 74c-7 9-10 12-26 24-12 8-13 10-7 9s3 2-6 6c-16 9-24 16-8 9 12-6 19-8 20-8 2 1-1 4-6 6l-4 3c0 2 4 1 13-4l11-6c1 1-1 4-3 4-1 0-7 4-8 7-3 4 4 8 10 5zm18-42 10-17 15-30c1-5 4-7 5-6s0 4-3 14l-11 20-4 7-11 12h-1zm-138 35 10-16c8-10 7-12-4-31-7-11-9-11-15 2l-5 9c-2 3-3 6-3 10l-1 10c-2 5 0 8 7 19 4 6 5 6 11-3zm-9-17c-4-3-3-16 3-17 9-4 12 13 3 17-4 2-3 2-6 0zm45 10c5-7 5-8 1-15s-6-7-9 1l-3 6 2 7c3 8 4 8 9 1zm-7-5c-1-2 2-7 5-7 2 0 2 2 2 6-1 3-6 4-7 1zm-172 3c0-3-4-6-6-4-1 1-1 5 2 8 2 3 4 1 4-4zm76 4c4-2 10-3 18-3 15 0 24-10 20-19-2-5-1-9 2-13 8-11 0-32-10-27-6 3-8-2-4-11 2-4 1-5-5-6-5 0-6 2-2 4l2 6c0 3-2 3-5 0-5-5-17-4-24 2-4 3-6 3-6 1l9-9c3-1 2-3-2-3-3 0-4 1-12 10-8 8-9 5-2-6 3-3 0-5-8-5v5l1 3c-2 4-13-1-13-6 0-4-8-11-10-9-3 3-2 6 4 13l9 13c5 7 4 6 10 2s10-5 10-1c0 1 0 2-3 3-14 3-18 26-5 30l4 2 1 7c1 7 1 8 4 11l4 4c0 3 9 4 13 2zm-10-18c-3-3-3-4-3-8s0-5-2-7c-4-5-1-16 5-16 3 0 3 3 0 6-3 2-3 4 2 8l3 3-1 3c-4 7 3 13 9 7l5-2c5 0 8-3 9-8l3-6c4-6 0-12-7-10-3 1-3 1-6-2-4-4-6-5-10-3s-4 2-4-1c0-6 10-8 16-3 2 3 3 3 7 3 7-1 9 1 10 17 1 18-2 23-13 22h-14c-6 0-6 0-9-3zm11-13c-3-2-3-8 0-10 4-4 11-1 11 5s-6 8-11 5zm-64 24c-1-7-2-9-4-6-1 2-1 7 1 10 2 4 3 3 3-4zm-251 3c7-4 22-5 32-3 9 2 11 1 11-2 0-2-1-2-10-4-13-2-33 2-40 8-4 4 0 4 7 1zm464-12c3-3 8-5 10-6 6-2 18-13 27-23 17-17 23-27 31-49l10-30 5-17 2-8-3-5c-5-11-9-6-13 16-6 32-8 39-22 57-22 30-52 59-64 61-7 1-8 6-2 9 4 3 9 1 19-5zm-469 1c14-7 31-9 48-5l7 1 4-3c6-4 5-6-6-7-13-3-15-3-23-2-9 2-13 1-13-2 0-6 32-5 47 2 10 5 20 4 18-3v-17a1145 1145 0 0 0 1-24c3-4 2-5 0-8l-4-7c-3-7-17-19-27-22-11-5-26-8-31-7l-13 1c-14 0-21 8-22 22l-1 5c-3 1-8 22-8 36 0 9 3 21 10 31l4 10c0 3 1 3 9-1zm67-22c-13-6-32-10-39-8-5 1-8-1-6-4 4-6 40 2 50 10 7 6 6 7-5 2zm6-12-11-5c-9-4-20-7-29-8-5-1-6-1-6-3 0-8 35 2 48 13 4 3 3 5-2 3zm-10-21-15-6c-8-2-10-4-8-6 5-3 35 10 35 16l-12-4zm2-16c-7-2-11-5-11-6 1-3 13 1 17 5 2 3 0 3-6 1zm182 71c5-8 5-13-2-18-6-5-15 3-10 10 1 3 3 3 3 0-1-3 1-7 4-6 5 0 3 10-1 11h-3l3 3c3 3 5 3 6 0zm-82-7v-5c-2-1-4 4-3 9 0 3 2 0 3-4zm267 0c2-11 0-17-5-13-3 2-3 8 1 13 3 6 4 6 4 0zm-168 0 5-9 8-11c5-6 6-8 3-11l-10-12c-10-13-11-13-18 6-2 4 1 4 6 1l3-3 4 4c6 7 4 17-5 16-6-1-6 1-1 16 2 6 2 7 5 3zm-31-14c1-6-1-11-5-11-2 0-2 0 0 10 1 4 4 5 5 1zm171-5c0-5 0-5-3-8-5-4-5-10-1-15 5-6 4-16-1-11-7 7-11 17-8 22l5 9c5 10 7 11 8 3zm20 2c5-4 5-8 1-15-3-7-5-6-10 3s2 19 9 12zm-8-3c-1-3 1-9 3-10s5 1 5 5c0 5-6 9-8 5zm-168 2c0-4-4-12-5-12-3 0-3 7 0 10 2 2 5 3 5 2zm208-7 7-6c7-4 15-12 23-23 24-29 29-38 32-64 2-15 2-15 7-29 4-12 4-18-3-22-5-4-6-3-6 7l-3 14c-3 8-7 25-7 30 0 14-7 27-26 53-4 7-14 16-21 21-10 6-13 10-13 16-1 9 2 10 10 3zm-78-5 3-8-11-17c-10-1-14 0-17 2-5 4-3 6 4 5l5-1 5 7c3 5 4 7 4 10 0 10 2 10 7 2zm-140-4c4-12-10-23-14-12-3 8-2 10 4 14s8 4 10-2zm-7-2c-3-2-2-8 1-8s4 5 3 8c-1 2-2 2-4 0zm203-4c0-13-3-17-6-9-2 4-2 5 2 15 3 6 4 4 4-6zm-18 2c3-5 3-7 0-12-4-6-5-4-5 4 0 12 1 14 5 8zm-22-17 7-12v-5l-3-9-4-7c-7-15-13-13-18 6-4 18-3 24 6 35 3 5 3 5 12-8zm-13-12c-3-3-2-8 0-11 5-4 10-2 10 4 0 7-7 11-10 7zm-160 17c1-4 1-4-2-7-5-5-7-5-5 0l1 5c0 3 3 7 4 6l2-4zm31-2c6-7 5-8-4-21-9-11-11-13-14-13-4 0-4 2-1 6l3 7c1 4 3 7 6 8 2 0 4 4 2 4s-2 4 1 9c3 7 3 7 7 0zm174-4c5-7 5-9-1-18-5-9-6-9-11-1-4 7-4 7 0 14 8 11 8 11 12 5zm-7-7c-4-4-1-12 3-10 3 1 2 11-1 11l-2-1zm-186 4c-1-2-3-3-3-1s1 3 2 3l1-2zm117-3-9-2c-7-2-44-1-43 1 2 2 50 3 52 1zm-123-4c2-5-9-21-15-21-5 0-4 13 1 18 8 8 11 9 14 3zm-11-3c-1-3 0-7 2-7 2-1 3 4 2 6-1 3-4 3-4 1zm-46 4c0-2-4-7-6-7s-1 1 1 5 5 5 5 2zm299-2c14-15 25-37 27-54 1-5 2-13 5-19 7-22 8-28 4-35-9-17-31-18-52-3l-21 14c-8 1-9 4-5 10a173 173 0 0 1 16 59c1 11 4 8 7-9 4-17 4-21 3-27l-2-6c-1-4 3-5 5-2 4 5 3 22-2 36-2 7-2 15 0 15 6 1 11-19 12-41 0-15 1-18 4-15 4 5 1 34-6 51-3 7-3 9 3 9 4 0 4-2 8-18 4-12 5-23 5-35l1-12c11-8 2 47-10 73-7 13-7 15-2 9zm-370-2c3-3 3-4 2-4-3-1-9-9-13-15-11-19-32-30-61-32-15-1-18 0-21 3-8 8-6 10 9 9h14l13 4c22 6 37 16 43 29 5 10 9 11 14 6zm166 0c4-5 3-11-1-11l-6-4-6-5c-1 0-3-4-2-7 0-3 3-6 6-6l4-1 2-7 2-6-2-2c-4-4-9 1-18 19-5 9-5 9 2 17l10 12c5 5 5 5 9 1zm53-4h29c18 2 20-1 3-5-16-3-61 0-65 5-2 3 0 3 9 2l24-2zm-26-7a530 530 0 0 1 63-2c7 1 8 0 13-9 5-11 4-14-4-23l-6-6-11 1c-12 1-17 0-18-3-1-7-2-8-5-5l-3 1-7 4-5 3h-13c-11 0-14 0-16 2-5 3-3 4 10 4l25-1c4-1 5 1 5 10 0 10-3 14-8 14l-6 2h-8c-6-1-19 4-17 8 0 2 2 2 11 0zm58-8-7-1c-3 0-6 0-9-2l-5-2v-6c1-4 1-6-1-8-4-5-3-7 9-7 21-1 25 2 25 13s-5 16-12 13zm-5-7c3-2 3-2 5 0 3 3 7 1 5-3-4-7-21-7-19-1 1 5 5 6 9 4zm67 13c2-3 2-5 0-8-4-4-5-3-4 3 1 9 2 11 4 5zm18-3c0-8-2-11-5-7-2 3-1 5 1 9 3 5 5 4 4-2zm-307-1 3-3-3-3-7-11c-10-20-18-30-29-35l-10-5c-10-5-42-10-47-7-4 2-4 5 1 5 9-1 33 5 42 11 11 6 33 29 34 35l4 7 4 7c1 3 4 3 8-1zm82 0c0-2-5-7-6-6s4 10 5 9l1-3zm61-2c1-2-3-6-4-4s0 5 2 5l2-1zm-118-4-2-6c-1-3-1-4 1-8 1-4 1-4-1-8l-2-4 2-3c3-4 3-5-1-8l-2-4 2-4c4-3 4-9 1-11l-2-3 2-4c3-4 2-6-1-9-3-4-3-5 0-9 3-3 3-6-1-10l-2-3 2-2c3-4 4-5 1-10v-6c2-3 2-5 0-8s-2-3-1-7c2-4 2-5-1-10-1-1-1-2 1-4l2-4-2-4-2-4 2-3c3-4 2-6-1-10l-4-3 4-2c4-4 4-4 0-8l-3-3 2-3c4-4 4-7 0-10-3-4-3-5 0-7s4-6 1-9c-4-3-4-4-1-8 3-3 3-6 0-8-3-1-3-4 0-5 3-2 2-6-1-8-3-3-3-4 1-7 3-3 2-7-2-8h-3a2206 2206 0 0 0 1 189v65l2 2c4 3 7 3 8-1zm73 3c0-6-7-16-9-14-3 3-2 8 2 11s7 4 7 3zm65-1 5-3c3-3 3-3 6-1 9 4 17-3 9-7-9-4-21-3-26 3s0 12 6 8zm135-4c2-2 2-7 1-10l-1-2-2 2c-1 2-2 2-4 2-4 0-4-6 0-8 3-2 3-2 2-5-3-5-4-4-8 2-4 9 6 26 12 19zm-24-11c-1-6-2-7-5-4-2 2 0 9 3 12 2 1 3-3 2-8zm-189 1c1-7-15-24-17-17-1 3 1 14 2 16 7 8 13 8 15 1zm-10-1c-2-1-1-5 1-7s5 2 3 5c-1 2-3 3-4 2zm45-7c11-15 11-16 6-20l-12-10c-11-9-11-9-21 5-7 11-4 20 9 33 8 7 8 7 18-8zm-19-7c-3-3-3-7 1-11 6-6 13-2 13 7 0 6-9 9-14 4zm48 12c2-2 2-3 1-4-2-2-7 4-6 6 2 2 4 1 5-2zm45 2-1-3c-2-3-5-1-4 2s4 3 5 1zm-192-30c-1-28-1-27-15-30l-23-6c-13-7-31-6-40 3-7 7-6 8 5 9 33 6 51 17 65 40 8 14 8 13 8-16zm265 19c3-4 4-6 3-10-1-3-3-5-5-3-1 3-9 0-9-4 0-3 4-8 7-8 2 0 2 0 0-7s-3-7-10 1c-6 7-6 8 0 17l8 12c2 5 3 5 6 2zm17-4c2-4 1-7-3-12-4-3-5-1-4 7 3 11 5 12 7 5zm16-9c-2-6-4-7-6-4-1 2 1 9 4 13l2 4 1-4-1-9zm-238 10c1-1-1-5-3-5-1 0-2 4 0 5 2 2 3 2 3 0zm185-4c-4-7-7-9-10-6-2 2-1 2 5 5 5 3 6 3 5 1zm-95-1c2-1 3-2 3-5 0-7 6-11 11-8 1 1 2 2 2 5 0 5 1 6 5 7 4 0 6-1 6-4l2-4c2-3 0-6-9-15l-9-8-9 10c-14 14-15 16-11 21 2 3 5 3 9 1zm-75-6c-1-5-6-11-8-10-3 3-1 8 3 11 5 3 5 3 5-1zm156-3 3-5-3-5c-8-11-14-17-17-16-5 3-16 20-14 24l1 3h2l6 1c3 2 5 2 11 2h8l3-4zm-18-1c-4-2-4-5-1-9 4-5 9-3 10 4 1 6-4 9-9 5zm-152-3c2-7 2-9-2-11-3-2-4-1-2 2 2 4 0 6-4 6-5 0-7-7-2-9 3-2 2-3-2-5l-6-4h-5c-6 2-4 9 2 12 2 0 3 2 3 3 0 2 3 5 5 5l6 4c6 4 5 4 7-3zm228-3c0-3-2-5-4-4 0 1-1 2-3 2-3 2-3 4 1 6 3 3 6 1 6-4zm-201-4c7-11 8-10-2-17-5-2-10-6-11-8-4-5-17 0-14 6 1 3 5 4 6 3 7-7 17 4 12 12-2 4-3 6-1 9 3 5 4 4 10-5zm50 4c18-20 19-21 7-23-6 0-7 0-7 6 0 3-1 4-3 6l-3 2-4-2c-5-3-5-7-1-12 4-3 3-4-1-5-5-1-6-1-11 4-6 5-5 6 6 17 12 12 12 12 17 7zm62-10c9-12 9-13 3-12-8 1-10 2-11 6-1 8-12 9-13 0-1-2-1-2-6-2-7 0-6 1 6 13 10 9 10 9 21-5zm79 1c2-3 2-4 0-6-4-4-9 4-5 9 2 2 3 1 5-3zm-33-2 6-8c5-5-1-15-9-15-2 0-2 1-1 3 5 9-1 15-9 10-4-2-4-7 0-11 4-3 4-3 0-4-3-1-11 5-12 9-1 9 19 22 25 16zm25-9c0-3 0-4-2-5-4-1-5 1-3 5s4 4 5 0zm-217 0c1-2 0-4-2-4-3 0-3 2-2 4s4 2 4 0zm53-6c6-6 6-8 2-10s-6-2-6 1c-2 6-7 7-12 2-3-4-8-4-8 0 0 8 19 14 24 7zm100-14c15-3 19-6 10-9l-5-2c0-1-4-1-7 1-10 5-32 7-46 3-27-7-31-8-34-10-7-5-12-4-9 2 3 4 25 12 44 17 9 2 35 1 47-2zm-18-21c-7-3-9-4-10-7-1-4-3-4-12-7-2 0-4-1-5-3 0-1-2-3-4-3l-18-10c-11-10-14-11-34-11-17-1-21-2-21-5 0-2 4-4 14-4 13 0 14-10 2-24-7-6-7-6-12-2l-7 6c-17 13 5 50 30 50 2 0 4 2 4 5 1 4 28 11 52 14a592 592 0 0 1 21 2h3l-3-1zm30-34 6-1h4c3 1 5 0 5-2l2-4c3-6-2-9-7-6-3 2-9 3-12 2h-9c-7 2-7 2-8 0l-11-1-10 1c-3-3 5-14 9-13 2 1 4 0 8-3 3-4 4-5 7-4l4-1c2-2 11 0 14 4 5 4 8 1 4-5-2-2-3-3-6-2-4 1-12-5-12-8 1-6 12-10 18-6 4 4 10 1 10-4l-9-27c-6-12 1-22 17-27 6-2 6-3 1-6l-8-5-24-13-14-6c-12-5-27-7-33-4l-11 4c-11 2-18 8-13 9 3 1 2 4-2 8s-5 8-5 18c1 11 0 18-2 21-1 4-1 6 1 6s3 3 2 7v5l2 5c0 3 0 4 2 5 2 0 2 1 2 7 0 7 0 7 3 9l3 4 2 4 2 6c0 5 2 7 5 4 2-3 5-2 5 1l-2 6v3l4-4c4-4 6-4 8-2l4 3 2 2 3 5 3 3 3-3c3-1 4-2 8-1 5 1 6 1 6 4s0 3 4 3c4-1 5 0 6 1 1 2 1 2 4 0l5-2zm-40-71-5-3c-1 0-3 0-4-2s-4-2-5-2c-4 0-10-2-10-3 0-4 9-8 17-8a48 48 0 0 0 16-2c5-1 3-3-2-4-9-2-15-2-17 0-9 7-19 8-16 1 6-13 31-17 47-8l6 1c10 0 9 14-3 18-5 2-6 2-6 6l-1 3-7 3c-6 3-5 3-10 0zm84 66c4-7 3-16-2-21-3-3-6-3-6 1l-2 4v8c1 6 1 11-1 15-1 4 8-2 11-7zm-15-20 1-11 2-17c4-14 2-24-3-21l-5 1c-4 0-4 3-3 11 2 10 2 17-2 22-3 5-3 7 3 12 5 5 6 5 7 3zm-132-13c0-2-3-3-4-2-2 1-1 4 1 10l2 6 1-7v-7zm8-17c1-3 1-3-1-5-3-3-3-6 0-11 4-7 1-8-4-1-4 5-7 6-11 5-4-2-3-7 2-9s5-3 0-5c-6-3-7-5-4-8v-3c-6-3-8 10-4 24 3 11 17 20 22 13zm126-36c2-2 3-8 0-8-2 0-7 5-7 6 0 4 4 5 7 2zm-142-12c2-1 3-1 2-2-3-4-14-5-20-2-5 2-5 4 0 3 4 0 4 0 5 2 0 3 2 3 6 2l7-3zm-93-14c5-3 4-8-1-8-2 0-4 4-3 7s1 3 4 1zm267-3c24-17-8-59-53-68-21-4-32-2-20 4 18 9 20 10 21 12 1 5-8 3-25-5l-34-20a92 92 0 0 0-77-8c-19 10-32 22-37 35-4 10-3 12 8 15 9 3 10 3 16-2 15-13 40-22 60-20l20 1c14 1 23 4 40 11a194 194 0 0 0 20 9l8 4 15 8 12 7c4 2 16 15 16 18s4 3 10-1zm-29-1c0-4-8-10-31-22-9-6-42-17-53-19-36-5-61-1-82 14-6 4-7 5-8 11l-2 9c-2 4 1 3 6-1l20-13 16-8c2-1 4-2 31-2 32 0 33 1 58 10l14 5c3 1 17 9 23 14 6 4 8 4 8 2zm-236-10c3-3 2-5-1-8l-3-2 2-2c4-1 5-4 3-8-2-3-2-4-1-6 2-3 2-4 0-5v-13l-1-7c0-6-3-13-4-9a688 688 0 0 0-1 56c-1 5 3 7 6 4zm-85-71c-7-17-10-69-6-88 3-14 0-14-10-1-11 14-12 18-7 28l3 7 7 14c4 5 3 12-1 7-3-2-15-21-15-22l-3-9c-8-19-14-43-16-59l-5-30a393 393 0 0 1 10-157c3-5 7-21 8-31a143 143 0 0 1 8-42c-1-1-3 2-4 6l-2 6c-4 5-10 23-14 37l-3 10-1 5-1 4c-1 1-2 5-4 23l-2 10-6 42a476 476 0 0 0 19 167l6 12c6 14 19 40 25 49 7 10 16 18 14 12zm76-8 1-12 2-16c2-14 7-15 7-1l1 2 1-55a1179 1179 0 0 1 0-62c-3-1-2-4 0-6 3-3 3-3-1-4-5-2-4-5 2-7 4-3 5-5 1-5-6 0-7-5-1-9 3-2 3-4 0-4-2 0-5-2-5-4s1-3 5-4c5-2 5-3 0-5-7-2-8-5-2-7 5-1 5-3 1-4-6-2-7-7-2-9 4-1 4-2 0-3-4-2-4-6 0-8l3-1-3-2c-4-2-4-3-5-39a17605 17605 0 0 0-8-236c-2-32-2-36-5-33a7428 7428 0 0 0 0 327c-4 2-6 0-6-3 1-3 0-4-5-2-4 1-10 1-16-2-10-3-12-2-22 11a494 494 0 0 1-37 45 264 264 0 0 1-13 18c-1 2-5 6-6 5s2-5 17-24a340 340 0 0 0 17-23 495 495 0 0 0 21-27c11-13 10-11 8-14-3-3-13 4-20 14l-8 11a1805 1805 0 0 0-30 37c-1-1 9-15 30-44 13-17 16-21 20-23 2-1 2-2 2-4-1-22-1-21-10-21-6 0-9-1-15-4-9-4-10-4-10-2l-3 5-10 11a83 83 0 0 1-17 22 258 258 0 0 0 4 99c5 31 6 32 19 15l9-11c2 0 1 2-1 5l-4 6-8 10c-6 8-7 11-5 12 1 1 8-5 11-10l11-12c3-2 3 1 0 3l-4 6-7 9c-8 9-10 15-5 13l17-20c8-10 9-15 5-15s-2-3 8-13l6-7 7-9 9-11c4-7 20-15 29-15 14 0 14 0 15 21l1 15 2 61a65450 65450 0 0 0 2 69zm-87-120 8-9c2 0 1 2-3 6-3 3-5 4-5 3zm74-55c-2-1-3-4-1-5 3-1 12 2 12 4-1 2-7 3-11 1zm-1-10c-2-3 0-5 5-5s6 1 6 2c0 4-9 6-11 3zm0-12c-2-2-1-5 1-6 3-2 9 2 9 5-1 3-8 4-10 1zm-62-31c3-5 5-7 4-3-1 3-3 5-4 5v-2zm149 231c3-3 3-5-2-5-3 0-6 0-9-3-7-4-8-4-6 1 5 8 11 11 17 7zm91-4c5-12 2-43-5-56-6-11-17-20-18-13-1 4-3 4-9 1-11-7-19-9-27-5l-6 2c-7 0-21 28-17 34 1 2 1 2 6-6 4-7 14-14 20-15s7 2 1 4c-9 4-17 16-17 25 0 7 1 7 8 0 9-9 14-7 7 3-4 5-5 10-3 14 1 4 4 3 8-3l11-11 9-9c6-9 20-6 25 5 2 5 3 22 2 26-1 2-1 3 1 4 2 2 4 2 4 0zm-75-6-3-5-4-8c-1-3-2-7-4-9-7-9-7-18 2-32 4-7 4-8-3-5-27 14-28 50-1 55 2 0 4 2 5 4 3 3 7 3 8 0zm60-1c4-10-12-18-17-8-2 4-1 5 7 8 8 2 10 2 10 0zM246 385c17-17 25-21 47-21 16 0 16 0 10-7-9-9-25-10-35-3-4 3-6 3-9 3h-5v-5c-1-7-1-7-10-8-7-1-11 13-7 26v12c-1 13-1 13 9 3zm-142-60c9-12 12-16 14-16 3 0 3-2-2-8l-5-7v-3c-1-3-5-3-6 0-3 7-2 9 1 8 4-1 4 1 1 5-4 6-5 8 0 4 4-3 7-4 7-1l-3 4c-3 2-13 17-15 21-1 4 2 1 8-7zm-1-40c2-2 2-3 1-7-1-7-3-7-5-2-4 9-2 13 4 9z"/></svg>