<svg xmlns="http://www.w3.org/2000/svg" xml:space="preserve" viewBox="0 0 290 361"><g fill-rule="evenodd" clip-rule="evenodd"><path d="M196 0v7c-2 0-1-7 0-7zm25 6 2 1 1 80c-2-1-1-3-1-5V64l-1-25c0-10-2-22-1-33zm-25 3c2 26 0 53 2 77-3 0-1-5-2-8V9zm-49 4 1 1c-1 5 1 9-1 13V13zm0 15c3 3 1 8 1 12l1 3c1 6 0 12-1 19l-1-34zM69 39h1c-1 4 2 9-1 12V39zm57 1h1c-1 8 1 14 1 22-3-1-1-4-1-6-1-4-2-10-1-16zM59 50v1-1zm-6 1h2l-1 6v-2l-1-4zm16 1c1-1 0 5 1 7-1 1-1-5-1-7zm-10 3 1 5c-3-1 0-3-1-5zm91 4c2 2-2 3 0 0zm-96 0c2 1 0 5 1 8-2-1-1-6-1-8zm3 2h2v3c-2 0-1-2-2-3zm12 0 1 2-1-2zm-5 0c2 0 1 3 1 4-2 0-1-3-1-4zm83 4h2c2 7-1 13 0 20v21c-2-6-2-24 0-34-3-2-1-5-2-7zm-28 2c-1 2-5 1-6 1 0-2 4-1 6-1zm-61 1c2 1 2 6 1 7l-1-7zm-4 0c2 0-1 3 0 0zm27 1 1 1-1 5v-6zm37 2-4 1 4-1zm1 1 5-1c-1 2-4 1-5 1zm8 3h1v8s1 2-1 2V75zm-1 1c2 1-2 1 0 0zm-10 0-5 2c0-2 2-2 5-2zm-7 1-3 1c0-2 2-1 3-1zm77 3c-3-2-3 0-3 1-2 0-1-2-3-3 2-1 5 0 6 2zm43-2c0 2-2 1-3 1l3-1z"/><path d="M185 80h1c0 2-1 1-2 1l1-1zm41 1h3c0 2-3 2-3 0zm-106 2c-1 0-4 2-6 1 2-1 4-2 6-1zm109 1c1 1-3 2-3 0h3zM92 88c-7 1-13-3-21-2 0-2 3-2 5-2l1 1c2 0 6-1 6 1 3-1 6 2 9 2zm68-3h2l-2 1v-1zm-93 2-2 1c-1-2 1-1 2-1zm1 0h2c-1 3 0 5-2 7-2-2 1-6 0-7zm115 0h2c-1 1 0 4-2 4v-4zM60 87h2c0 2-3 3-2 0zm64 0c-1 3-4 1-5 2-2-2 3-2 5-2zm3 0c2 2 1 4 1 6l-1-6zm69 0h2v2c-2 1-2 0-2-2zM77 88c0 2-2 1-2 1l2-1zm3 0-2 2 2-2zm80 0c3 2-1 2-2 1s2 1 2-1zm7 0h2l-2 2v-2zm-82 2-4 3c1-2 2-4 4-3zm-14 0c2 0 2 2 1 3-2 0-1-2-1-3zm15 0h1v1h-1v-1zm11 0v2-2zm-37 1h3c0 2 2 1 1 3h-2v-2l-1 2c-1-1-2-1-1-3zm136 0h2c2 4-3 7 1 8l-2 3-1-11zM89 92c2 1 1 3 0 3-1-1 1-3-2-2l2-1zm78 0c1-1 2 0 2 1h-2v-1zM55 92l1 1c1 1-2 0-1-1zm2 0c2 0 0 5 0 7-2-1 0-5 0-7zm68 0-2 1 2-1zm-32 1c2 1-1 2-1 3l-1-3h2zm114 0 1 2c-2 0-2-2-1-2zM76 93c3 1-2 3 0 0zm19 0c1 2 5 0 5 3h-4c0-1-1-2-2 0-1-1 1-2 1-3zm32 1c1-1 1 3 1 4-1 2-1-3-1-4zm41 2c-2-1 1-3 0 0zM34 95c1-2 2 3 1 3l1 3v1h-2c-2-3 1-5 0-7zm172 1 2 1c-2 1-3 1-3-1zM53 97c1-2 2 1 2 1-1 1-1-1-2-1zm59-1c2 0 1 2 3 1 0 2-3 2-3-1zm58 1c1 2 3 2 2 4-2 1-3-2-2-4zm-141 4 5 5c-3 2-3 5-3 10l-5-10c2-1 3-3 3-5zm-2 5c0 3 2 4 3 5l2-5c-1 0-1-2-3-2 0 1 0 3-2 2zm50-5h2c0 1 0 2-2 2 0 2 0 5-2 5l2-7zm12 0c1 2-1 0-1 1-2 0 0-2 1-1zm63 0c0-1 2 0 1 2l-1-2zm-66 3c-1 1 0 2-2 2l2-2zm67 1 4 1c0 2-2 1-2 3l-2-4zm-40 1h6l-10 7c-1-3 6-3 4-7z"/><path d="M77 106c2 0 1 5-1 4l1-4zm43 2c-1 0-2 3-3 2l3-2zm-85 1v2-2zm57 0c1 1-2 0-3 1l3-1zm29 0-1 1 1-1zm11 0c1 2-3 1 0 0zm3 1c4 2-3 6-5 7 0-2 2-3 4-4l-1-2c1 1 2 1 2-1zm-54 0-2 4c-2-1-1-4 2-4zm7 1c1 1-1 2-1 2l1-2zm-33 1c2-1 1 2 2 1-1 2-4 0-2-1zm46 2c2-2 2 2 0 0zm38 0v2c-3 0-3 4-6 4 1-3 4-4 6-6zm-84 1c1 1 2 1 2 3-1-1-2-1-2-3zm135 0-4 3c-1-1 2-3 4-3zm-159 2v2-2zm161 0c0 2-1 3-3 3 1-1 1-3 3-3zm-54 1c2-1 1 1 2 1-1 1-2 2-3 1l1-2zm50 0-1 1 1-1zm-4 0c1 1 0 3-1 3l1-3zm10 1 1 1c-1 1-1 2-3 1-1-2 2-1 2-2zm-163 0c2 3-2 3 0 0zm116 0 2 1c-6 5-11 9-17 12-3 4-8 6-12 9 1-5 10-5 11-10 6-2 9-6 14-9l2-3zm117 35c0-1 1-2-1-4l2 1c4-13-7-20-8-31l2 2 8 17 1 3-1 1c1 5 1 7-3 11zm-69-33h2c0 1 0 3-2 3v-3zm-106 1h3c-4 1-1 7-4 8-1-1 2-4 1-8zm9 0c2 0 0 4-2 4l2-4zm-57 1c2 0 2 2 3 3-1 1-4-1-3-3zm67 0v2c-2 1-2-2 0-2zm93 0c0 2-2 4-3 3 0-2 1-3 3-3zm-137 1c3 3 1 10 1 14l-1-14zm53 0c-1 2-1 4-4 3 2-1 2-3 4-3zm42 5-1-1c-2 0 0-2 1-2v2c1-1 3-4 4-2-3 1-3 5-7 6l3-3zm-99-2c1-1 0 5 1 7l-1-7z"/><path d="M112 126c2 0 1 2 0 3h-3c0-2 3-1 3-3zm116 8c-3-2-3-6-7-7 3-2 6 4 7 7zm-123-7c2 1-2 5-4 7v-4c3 1 3-2 4-3zm-69 0c2 0 2 2 3 3-1 0-3-1-3-3zm59 0c1 2-2 6-3 8l3-8zm-52 1c1 1 3 1 3 3-2 0-2-2-3-3zm111 4c1-1 1-3 3-3-1 1-1 3-3 3zm112-3c2 1 4 5 3 6-2 0-1-2-3-2v-4zm-43 4c-2 1-4-2-7-1 2-3 5 0 7 1zm-187 1 2 1-2-1zm109 0h1v2h-1v-2zm23 0v11l1 3 5 17c-4-2-2-7-5-8-1-8-5-15-1-23zm2 22c1-1 0-2-1-2l1 2zM36 136h2c0 2-2 5 0 6-1 2-1-2-3-1l1-5zm53 0-1 2 1-2zm-26 2v2-2zm13-1c2 0 0 2 1 4-2 0-1-3-1-4zm-44 1h2v1h-2v-1zm110 0c-1 2-1 6-4 7l1 1c-1 3-1 6-3 8 2-6 0-13 6-16z"/><path d="M176 138c1 2 3 7 2 8l1 1c1 10-2 17-7 23-1 0-2-5-4-4-3-5-6-14-4-22 1 5 1 14 4 19 1 1 3 2 3 5l6-7-1-1c3-6 1-15 0-22zm-116 0c3 1 0 4 0 0zm-3 1v4c-2 0 0-2 0-4zm212 0h1v2h-1v-2zm-204 1v3-3zm11 2v2-2zm41 0-4 3c0-2 1-3 4-3zm-54 1c2 1-1 1 0 0zm147 0-1 3c-1 0-1-4 1-3zm-100 0 1 4c-1 2-4-4-1-4zm100 0c2 0 2 3 1 4l-1-4zm5 1-3 1 3-1zm49 1c1 0 1 4-1 4l1-4z"/><path d="m172 146 2 1h-2v-1zm-17 0c2 1-1 4 0 0zm84 3h2-2zm12 1c1-2 1 1 1 1l-1-1zm-16 1h2c1 5-1 10-5 10l3-3v-7zm-126 1c2 2 1 7 4 10-2 1-1 5-4 5 3-4 0-12 0-15zm119 0c2 1 2 4 3 6-2-1-4-4-3-6zm14 0v4l-3-1 1-2c1 1 1 0 2-1zm-61 0v3c-2-1 1-1 0-3zm71 0h1v2h-1v-2zm-91 1v4c-2-1 0-3 0-4zm-23 1-1 4c-2-1-1-4 1-4zm84 0c2 0-1 3-1 4-1 0-2-1-2-3 1 1 4 1 3-1zm-15 0c3 2-3 2-4 4v-3c1 0 4 1 4-1zm8 0c1 1-1 2-1 3-2-1 1-2 1-3zm-83 1c1-1 0 2 1 3-1-1-2-2-1-3zm86 0c1 1-1 3-2 2 0-1 2 0 2-2zm14 1 1 3-1-3zm-136 1h1v2h-1v-2zm42 0c1 1 0 2-1 2l1-2zm102 1v1h-3c1-1 3-3 3-1zm-79 0 1 1-1-1zm-121 1c-12 4-28 3-40 7 0-2 2-2 3-3l35-5 2 1zm33-1 2 1-2-1zm111 7c1-2 3-4 2-7 3 0 2 3 1 5-4 2-5 8-8 11-1-2 2-3 3-5 1-3 0-6 2-8v4zm42-6c-1 2-2-2 0 0zm-44 0c1-1 0 1 1 2l-1-2z"/><path d="M237 159h1v1h-1v-1zm15 1c1-2 2 1 0 0zm-21 0-2 1 2-1zm8 0c2 0 0 3 0 0zm-101 1c2 0 2 1 2 2l-2-2zm-5 1c0-2 1 0 2 0-1 2-2 0-2 0zm60-1c3 0 0 2 1 4l-1-4zm-31 4-4-2c1-2 4 0 4 2zm-76-1c-1 2-2-2 0 0zm57 2-2-1c0-3 2-1 2 1zm-87-2c3 1 0 3 1 6-3 0-2-4-1-6zm25 0c-1 1-1 2-3 2 0-2 2-2 3-2zm149 0c2 1 3 4 6 4 1 2-3 0-3 1l-3-3c-1 0-3 1-2 3l-2-2c3 0 3-2 4-3zm-52 1c1-1 1 0 1 1l-1-1zm38 0c1 1 2 2 0 2v-2zm-140 2c1-1 1 0 1 1h-1v-1zm149 0c2 0 0 2-1 2-1-1 1-1 1-2zm-37 1v1-1zm16 0c2 0 4-1 4 1-2-1-4-1-4 1v-2zm7 0c-2 2-3-1 0 0zm8 0 3 1-1 2c-1 0-2-1-2-3zm28 1h1v1h-1v-1zm-19 1h4c-1 3-2 0-4 0zm-113 0 1 3c-2 1-1-2-1-3zm101 1c0-1 3-1 2 1-1 0-1-2-2-1zm30 0h1l-1 1h-1l1-1zm-88 1c0 2-2 1-3 2 0-2 2-1 3-2zm-20 0c3 1 3 4 5 5-2 1-5-1-5-5zm-69 1-2 2 2-2zm78 1c1 0 2 0 2 2l-2-2zm-31 0 1 5c-2-1-1-2-1-5zm-24 1v1-1zm75 0c1 2-2 4-4 5 0-3 4-2 4-5zm-128 1c1 0 2 1 1 2l-1-2zm107 0c1 1 4 2 3 4l-3-4zm16 2v2-2zm-124 0 1 5c-1-1-4-4-1-5zm196 1h-2 2zm-222 0c2 0 3 2 2 3-1 0-2-1-2-3zm0 4-1-3 1 3zm150-2c2 0-1 3-2 3-2-2 2-1 2-3zm-52 2h2-2zM9 183c1-1 1 1 2 1-1 2-2 0-2 1-2-1 1-1 0-2zm105 2c0-1 2-3 3-2-3 3 1 4 0 6-1-1-3-2-3-4zm41-2 4 1c-1 1-4 1-4-1zm-51 2c0-2 2 0 2 2l-2-2zm60-1c2 1-1 2 0 3v-3zm71 4h-2c1 1 3 2 3 4h-2c1-1-1-1-1-2l-1 1v-3l-2-1c-1 0 1-2-2-2 2-2 5 2 7 3zm-176-3 1 1h-1v-1zm50 0c2-1 1 1 2 1 1 2-1 1-1 2 0 4 2 8 4 11-1 3 1 5 2 9l1 9c1 2 3 4 2 6-5-4-3-15-7-20 1-6-6-10-3-18zm97 0 2 6-2-6zm-115 0c2 0 0 4 1 5-2-1-1-3-1-5zm125 0c2 2-1 2 0 0zm-183 1c2 3 0 6-1 9 2 2 4 6 6 5-1 3 3 5 4 7-2 2-4-2-5-4-2-2-3-5-6-6l2-11zm32 0c2 1 0 4 0 6h2c0 1-1 3 1 6l-6-8c1-1 3-1 3-4zm117 0c2 2 7 0 8 3-2-1-7-1-8-3zm17 2c2-1 0 1 0 2 1 2 5 3 6 6 2 5-1 9 2 13-3 0-1 5-4 7 4-8 2-22-4-24 0-2-2-3 0-4zm65 1-5 4-2 6c-1-4 0-9 7-10zm-70 1v2c-2 1-1-1-2-1l2-1z"/><path d="M38 191v4l-2-1c0-1 0-3 2-3zm101 1c0-2 2 2 2 0l1 2c-2 0-2-2-3-2zm-51 1v1-1zm198 0c1 0 1 3 3 3-2 1-3-1-3-3zm-152 1c0 2-2 0 0 0zm-69 4-2 1 2-1zm78 0 1 2-1-2zm108 1 2 4h-1l-2 18c-1-8 1-14 1-22zm-181 0c2-1 2 4 0 3v-3zm-10 1h2-2zm35 0c2 0 1 5 0 7v-7zm-25 15c-5-1-2-9-6-10 0-1 2-4-1-4 2-3 3 3 2 3l4 6c-1 2 0 3 1 5zm75-15 1 2c-2 1-2-1-1-2zm135 1c-1 1-2 0-2 2-1-1 0-3 1-2zm-153 0c2-1 2 3 0 2v-2zm31 1c1 0 0 3-1 2l1-2zm-88 2c2-1 2 2 0 1v-1zm-10 0c2 0 0 3 1 3-1 1-1-2-1-3zm221 0c2 1 0 2 0 3-2 0 0-2 0-3zm-127 1v2-2c0 1 0 0 0 0z"/><path d="M282 205c2 1-1 3 1 6l6 1c-1 2-6 0-8-1l1-6zm-258 2 3 3c-2 0-3-2-3-3zm48 0v2c-2 0-2-3 0-2zm11 0c2-1 2 2 0 1v-1zm85 1c1 0 2 2 1 3l-1-3zm-109 2c2 0 2 3 0 3v-3zm25 1v2-2zm100 0v3c-2 0-1-3 0-3zm76 1h2-2zm-189 0 1 4-1-4zm109 2c2 0 1 3 0 4v-4zm80 1c0-1 4-1 2 1-1 1-1-1-2-1zm-30 1c0-2 2-1 3 0h-3zm-129 0 1 1c-2 1-2-1-1-1zm105 2c-2-1 1-3 0 0zm-137 3 2 6h-2c1-1 1-2-1-2v2c-3-2-1-7 2-8v3l-1-1zm51-2c2 1 3 5 2 7-2-1-2-4-2-7zm138 2 1 1h-1v-1zm1 4-2 1 2-1zm-233 3h3-3zm8 0c-1 2-3 0 0 0zm198 11c-3-1-4-3-4-6 3 0 4 4 4 6zm-194-5c1-2 1 1 1 2-1 2-1-2-1-2zm212 0v2-2zm40 0-12 4c2-3 7-2 9-5l3 1zm-255 1 1 1c-1 1-1 0-1-1zm133 7h-4c0-2 5-2 4 0zm-121 0c2 0 1 2 0 2v-2zm-3 1h2c0 1-3 2-2 0zm-33 2h1l1 1-2 1c0 2 3 1 4 1 0 1 2 3 0 4l-1-3h-2c-1-1-2-2-1-4zm169 0c6 1 7 5 10 9-2 1-3-2-3 0l-7-9zm-148 1c2 1-1 5 0 0zm36 13c-4-1-6-4-7-8l7 8zm10-8h1v1h-1v-1zm-35 1h2v2l-3 2c0-2 2-2 1-4zm186 0v2h-1l1-2zm-133 1h1v1h-1v-1zm194 3-21-2c3-2 9-1 13-1 2 0 8-1 8 3zm-203-2c2 0 1 2 1 3-2 1 0-2-1-3zm25 0c-1 1-1 3-3 3 0-2 1-3 3-3zm57 1c1-1 1 1 1 2l-1-2zm99-1c0 2-1 1-3 2 0-2 2-1 3-2zm-171 1c1 0 2 1 1 2l-2 1c1-1 2-1 1-3zm11 0c0 2-1 1-2 2-1 0 0-2 2-2zm18 0 2 1 1 3c-1 1-3-2-3-4zm75 0c2 2-1 2 0 0zm-163 1c2 0 1 2-1 2l1-2zm37 0c3 0 3 3 4 5-3 0-2-4-4-5zm184 2c-1 0-1-2-3-1 0-2 4-1 3 1zm-180-1 2 1-2-1zm33 0h1v1h-1v-1zm153 1c-1 2-3 3-6 2 0-3 4-4 6-2zm-2 1-1-1h-2c-1 2 3 2 3 1zm-158-1-2 1c0-2 1-2 2-1zm127-1 1 2c-1 0-2-1-1-2zm-196 1v1-1zm125 0 1 4-1-4zm-127 0c3 1-2 3 0 0zm73 2 4-2v3l-4-1zm-5-1-2 1c-1-1 1 0 2-1zm119 0c2 1 2 3 0 2v-2zm-71 1v1-1zm-3 1c3 1 0 3-1 4-1-2 2-2 1-4zm124 1-2 1c-1-2 1-1 2-1zm6 0h2c0 2-2 1-2 0zm-152 1v2-2zm3 0c-1 3-4 1 0 0zm-12 1c-1-1 3-1 2 1l-2-1zm27 1c2 0 1 3 3 3-2 2-4-1-3-3zm6 1c2 0 0 2 1 4-2 0-1-3-1-4zm-86 0c2 1 2 5 5 5-2 4-6-2-5-5zm-52 1v2c-2 0-3 0-3-2h3zm19 0h1c0 2 0 3-2 3l1-3zm40 1c2-1 2 1 3 1l-3-1zm81 0 1 3-1-3zm-127 1c-1 1-1 2-3 2 1-1 1-2 3-2zm144 1-2 2 2-2zM5 271h1v1h1c1 1-1 0-2 1v-2zm27 2c1 1 1 3 4 2v4l-3-1h2c0-2-2-2-3-2v-3zm6 0c2 1 1 6-1 5l1-5zm7 3h-5c0-3 6-4 5 0zm107 2c-7-2-14-1-21 1l12-4h-1c3 2 8-1 10 3zm62-3c1 2-1 4-3 5 0-3 2-3 3-5zm-124 1c2-2 2 1 0 0zm-40 1c2 0 1 4 1 5-2 0-1-5-1-5zm192 0-3 1 3-1zm3 0c0 2-2 2-3 1 1-2 2 0 3-1zm-140 0-1 1-1 1c-1 1 0-1-2-1l4-1zm-76 2c1 0 0 2 2 2l-1 1c-1 0-2-2-1-3zm10 1c3 0 1 3 0 4-2-1 1-2 0-5zm209 0-2 1c0-2 1-1 2-1zm-14 0-2 1 2-1zm-108 1c2 0-1 3-2 3l-3 7c0 1 1 3-1 3 1-6 3-10 6-13zm-99 1v5-5zm-13 0c0 2-1 2-2 3-1 0 0-3 2-3zm234 1h2c-1 3 1 9-2 11v-11zm-231 1c-1 1-1 3-3 3 0-1 0-4 3-3zm68 1 4-1c0 2-3 2-4 1zm151 0c2-1 6 0 8 1-3 0-6 3-11 1 1-2 3 1 5-1l-2-1zm-169 1c2 4 7 5 10 8-3 0-7-3-9-5l-1-3zm92 0-3 1 3-1zm-136 0c3 1 0 4 0 0zm171 0c2 0 1 3 0 3v-3zm-36 3c1-1 3 1 4 1-2 0-5 2-8 1 0-2 5-1 4-2zm-54 1 12 1h-14l2-1zm105 2c0-1 5-2 4 0h-4zm-164 1c-1 1 1 3 2 5l-1 8-3 3-2 6c-1 1-4 1-4 3-1-3 4-4 4-9 4-1 3-7 4-11 0-2-3-3-1-6 1-1 3 2 3 4-2 0-1-2-2-3zm201-1-2 1 2-1zm17 0h3l-1 5c-1-2-2-2-2-5zm-165 0 4 1c0 1-4 1-4-1zm-62 2c-1 3-3 0-5 0 1-3 4 0 5 0zm102 2c-1 0-3 0-3-2l-1 1c-2-3 4-2 4 1zM7 293c2 0 2 4 0 4 1 2 3 3 2 5-2-3-3-5-2-9zm136 0-1 2c-2 0 0-2 1-2zm15 0c0 2-4 3-4 1l4-1zm-5 1c0 2-1 1-3 1l3-1zm-56 1 3-1c0 2-2 1-3 1zm93 0c1-1 0 2 1 3-1 0-2-2-1-3zm-170 0c2 0 2 3 0 2v-2zm214 2v1c-3 1-1-3 0-1zm-140 1c1 1-4 2-3 0s2 0 3 0zm96 0-6 4c1-2 3-3 6-4zm-167 4c2 0 2 3 5 3-1 0-2 0-1 1-2-1-4-2-4-4zm-15 1 1 8c-2-1-2-4-2-7l1-1zm39 1c2-1 1 3-1 3 1-1 2-1 1-3zm40 1c1-1 2 0 3 1-1 1-2-1-3-1zm-30 1c2-1 2 0 2 1h-2v-1zm158 0 1 2c-1 1-1 0-1-2zm-3 2v2h-2l2-2zm15 0h1v1h-1v-1zm-114 3h-10c0-2 3 0 5-1 2 0 5-2 5 1zm5-2c0 3 3 3 6 3l-6 1v8c-2-1-9 2-10-1h9c1-4-4-2-7-3 1-2 4 1 7 0l1-8zm-56 2c0-2 1 0 2 0h-2zm-59 2 1-1v2l-1-2zm172 0c2-2 2 1 0 0zm-144 0h1v1h-1v-1zm71 0h7-7zm185 1c-2 3-6-1-10 0 2-2 8 0 10 0zm-166 0v3-3z"/><path d="M122 314c3-1 1 2 2 4-2-1-1-2-2-4zm14 0c2 0 2 8 0 9v-9zm-32 1c0-2 2-1 4-1l-4 1zm-32 2c0-2 2 0 2 0h-2zm33 0c0-1 3-1 3 1l-3-1zm20 0h1v1h-1v-1zm18 0v6-6zm-22 0h1v1h-1v-1zm37 1 1 2c-2 0-2-1-1-2zm103 0h1v1c-1 1 0-1-1-1zm-116 1h1v1h-1v-1zm-114 1c1 1-1 3-2 2l2-2zm125 0 1 2c-1 1-1-1-1-2zm115 2c2-2 7 1 8 0 2 0-1 1-1 2l-7-2zm-204 1-6 1c1-2 3-1 6-1zm26 0h11c-1 2-10 2-11 0zm87 1h2-2zm96 0c0 2-2 1-3 1l3-1zm-106 2-2 2 2-2zm-75 1h2c1 2-1 1-2 1v-1zm80 1-5 2c0-2 3-3 5-2zm-105 0c3 1-1 2-1 3H57c2-4 10-1 13-3zm10 0c-1 3-3 0-6 1-1-1 4 0 6-1zm93 2c1 0 2 1 1 2-2 1-2-2-1-2zm33 4-1-2h6c-1 2-4 0-5 2zm-121-2h11c3 0 6 0 7 2-6-2-15 2-18-2zm126 0c2 0 12-2 14 2-5-2-10-1-14 0v-2zm-70 2c2 0 4 1 5 3-2-1-6 0-5-3zm7 0h4c0 3-3 1-4 0zm78 0h3c0 1-3 2-3 0zm-130 1h-5c1 0 5-2 5 0zm1-1 2 1h-2v-1zm27 3c0 1-2 2 0 2-1 2-3 0-2-1-4 0-7-2-9 0l17 3c0 2-4 0-3 2-3-2-8-1-10-3-2 0-5 0-5-2 2-5 8-1 12-1zm16 2h-5c1-2 4-1 5 0zm-56 2c-2 2-2-1-4 0l-19-1c3 4 14 1 17 3H60l-3-2c6-4 16-1 23-1 1 0 4-2 4 1zm22-1-10 2c-2-2 5 0 2-2h8zm30 3-6 1c1-1 6-4 6-1zm-9 1c-1-1 5 0 0 0zm39 2h6c0-3-2 0-2-2 3 2 6-1 10 0 2 0 6 1 7 4h-24c-1-3 3-3 6-4l-3 2zm13 0h1-1zm-54-2 2 4-3-1c-1-1 0-2 1-3zm4 4h4c0 3-4 2-5 1 0-1 4 0 1-1zm-2 1-2 1c0-2 1-1 2-1zm4 3c-2 0-5 0-4 3-5-2 4-6 4-3zm53 0h2c0 2-1 1-2 1v-1zm-6 3h5c-1 3-3-1-5 0zm-2 3c0-1 3-1 2 1-1 0-1-2-2-1zm29 2c-1 2-4 0-7 0 0-3 5-1 7 0zm-36-1h5c-1 2-5 2-5 0zM128 63v9c-2-3-1-5-2-8l2-1z"/><path d="M214 207c-3 0-2 3-3 5-3 2-3 7-4 11l1 1c3-1 3-6 6-5l3-7c0 3 2 3 3 0 1 2-3 3-3 5 6-5 12-1 15 4 0 2-2 2-1 4 3 0 5-5 4-9l1 2c3-3-2-7 1-8 2 1 0 5 1 7-1 4-3 4-3 8 0 3 4 6 4 10l-2 4c-2 4-1 10-4 14 3 4 5 10 5 17l-6-2c-4 5 2 15-5 16l1 6 4-1c-1 2 0 1 2 1-1 2-5 1-7 2l2 1c-1 2-4 1-5 2 1 7 6 9 10 13 3-2 6 0 8 1v5c-6 3-17 1-23-1-5 2-11 1-18 2 0 3 4 2 5 4v5c-8 2-16-2-22-1l1-1c-1-2-3-2-5-2l-3 2h-5l-6 3c0 1 4-1 3 1h-22c-1-1-1 1-2 1-6-2-14-2-22-1-4-3-9 0-11-1 0-3 6 0 5-3 1 1 3 2 2-2l1 3c1-1 7 3 7-1 0-5 0 1 1 2 3 2 12-3 15 1l6-1v-2c1 0 1 4 3 3h3l9-1-1-9c-3-1-7-4-10-1 0 1 1 2-1 3-2 0 0-2 0-3-6-1-15 0-22-3 1 2-4 2-6 1 1-2 2 0 4-1-1-3-4-1-6-1-1-3-8-3-9-7 0-3 1-5 3-8h3c0-5 0-9 3-10-2 2-3 5-2 9l2 2 7-14h21l10-13c0-4-3-8-1-12l2 10c1 1 2-3 5-2l1 1-4 7 1 3c3-1 3-3 5-5l3 1 2 3c4 0 8-2 10-6v1c3-2-3-4-4-5 1-4-1-5-2-7l3 1c-2 5 3 6 6 9-1-3-1-6-3-7 3-1 4 4 5 6l6 4v4c2-1 0-3 3-3-2 1-1 2 1 3-2 0-3 1-3 3-2-1-1-2-3-2 1-4-2-4-4-6-6 1-7 8-13 7-2 2-1 6 0 8 1-1 2-3 4-3 3 0 3 2 4 3l-10 12c0 3 3 4 3 7-3 0-2-3-4-3l2 4h-3v7c-2-1-1 2-2 3h9c2 3 5 5 9 4 3 3 10 4 15 3 0-3-3-3-2-4-3-1-4 1-7 1 0-2 4 0 5-2-1-1-1-2-3-2 3 2-5 0-8 1 1-3 4 1 5-1-1-6-8-2-11-1-1-2 1-2 2-3h-2c2-3 7-1 9-3 1-3-2-2-1-4 0-2 3-3 5-4 1-1 0-3 1-2-1-8 2-18 4-25 0-2-2-1-2-1l2-4-4-4c2-1 3 2 4 4h5c-2-6-7-9-13-10 0-2 1-1 2-1-1-2 0-4-2-5-1-5-5-8-8-10-9-1-9-9-16-12-1-2-2-5-4-6s-2 1-2 3h4c-4 2-10 3-9 9l-3 1v5l-2 1c-1 8 1 13 1 22 3 0 0-5 2-6-2-3 0-7 0-10 1-4 0-10 4-12 0 3-2 7 0 10-2 1-2 2-1 5l-2 1c1 6 0 13 2 17-4 3-4-5-7-5l-2-18c-3 1 0 4-2 6-2-1 1-2 0-4s-3 0-4-1c0 5 3 15-3 17l5 6c1 1 3 0 3 2-5 0-7-3-8-5-1 2-8 4-4 8l-3-2c0-4 3-5 5-7 0-3 2-4 4-6 0-8 0-16-5-21l1-4c-1-1-1-3-3-3l-2-6c-1-13 1-30-5-39-3 1 1 4 0 5-2 0-2-3-2-5-2 1-2 3-2 5l-1 14c0 5 3 10 4 16 2 10 0 20 3 30l2 4c0 5 1 9-1 12l-5 3c1 1 1 4 3 5-2 5-14 6-20 4 0-5 6-6 6-12 3-1 6-2 6-6 5 3-4 5-4 9 2 3 5 7 9 5v-2l-2 1-3-4c4 0 3-2 4-4 1 0 1 2 3 2 4-2 2-12 1-15-3 0-3-4-5-5 0-2 1 0 2-2-1-2-1-5-3-6l1-3c2 1 1 4 1 6l3 9c1-7-4-13-3-21l1-3c0-6-3-11-4-17-1-7 1-14-2-19-3 6 0 14 1 21-4-4-3-15-4-22-1-1-2-2-5-2 2-1 1-2 0-4 4 1 5 3 6 6 0-2 2-2 3-2 3-3 5-11 0-14-3 1 0 3-1 5-2-1-2-4-3-6h4c1-5-2-6-3-10l-1-4c-2-4-4-8-4-13 3-1 0 1 1 3 2 0 0-2 2-1-1 2 0 9 3 8-1 6 4 12 8 15-3-7-8-16-5-25l-1-2 3-5c2 1 0 4-1 5-1 9 0 18 4 23-2 1 2 5 3 6l1-2 3 8c2 2 5 1 8 2 4 2 6 5 9 4-5 2-10-4-15-2l-5-3h2c-2-7-9-6-11-12-1 1 0 4 1 6l2-1c0 3 2 6 1 9 1 3 6 1 10 1l13 5h10c0-2 2-2 4-3l-2 2c4-1 6-4 9-5 0-2 0-5-2-5 1-2 1-7 3-9v5c2 1 1-1 1-2v3l2-1c2 1 0 3 0 6l4-2c-1-4 3-3 7-5 5-1 9-4 14-4 4 1 10 6 17 5 0 2 2 3 4 4 3-2 3-6 9-5l-3-1c2-2 3 0 5 1h4c2 0 0-2 1-3h1l3-6c4-6 5-13 3-22-1-4-3-9-6-12l-1-1c0-4-3-5-6-7l-4-5c3-2 7 4 8 6l5 2c1-3-4-5-5-8h3c0 1 2 2 0 2 1 1 7 4 4 6l1 2c3-1 1-4 0-7 3 3 5 6 9 8 1-4-3-7-4-10 2-1 1 2 3 2 0-3-3-4-2-6 5 3 4 10 5 17l5 12c0-6-2-11-4-17 6 6 5 18 7 26l1-3c3 2-2 4 0 7 1 1 1-1 1-1h3c2-1 3-5 5-7 0-2-2 2-2 0l3-1c-1-4 1-8 1-14l-4-11 2 2c1-2-3-4-2-7l-13-5h1l-4-1 1 1c-7 0-15-1-21 3 0-1 0-2-1-1-2 0 2 0 1 2-3 1-4-2-6-3-8 2-17-3-25-5-6 2-11 2-17 2l2 2c-4 2-7 5-9 9-3 12 5 17 8 26 2-2-1-4-1-6 3 1 3 6 3 10-1 1 0-4-2-4-1 0 2 7-1 6 1-3 0-6-1-9-2 2 0 4 0 6-1-1-2-3-1-4-4-4-5-11-8-14v-7l1 3 1-3c-1-2-1 0-2-1-2 2-5 4-5 9h-1l-1-2 3-6 3-1h-2c2-5 7-11 13-12v-1c-8 0-20 7-30 6-5 0-10-4-12-8-11-4-19-6-31-8-1-1 2 1 2-1-1-1-4-1-4-3 4 2 7 5 12 5 0-1-4-2-2-2 0-2-2-1-3-2-1-5-7-5-9-8-1 1 1 2 2 3h-4v-2c-1 1-3 0-4-1h3l-1-2c-6 0-7-3-12-3l-2-2c-9-1-17-5-26 0l-4-1 1 1c-3 2-9 1-11 3 1 3 7-1 8 0-3 3-10 0-12 5 1 5 4 9 4 13-3-1-3-5-4-7-1 7 7 14 5 23 0 2-3 0-2 4-3-2-1-9-1-12 2 2 0 7 2 8 1-5-2-10-3-13l-1 8-2 1c1 4 3 6 3 11-3-2-2-8-5-10 0-2 2-2 3-2 0-1-1-2 1-2-1-1-4 0-4 1-3-1-2-4-4-5-1 2 2 4 0 6-2 0-2-2-3-4l2 2-1-9-1 2c-1-5 3-5 2-8h3l-1 6c-2 0 0-2-1-4-2 2 0 5-1 8l8-4c-1-3-4-5-1-8l-2-3c-2 0-1 2-3 1 1-2-2 0-1-2 2-2 3-2 4-5 2 0 2 1 3 2 1-1 2-3 0-4 2-1 4-2 3-5-2 1-2 4-4 6l-4-1c-2 2-1 7-5 7-1-4 2-4 3-6-5-1-5 5-4 8-3-2-5 0-4 3-2-1-3 3-5 3 0 2 1 1 2 2-2 2-3 11-1 15v-2c4 8 6 19 6 28 1 1 1-1 3-1-2 1-1 3-1 5l-2-2v3-1c1-2 1 2 2 2l1-2c1 2 1 6 5 6 0-2 0-2 3-3l-1-2c-2-1-1 2-3 2l-2-2c2 0 3-2 4-4-3-1-3 1-2 3-2-1-1-2-1-5l5-1v-10c2 2 3 7 2 10 3 1 3-4 4-6l1 2c2 0 1-2 2-4 0-2-2 0-3 0-2-1-1-3-4-1 1-1 1-3 3-3s0 3 2 3c1-2 3-2 3-5 0-2-3 1-5-1 0-2 2-1 2-3l3 2c5-3 8-4 8-11-1-4-2-8-4-10-2-3-8-6-9-11 3 1 3 5 6 6 1 0-2-1-1-3 2 1 2 4 4 6l4 2 2 2c-2 0-3-1-3-2l3 13 2 1c1-3-3-1-2-3 4 0 5 4 7 7l8 7v2l4 2 3 9c-1-12-7-24-18-28 0-2-2-2-3-3 1-2 4 2 3-1l4 4c-2-8-8-9-14-13l1-2 9 7c0-3-3-3-3-5 4 1 5 6 8 11l10 11c1 5 6 9 4 15 1 2 2-1 2 0 1 2-1 4-1 6v10l2-3 2-3c1-3 0-6 2-8 1-2 3-3 3-7 4 3-2 5-3 8 0 4 0 9-3 9l-2 6c1 4 2 7 5 11s7 7 4 11c3 7 7 15 12 21 1 9 4 14 6 23v5c2 7 6 10 7 18 1 5 2 9 0 15-2-1 0-3 0-5l-2-13c-1-6-5-9-7-16l-4-20c-4 12 0 26-2 41 3 2 10 0 13 2 0 9-6 13-14 13-2 1-2 2-6 2v5h2l1-4c2 0 0 2 1 3 2 1 2-2 2 0 2 0 2-2 2-5l8 2c-2 0-3 2-5 1-1 4-8 5-11 4-2-1-1-4 0-5 0-2-3-1-3-3-1-1-1 1-2 1 2 8 2 19-4 22 0-10-7-13-11-19-4 3-5 10-8 14l6 10c5 2 7 8 12 10 3 1 6-2 7 1-2-1-4 0-5 2l-7-4c-2-3-3-6-7-7l-7-9-2-3 4-5v-2l3-3c0-5-3-6-5-7 0-2 1 0 2 0-1-3-4-3-5-6 1-1 4 0 3 3h4l1 5c5-5 8-9 8-17 0-2 3-2 3-4 2 3-3 4-2 6 2 4 0 9-1 13-3-2 1-6 1-8-3 2-3 5-3 10 1 0 0-2 2-2-2 2 1 2 0 4h1c1 6 7 7 8 14l2-7-1-4c0-6-4-11-5-14v-6c0-3 2 1 4 0 0-3-2-2-2-4 4-1 3 4 2 6 0 2 3 3 1 5l8 4c2-1 4-1 4-3l4 2c3-1 6-2 7-5l-3-3s-2 0-2 2c-1-1 1-3 2-3l3 1 1-2c-4-2-12 1-14-3l1 3-4 4-1-2c3-1 0-5 3-6-4-2-8-4-14-4 1-3 8 0 10 1l5 1c0 2 1 3 2 3v-20c0-2-1 0-2 0 2-7 2-15 5-22l-2-4v7c-4 3-7 6-9 10l3 6c-2 6 1 12 1 19-3 0-1-3-1-5l-3-7c0-4 1-8-1-12l-3 2c4 8-6 12-6 21l-6 5 1-3c-6 1-10-2-15-1l-11 1-9 1-4 3c-7 4-14 8-20 14-3 4-6 9-12 12-5 7-10 18-8 31l2 5c4 2 5 9 9 8 1-2-4-3-4-6h4c1 3 2 5 4 6 1 1 4 1 3 2h3c2-1 1 1 2 1 15 0 26-20 42-8 0-3-2-4-4-5 2-2 3 2 5 2 5-1 8 2 13 4l-3 3 3 1c-7 3-17 1-24 2-2 0 0 0 0 2-3-2-6 0-10 0l-2-5c-6-1-2 2-5 3 0 2 3-1 3 1-1 3-3 0-5 1-5 0-10 3-15 2-5 0-10-1-13-5-3 1-5-2-7-1l-1-4h3c0-1-1-2-3-2l1-1c-4-8-3-23 1-30H0c1-3 4-1 6-1 7-9 16-15 22-24v-22c-1-2-5-1-8-1-5-3-13-2-20-3 0-2 3 0 4 0l18 1c4 1 8 2 10-2-10-1-19-1-28-3-1-6 5-5 10-4h22c-2 2-6-1-8 1h21l-2 7c-2-1-1-4-2-5h-2v2c-2 0-1-1-1-3-4 0-5 2-6 3-3 0 1-2 1-3-4 0-14-1-18 1-3 0 1-1 1-2-1-1-3 2-4 2 8 3 20 3 30 4l-4 1c-1 2 1 3 1 3l-1 4 1 2-1 2v7l7-5c-1-2 1-8-3-8l1-3-3 1c0-1 3-3 5-3l-1 2c5-1 8-5 11-9l-2-1c-2 3-4 6-8 7 0-2 1-1 3-2v-6c-3-1-3 1-5-1-2 0 2 3-1 3s0-2-1-3c0-2-2-2-2-3v6c-2-3-3 0-7 0 3-1 4-3 5-5H27l-2-1c-5-1-10 2-14-1H6l-5 5c-1-4 4-4 5-6 9 1 20 0 27 2-2-6-2-13-7-16v-4c-5 2-9-5-10-6l-3 2-4 1 1-1H6c0-1 4-2 5-1 10-3 11-15 18-21-8 0-15 0-24-2-1 0-4 2-5-1 9 2 22 0 30 2 2-3 5-7 9-8 4-4 9-8 16-9v-12 5c2 0 1-2 1-3 3 2-2 5-1 10 3 0 3-2 5-3v-10c3 1 0 5 1 8 3-1 4-2 4-5 1-1 0 2 1 3 2 1 12-2 14-2v-9c-1-4-6-5-9-8 2 5 1 11 1 17-3-1-1-6-1-11 0-1-2-5 0-7l-5-7c-4-1-3 2-6 4-2 2-7 2-5 7l-2 1c1 5-3 9-2 15l1 2c-1 5-3 7-10 7l1 1c-4 2-8-4-11-6l-3-4c2-3 2-7-1-9 1-5 2-11-2-13 0-5-2-6-4-8l2-1c-1-2-3-1-3-3s1 0 2 0c0-1-1-2-3-2v-3c3 0 2 2 3 3 2-2 1-7-1-9v5c-2 0-2-3-3-4l2-7c-2-2-6-4-7-8 1 0 3-1 3 1 2-1 5 0 7 1 4-3 9-7 15-5 5-1 6-5 8-8 2 0 2 1 3 2v5c3-3 8-1 13-2l5-2c7-1 15 2 23 3 4 3 13 3 17 8h2c2 3 8 3 9 7l12 4 9 5c5 3 6 7 13 8l8 1c11-2 23-7 36-8h9c8 0 15 6 25 5 6 0 11-4 15-3l13 1c13 2 17 13 16 29 0 5-2 10-4 13l-5 5c-1 2-1 4-5 4-4-7-1-19-9-23 8 15 1 32-6 42 4 8 3 21-6 23 1 1 1 5-1 5-2-1 1-2 0-4-5 0-8 3-11 6-2-3-5 0-8-2l-1 1c-1-1-4-1-4-3l-3 6-2 4c0-4 3-7 4-11zm-83 82 14 1 4-6c-2 0-4 0-2 1-2 0-3-2-3 0-1-1-6-3-4-1-6 0-8-3-11 1 2 4-5 8-4 12 2 0 2-4 4-5 2 0 4-2 6 0l-5 1-1 3c7 0 13 5 11 10 3 1 3-1 4-1v2l4 1c0-2 2-1 2-2-2 0-6-6-7-3l-3-6 2 2c8-10 16-21 23-33-1-1-1 1-3 1l-14 20-4 5v-2c-4 2-11 0-16 0l5-5-2 4zm-9-141c2-3-1-2 0 0zm-62 80s1 2-1 3v-3l-11 7 2 10h3c0-5-1-11 2-12-1 2 0 1 1 2 0 2-2 5-1 8l-1 2h8c0-4-4-6-2-9 1 1 1 5 2 4-1-2-1-6 1-8 0 2-2 6 1 8l2-9c-4 1-5-3-6-3zm-8 0c3-2 3-5 4-9-2 0-2 2-3 1-1 3 0 4 1 6l-2 2zm1-143c1 1 3 0 3-1-1-1-2 0-3 1zM23 99l6-7 2 1c0-2 2-3 3-5-7-1-10 6-11 11zm-1-3c2-3 0-6-3-5 0 3 2 3 3 5zm23 14c-2-4-7 3-3 3-2-2 3-4 3-3zm138 6c-3 0-1 2 0 0zm-6 5 1-1c-1 0-4 1-1 1zm-2 4h1l1-3h-2c-1 1-2 3 0 3zm72 6c-1-1-1-3-3-3 0 2 1 3 3 4zm-29 49c-1 0-3-1-3-3-6-1-11 0-15-4-6 0-11 4-18 4-3 1-3 5-4 9 2 1 1-2 3-2-2 6-11 6-10 15h3c3-8 10 1 15-1 4 4 10 8 9 16 9-7-6-13-4-18l5 6c1-4-2-7-2-8 4 2 2 9 5 12 1 8-4 11-4 19h5c2-1 1-5 2-6l1 1c1-2 2-3 1-5 3-2 3-5 1-8l1 1c1-4-3-4-1-8l-4-8v-1c0-1-2-2 0-3 3 2 2 7 4 8v-5h3c0-2-2-5 0-6l1 2c1-2 4-4 3-5 0 0 3 1 3-2zm-27 23-1-3c-7 1-9-3-16-2l-5 4v3c-1-1 1-2-1-2-2 6-5 10-4 17 3 0 3 5 6 4-2-5 1-10 0-13l4-2c0-2-2-2-1-3 1 1 4 0 4-1-1-1-2-1-2-3l5 2c3-1 7 3 11 1 0 1 2 0 2 2l-5 1c2 2 2 6 5 7v-3c1 4-1 7 3 8 1-6 0-13-4-16l2 1c0-1-2-3-3-2 1 0 0 0 0 0zm37-7 5-2c0 2-2 1-1 3h6c0-2 2-2 3-3v-7c-1-1-4-1-4-3 3 1 8 3 7 6l-2-2c-1 3 0 9 1 11 0-2 1 1 2 0l1-3c0-1-2 0-2-2 2-4 1-13-5-12 0 2 2 1 2 3-1-3-7-1-6-4-1 0-2 2-2 0 3-2 8-2 11 0 3-5 7-11 9-17l1-5c1-1-1-1-1-1l1-1-1-2v-6h-2c-1-5-3-12-7-12l2 13c1 10-5 18-9 25 1 1 3 2 2 3l-4-2c-3 0-6 2-8 0-5 3-7 8-13 9-1 2-3 3-2 7-4 1-3 7-3 11 2 1 2 3 4 2 0-1 0-4 2-6 1 1 3-4 2-5h-2l1-1c4 1 5-3 8-2 0-2 1-2 2-2 0 1-2 2 0 2l2-1v3l4-1c-1 1-5 3-4 4zm-9 2c-1 1-4 1-4 3s0 6 2 8c3-1 6-2 10-1l1 3 3-2c-1-2-2-7 1-7v3l2 2c2-2-1-6 0-7 2 1 3 5 1 6 3-1 5-1 6-4-3 0-1-1-1-2-3-2-8-2-11-1l-1-1s0 2-2 1c1-1 2-6-1-6-1 1 1 3-2 3l1-3c-2 0-2 3-3 3l-2-1c0-1 3-2 1-2-1 2-2 3-1 5zM95 217c-2 1-5 2-3 4 5 2 8-5 5-8 1 0 2 0 1-1l2-10 2 2c-1 2-3 5-2 7 1 1 3-2 5 0l1-2c-1-4 0-10-3-12l-1 4c0-10-6-14-6-23-3-3-5-9-7-12l-3-4c-2-4 0-10-1-14 0-4-3-7-5-10 0 3 2 6 0 9 3 1 2 3 4 5-3 1-4-3-6-4-4 2-9 5-14 3 3-2 8 0 10-2-4-1-11-1-12 4h3l-2 1 6 2c1 0 1-2 3-2 9-1 14 5 12 14 4 2 4 8 8 12v-2c1 7 6 14 3 21v-7c-1-9-9-15-11-23l-7 8c1 3 2 6 1 9 2 3 3 4 2 9l-3 3-2 13 1 4c0 1-2 3 1 3 1-1-1-4 1-3 1 1 0 5 3 4l-1-21c2 7 1 18 5 21l1-9c0 5-1 11 1 15v-18c-3-1 0 4-2 3 0-2 1-4-1-5l1-2-3-12-1-6c0-3-3-6-2-8l1 2s-2-2 0-3c3 4 4 11 4 17l2 8c2 1 2 5 5 6v2c3-1 1-3 0-5-2-7-1-16-4-23-1-4-6-6-4-10 4 6 7 14 8 23l2 16c-1 0-1 2-3 1l1 8c3-1 2-5 5-7l-1 5zm-50-76s0-3-1-2c0 3 0 3 1 2zm137 4c0-2-1-2-2-3l2 3zm-135 2 1-4c-3 0-4 4-1 4zm-2 2v-4c-2 0-5-3-6 0 4-1 5 1 6 4zm0 4-3 1 3 1v-5 3zm18 2c-8-1-11 3-17 4-3 5-11 8-11 15 2 0 3-2 3-5 9-2 13-10 24-11l2 4c2 2 1 0 3 0 0 3 3 3 4 5l4-4c-4-3-7-6-12-8zm8 2c-1 4 9 8 10 1-2-1-7-3-10-1zm190 3-1-2 1 2zM53 170c3-1 0 7 0 8h2c1-3 3-4 5-6v-13c-2 1-3 2-3 4l-2-1c-2 3-2 6-2 8zm19-1c1 1 0 4 2 4 0-1-1-4 1-3l1 2c2 1 3-4 4-3 0 4-6 3-7 7 7-1 13-13 8-16-1 5-8 4-9 9zm-9 1c3-1 6 1 7-2l-9-5c0 4 1 6 2 7zm-28 35c-1 6 6 7 8 12h1c1 3 4 3 5 5 2-3 4-2 5-4-2-2-4-5-8-6-2-3-5-7-5-12l1-11h-1c0-1 2-1 2-3-1 0-2-1-1-3-2-1-2 3-3 1 1-3 7-2 5-6 2 0 1-4 2-6 2-3 5-4 6-8-7 3-13 7-17 13l-2-1-4 6-3 6v5c3 0 0 3 2 5h-2c2 4 3 9 8 12 1-6-5-8-5-11 1 3 5 3 6 6zm-8-28c-2 7-6 11-10 16 0 1 2 0 1 2 2-2 3 1 6 1v-5h-2c3-2 2-4 4-6l2-3v-3c1-1 3 1 1-2 2 1 5-4 4-6 2 0 3-3 2-4-2 3-4 7-8 10zm35 40c0-1 0-3 2-3l-1 5c2-1 1 1 3 1 1-1 0-3 2-2l-3 5c0 2 3 5 0 6 6 2 10-2 11-8-5-6 0-16-1-22 1-2 4-4 3-6h1c0-6-5-5-6-9l4 2c0-3 0-8-5-8 0 1 1 3-1 2v-10l-3 1-2 3c-1-1-2-4-4-2 0 2 3 1 2 4 3 0 1 1 2 2 2 0 0-2 2-1-1 3 2 3 2 5l-3-2c0 2 3 2 3 4-3-1 1 2-1 3-2-1-1-5-4-6 0 3 0 7-3 7 2 0 0-4 0-4h2c-1-3-3-4-5-6-2 4-7-1-7 5l2-1c0 3-4 2-5 5 3 0 2 2 2 4h10c-1 2 2 3 2 4l-2 4c-2-2-6-1-7-4 0 2 2 4 0 5l-2-8c-8 1-6 18-1 20l1-1-1-1c2-4-1-7-2-12l2 1-2-5c3-1 2 13 8 7l1 7c-1 0-1-2-2-1-3 2-4 9 0 11v-2c2-2 2 2 6 1zm-16-16c0-2 2-5 0-6l-1 4v-3l-2 5c2 1 0 5 2 4-1-1 0-6 1-4zm0 1-1-1 1 1zm5-31-3 1c0 6-2 8 0 12l-1 1c0-2-1-3-2-3l-2 1c0 3 3 3 4 4l-4 5c2 1 0 4 0 5 3 0 1-4 4-5v1c1-3-1-2-2-2 4-4 8-12 6-20zm45 5c1-2 0-3-2-4l2 4zm-35 2h2c1-2-1-2-2-2v2zm96 40c0-2-2-2-4-2l1 4h9l-2-5 5-13h2c1-9 7-13 9-20-8 4-13 10-22 12-2 6 1 10-4 14 1 2 0 5 2 5l1-5c2 2 0 3 1 3l6-9c2 2-4 4-3 8-2 1-4 3-4 5h4c1-1 1-4 2-3-1 2-1 5-3 6zm19-31c1 1 1-2 1-1l-1 1zm-33 4c-1 0-2 0-1-1-2 0-1 2-3 1 1-2-1-2-3-3 0 4 1 4 2 4l4 25c-2 0-1-3-3-2v3c-1-12 0-23-6-30-1 3 0 4 1 5h-2c3 10 2 22 2 33 5-1 0 7 5 7 3-4 1-11 5-15 0-7 2-11 4-15l-3-11c-2 2 2 4-1 6 1-3-2-4-1-7zm6 11c4-1 3-9 8-10h-7l-1 10zm-91-6-2-2c1-1 5 1 4 2 2 1 1-2 0-3h-5c-1 2 2 4 3 3zm117 2 2-2-2 2zm-25 4v4h2l2-5-4 1zm-98 2-1-2 1 2zm1 3-1-2 1 2zm164 37c-3-3-8-4-12-3l-2-2-4-2c-3-1-5-6-9-6l-4-6c-2-1-5-1-5-4 2 0 2 1 3 2 1-3-1-4 1-6 1 0 0 3 2 2h1c2-3 0-6 0-10-2-1-5-1-6-3-6 0-10 6-10 11v7c0 1 3 1 2 2-2 1-3-3-3 0 2 4 4 9 8 12l-3-8 5 8c3 3 8 3 10 6l6 2v-2l11 10c1 0-2-2 0-2 1 2 2 3 4 2v-2l3 1c2-1-2-3 0-4 1 1 3 4 4 2-2-2-3-6-6-8 2-1 3 2 4 1zm-70-25h-2c-3 6-3 17 4 20 0-3 3-6 2-7l-3 4-1-3c2-2 3-4 5-4l1 2c-2 5-4 10-8 13l-4-3c0-2-2-2 0-4l-2-1c0 4 1 6 4 8-1 2 1 2 2 2 4-3 8-7 9-13 3-2 5-5 6-8 1-1 3-5 1-4-3 0-3 8-8 8 2-1 3-5 4-7l-10 5-1-2 8-2-3-6c-1-4 0-9-4-10-1 3-2 8 0 12zm64-11c0 2-1-4 0 0zm10 2h2v-1h-2v1zm3 0 2-1-2 1zm-191 3c0 3 2 4 1 6h8l-3-4c-1-2-6-5-5-3 1-1 1 2-1 1zm68 0 2-2c-2 0-2 1-2 2zm85 9c1 4 6 8 10 4 0-4-4-5-4-10h-1c0 4 0 7-5 6zm33 25-2-2c0 2 2 6 4 4 1-2-1 0-1-1 2 0 3-2 4-3-3-1-3 2-5 2zm13 17c2 1 2 3 5 3 0-9-5-15-9-18 0-3-4-2-3-6-2-3-6-4-6-8 1-3 10-9 11-12-1-4-5-6-9-7-1 1-1 4-3 2l-6 11c1 2 3-2 3-1-2 3-4 6-5 11 4 1 7 2 8 6 2 1 2 0 3-1 1-2-2-3-1-4 1 3 4 4 4 7l-4 4c3 1 4-3 6-2-1 2-3 3-2 5-3-1-8-2-10 0v7c-2 2-5 1-9 0 0 5 2 6 3 8l2-4c1 1 2-2 3-1l4 3c1-3-3-4-1-6l10 7-1-11h3c-3 2-1 10 3 9l-4-6 4 5 1-1zm-25 11c-1-1-1-5-3-5-3 4-2 12-2 17 2-2 7-6 10-6-1 2-4 2-6 3 0 3-2 4-5 5-2 9 7 9 7 14-2 0-1-2-3-2 0 3 2 5 0 8 1 2 4 0 3 3l10-2c2-3 4-5 7-6 0-3-2-5-3-7h-3l5-7c-2 0-1-2-1-3v-19l-14-1-2 8zM68 231c-2 4-2 10-4 13 8-1 17 2 23 0v-6c-2 0-1 2-2 2 0-1 0-3-1-2-2 1-1 7-4 6 3-5 1-13 3-17l2-6h-5c-1 0-2-3-4-2 4 6-3 14-8 12zm-10-9h2c0-1 1-3-1-3l-1 3zm4 6-1-8c0 3-1 7 1 8zm144-2c0 3 3 4 5 5-1-4 3-7 2-11-2 3-3 6-7 6zm-142 1c0-2 1-3-1-4l1 4zm-58-2h3c-1 1 1 0 1 1H5c-1 2 13 2 8 1l-2-1c3 1 4 1 5-1-1 0-4 1-4-1-2 0-5-1-6 1zm84 1 2 5c2-2 2-5 1-7l-3 2zm-6 9c1 1 2-1 2 1l-2 1 4-1-1-1c2 1 0-2 1-2l2 1-1-8c-6 0-4 4-5 9zm146-9c-4 2-6 6-10 9l12 16c3-3 2-8 4-11-2 0-3-1-3-3 2 1 3 1 4-1l-1-1c3 0-1-6-1-9h-3c0 4 0 6 2 9-3-1-1 0-2 1-2-1-1-7-2-10zm-33 0c-1 3-3 2-4 5h4l-2 1 5 1h-3c3 3 6 6 12 6 0-2-1-2-2-3 2 0 3-1 3-4-4-2-8-2-13-2l6-2-6-2zm-27 2-2-1c-1 2 2 2 2 1zm-141 7 1 23c3-4 8-5 11-8v-18c-6-2-9 0-12 3zm116 8-3-10c0 5 0 9 3 10zm2-2c1-2-2-3-3-4l3 4zm64 19c-4-3-8-6-10-11-3 1-6-5-8-1 0 1 1-2 1 0 0 5 2 8 5 10 1-3-3-5-2-7 2 3 3 7 6 8 2-3 6 3 8 1zm-19-10h1v-1h-1v1zm18 8v-3h-2c0 2 1 2 2 3zm2 1 1-3-2-1 1 4zm15 11c-1 1-2-2-2 0v10c-2 0 0-2-1-2-1 3-1 8 2 10l-1-5c6-2 1-11 4-15h-2v2zm-56 3c-1 0-2-2-3 0h3zm-61 8c5-1 9 0 12-2l-7-5-5 7zm53-6c-1-1-3 1-3 3 1 2 4 8 6 5-1 3 1 5 2 9 5-4 2-11 4-17h-4l2 1c-1 2 1 5-2 7v-7c-3-2-2 5-4 7 0-1 1-9-1-5v-3zm2 15c-3-3-3-9-8-9-3 5-6 10-10 13-1 2 2 2 0 3l-2 1 20-1c-1-3 2-2 1-4-2-1-7 3-8 0 4-1 8-1 9-3-2-2-3-7-5-6 1 1 4 4 3 6zm34 8c-2 3-6 3-6 8h11c0-6-2-8-5-12l1-12c-2 5-2 12-1 16zm-19-15-20 20c-2 2-6 3-6 6 4 0 6-3 8-5 7-6 14-12 20-20l-2-1zm46 8c-3-1-2 1-2 3l2-3c0-1-1-3-1-1l1 1zm-110 9c0-3 4-2 6-2 0-4-9-1-6 2zm7-2c-1 2-1 9-5 7 2 4 6-2 6-4 6-1 7-2 11-1 0-2-2-2-4-3l-8 1zm27 2c0 2 3 1 3 5-2 0-2-4-4-4l1-1c-2-1-6-1-6 1h3c0 2 4 3 4 6-5 5-12-1-16-1 1 5 9 5 16 4 2-4 9-8 11-12-3 2-8 0-12 2zm-33 3h3l1-3c-2-3-7 1-4 3zm18 5c-3-2-1-6 0-8-4 1-1 2-4 5 1 0 3 4 4 3zm4-3-1-4h-3c1 2 1 4 4 4zm-13-1c2 2 2 6 5 6h3c-1 0 3 2 3 0-5-1-8-3-9-8h-2c2 1 0 1 0 2zm32 5c2 1 4 0 5-1l1 3c0-2 2-6 1-8l-7 6zm75-1c-4-4-10-3-11 2 4 3 16 5 19 0-2-2-6 0-9 0l1-2zm-112 0c2 0 2-1 2-2l-2 2zm79 1c-2-2-3 0-6-1-2 1 2 2 0 4 3 2 8 2 12 1-3 0-4-3-3-6l-3 2zm-38 2h-7c2 0 6 2 7 0zm3 3h1v-2h-1v2zm-2-2-3 1h3zM53 322c3 1 3-2 6-2l7-1-1-1c4 2 10 3 13-1 0 0 2 2 2 0-2 0 0-1 0-1-3-1-5-3-10-2l-1 2c-2-1-5-1-7-3-2 1-6-1-7 1 2 1 7-1 7 1l-6 2c-1-2-4-2-7-2 0 3 0 5 2 5 1-1-2-2 0-3l2 5zm-40-7c1 3 1-2 0 0zm151 3h2v-2h-2v2zM5 319h1c1-1-1-2-1-1v1zm18 5c-2-1-5-3-7-2 2 1 5 3 7 2zm77-61c-1 2 2 2 2 0h-2zm-21 4c1 0 2 0 2-2-1 0-2 0-2 2zm46-186v1c-2 1 1-1 0-1zm57 1c2-1 0 2 2 1 0 0-2 2 0 2-1 1-2-1-2-3z"/><path d="M73 96v12c-3-3-2-10 0-12zm25 2c2-2 4-1 6-1 1 0-4 2-6 1zm57 2c1-2 2 0 3 0-1 2-1-1-3 0zm5 0c1-1 4 2 6 2-3 2-5-2-6-2zm-51 0c-3 3-6 6-11 8l11-8zm-11 2c2-1 0 1-1 2-2 0 1-1 1-2zm11 20c1-3 4-6 8-8 1 0 3 0 4-2v-2c1 0 4 0 3-2l6 1-2 2h2c-1 1-3-1-4-1-3 1-6 3-7 6-6 0-7 5-10 6zm-53-11h-2l2-1v1zm51 2c-1 3-6 6-8 8 1-3 5-5 8-8zm-82 1c1-2 1 2 2 2-1 1-1-2-2-2zm67 6-3 1c1-2 0-6 3-7v3c0 1-2 0 0 3zm75-2c1 0-1 2-3 2l3-2zm-13 11c-1 2-2 3-4 3v4h-2l2-2-1-1c1-2 2-3 5-4zm-15 1c-2 3-7 5-5 8-3 0-1-1-1-2 2-2 2-5 6-6zm-103 2c1-2 2 0 3 1-1 1-2-2-3-1zm199 0 2 4-2-4zm-12 3c2-2 4 1 4 3 2 0-1-2 1-2 5 3 5 12 6 18-8-3-2-15-11-19zm-53 3v8c-3-1 0-5 0-8zm49-1 2 1c1 1-3 1-2-1zm20 9c5 0-3 3 0 0zm-88 11c-3-3-1-7 3-7 0 3-3 1-4 4 2 0 1 0 1 3zm-55-5c1 0-2 2-1 4-2-1 0-3 1-4zm102 1v1-1zm-16 2c1-3 3-1 0 0zm-32 3c1 8 6 13 14 16l-1 3v-2l-7-4c-3-4-8-8-6-13zm66 3 4 2 1-1c2-1 2 2 4 1-1 4-3-3-4 2l-5-4zm17 5v-2l2 2c1 0 1-2 2-1v-3c2 0 2 2 2 3-1 0-4 1-2 2-1 1-2-2-4-1zm-86 0 6 7c-3-1-6-4-6-7zm141 26h-4c-2 1 1 2 1 3-3-4-12-4-15 1h2c1 1-2 2-2 4 1 6 2 12 9 12-1-2-5-2-5-5 1 2 8 3 5 8-3-1-4-3-7-2v-2c-4 2-6-3-7 0-6-3-15-7-12-17l2 5-1-1c1 2 2 1 0 4h2c2 0 0-1 0-2 4 2 4 7 8 9 0-3-4-7-5-11l2 2v-5c3 1 1 5 2 7 1 4 4 6 6 8 1-1-1-3-2-3 2-2 3 3 5 3-4-5-4-15 0-18-8-1-4 9-5 12-4-3-1-10 1-13l-6 3c-1-1 3-2 3-3 1-5-3-5-4-7-5-1-8 2-9 6l1 2v2c-5-4 0-13 7-11-1-3-6-5-3-8h1c3 2 4 7 8 9l1-1c-2-4-6-6-6-12l3-1c0 5 3 7 4 10l-4-8c-2 4 2 5 3 8 2 1 6 5 9 1-1-1-1 0-1 1-3-5-8-7-9-13 3 1 6 4 8 7 2 2 2 6 5 8l4 5c3 0 6 0 5 3zm-11-8c1 2 2 4 4 4l-4-4zm-12 1c2 8 14 5 21 6-2-3-11-1-14-3 3-1 5 2 7 0-3-3-8 1-10-1 0-4 8 0 8-2-1-3-9-1-12 0zm8-8c-1 0-2-3-3-1 1-1 2 3 3 1zm-12 4c1 1 2 4 4 3l-7-8c0 2 2 4 3 5zm14-2c-1 1-2-3-2-1 1 0 1 3 2 1zm-139-5c0-2 2 4 3 4l4 5 6 2c2 1 5-1 5 2-9 0-15-5-18-13zm153 2c-2 2-9-1-10 2-1-2 8-2 10-2zm-85 8c0-2 2-3 3-4 2 1 4 2 4 4-1-3-5-2-7 0z"/><path d="m285 184-3 1c1-3 6 0 4 2l-1-3zm-210 3c-2 1 0 1 1 2 0 0-2 3 1 2l-4 1c1 1 2 1 2 3l-4 2-1-1 3-1-1-4 2-1-1-2 2-1zm82 1c1 2-4 1-5 2-1-1 4-1 5-2zm98 0 2 3-3 2 1-5zm-185 6h-2s0-2 1-1c2-4 0 0 1 1zm99-3c2 1-1 2-1 4-1-1 1-3 1-4zm-148 1-1 1c-2 0 1-1 1-1zm107 2c-1 3 2 5-1 6 3-1-3-5 1-6zm155 2c1 3-4-2-6 0l7 3c2 0 5-2 5 1l-13-2c-3 1-2 4-2 7-4-3 0-8 2-11l7 2zm-141 7 2 5c-2-2-1-3-2-5zm20 6c1 1-1 1-1 2l1-2zm-107 2c1-2 1 2 1 2l-1-1v1c-2-1 1-2 0-2zm29 4 1 2c-1 1-2-1-1-2zm52 4 3 3c-2 0-2-2-3-3zm114 7c0-3 0 3 0 0zm39 2c-1 2-4 2-6 3l-6 2 12-5zm-13 5-2 1c-2 1 1-2 2-1zm-9 3c-1 2-4 3-6 3l6-3z"/><path d="m272 241-5 1-5 4c1 6 12 6 15 4-5-1-8 0-12-2l1-4c5-1 10-1 14 1l2-1-6-1h7c1 2 0 2-1 3-5 1-11-2-16 0 4 5 10 0 13 4l-3 2-14-1-1-3c-1 0-3 3-1 2l-4 2c2-3-3-1-6-2l2 1-4 1c2-3-1-4-3-6l-4 2c2 1 3 3 7 2l-3 2c3 4 12 2 17 2-2 2-6 1-9 1 0 0 1 2-2 2v3l-1-4h2c0-2-2 0-3 0l-9-4v4c-3-2-1-6-2-8l7-4c0-3 2-6 5-6-10 6 5 13 10 10-3-2-12-1-11-6 2 0 1 2 2 2l3-1-4-2c1-2 5 0 4 1 6-1 7 3 11 1l-11-5h-2l8 1 4 2c4 1 7-2 12-3 1 1-7 2-5 3zm-14 5 3 1c0-3-3-3-4-4l1 3zm-211-6c0-2 2 4 0 0zm-9 3c0 2-2 2-2 5-1-1-2-2-1 1-2 0-2-2-1-3 2 2 2-3 4-3zm122 11v2c-2 0 0-4 1-4 0-3-1-7 2-8-1 3-2 8-1 12-2 2 0-2-2-2zm43 3 1-1 2 2-3-1zm-105-6c-1-2 1-3 0 0zm-86-1c1-2 1 1 2 2-1 1-1-2-2-2zm53 1c3-1 5 3 6 6 0 1 3 1 3 3-5-1-4-7-9-9zm-23 1c1 1-2 2-2 3l2-3zm-28 1v2l-2 1c-1-1 3-1 2-3z"/><path d="m242 256 1 1c1 1 0-2 2-1v2h-2l-1-2z"/><path d="M259 297c2-2 3-7 1-10 0 0-1 3-1 1-1 2-2 5-1 6-3 8-4 22-6 33 1 2 4 2 6 2v-22l-2-1 4-1-2-7c2 0 2 3 3 4l1-2c4 2 4-4 6-5 2 1 1 4 1 6 1 9-1 19 1 25-4 0-6 3-10 4l25-2c0 4-6 0-5 3-2 1-2-1-3-1l-2 1-3-1c-7 4-17 3-22 8l-5-2 1-7c-1-2-2 0-3-2l2-24c-1-2-5-4-3-7 2 2 2 5 4 6 3 0 4-1 4 3-2-2-3-2-5-2 0 2 3 1 4 2h-3l-1 13c0 3-2 7 0 9 2 1 1-2 2-3 2 3-3 9 1 11 3-1-1-9 3-10l10-57c-1-1-2 0-1-2-5 3 0 11-5 16-1 13-5 27-7 41 1-19 7-38 9-57h-7v16c-2 0-1-4-1-6v-10l-9-2-1-7c3 1 5 4 8 4h2l4 1c2 1 2 0 4-1 9-1 17-2 28-1 1 0 4-1 5 1-2 2-5 0-8 0l-6-1c-3 0 0 1-1 1l-14 1c1 1 4 0 4 2 10 0 16-1 25 1-1 2-4 1-5 1l-20-1c-3 5-4 13-5 19 0 2 2 2 2 3v12c-1 1-2-2-3-2zm-16-34-2-1c-1 2 2 2 2 1zm2 1h7c1 0 5 2 5 0l-11-1c3 1-2 0-1 1zm15 56-2 1c3 1 0 7 2 8 2-2 6-3 7-7l-1-2 2-22c-3 1-4 4-6 7-1 0-3 1-3 3l2 1-1 8c-1-1 1-5-1-8 0 5-1 8 1 12zm-1 11-7-1c1 3 5 1 7 1z"/><path d="M250 295c-1 2-5 1-4 5 2 0 2-3 4-2l-3 3c-4-1-1-6 3-6zM49 261c2-1 1 5 4 5v-9c4 1-1 9 4 10-2 3 3 4 2 6-3-2-3-5-7-5-2 1-2 3-3 5-2 0-3-1-3-3h1c0-1 2 0 1 1 3-1 0-2 0-3l3-1c-2-2-1-5-2-6z"/><path d="M45 272c1-1 2 1 2 2h-2c0-1 2-2 0-2zm-27-14c0 2-1-2 1-1 0 5-10 8-17 7l-2-2c0-2 3 0 4 0l1-1c4 2 6-3 9-2 7-6 4-19-5-20H0c6-4 15-1 18 4s2 11 0 15zm-8 5 3-2c-2 0-5 1-3 2zm51-4c3 2 7 3 8 6-1 1-3-2-4-3-2 0-3-1-4-3zm170 0c-1-2 0 2 2 2l-1 1-1-3zm-104 34-1 2c-1 0 0-3 1-2zm-38-26c3 0 1 3 1 5l-2-2 1 1c2-1-1-3 0-4zm-62 2h1v2l-1-1v-1zm57 33c0 3-2 0-3 1l7 6 3-1c2 3 5 1 7 0v-2c0-2-2-2-4-1 4-4 9 2 7 6l-17-1c2-2-1-3-3-5h-3c-7-5-11-13-19-16-3 1-5 3-9 2l3 11c5 1 7 0 11-1-3-3-6-6-7-11 4 3 7 6 9 11 2 2 5 1 7 2-2 3-5 1-8 0H53c-2 1 0 6-3 5 2 2 6-2 9 0-7 1-12 3-17 6l6-5v-1l3-2c1-4-1-8-2-13-1 0 0 3-2 2l-2-8-6 1c-8-3-8 6-15 6l2-1h-5v-2c1-2 2 1 3 1 5-2 5-5 10-6h11c1 1 3 1 3 3 4 0 7-1 8-4-1-4 4-8 0-12 2 1 4 1 4 3 1 0-1-4 1-3v5h1c1 2 0 7 3 7 2 10 9 13 15 19 0-2-2-2-3-3-1-4-5-5-7-9 5 3 6 10 14 10zm-26-19c1 3 4 6 6 6v-3c-3 0-2-4-4-5 1 2-2 1-2 2z"/><path d="M65 278c-3-2 3-6 0-2v2zm-52 3c-1 2-4 3-3 7l1-1-2 4c-1-3 1-9 4-10zm9 14c1-2 2 1 2 1-2 2 2 2 2 4l-2-1c0 2 2 2 2 3-2-1-3-3-5-1v-3c1 0 1 2 3 1l-2-2c1-1 2-1 0-2zm193 3-2 4c-1-1 0-4 2-4zm-179 2c4 1 2 8-2 8 3-1 3-7 2-8zm185 1c1 2-2 5-4 5 1-2 3-2 4-5zM86 348l-6-2-1-3c2 1 3 3 6 2l3 5-8 4c1 3-1 4-2 3l4-6c3 1 3-1 4-3zm47-3c1 0 11-2 14-1 2 0 0 1 1 1l8-1c-1 2-8 3-10 0-4 1-9 2-13 1zm88-258c6 3 3 14 4 22l-1-4c-2 0 0 3-1 4-2-5 0-18-2-22zM93 160c1 4 2 9 7 9-1 5 3 8 8 7 2 2 5 2 6 6-3 1-4-3-6-4l-8-2c-2-6-9-8-7-16z"/></g></svg>