<svg xmlns="http://www.w3.org/2000/svg" xml:space="preserve" viewBox="0 0 2584 1645"><path fill="#010101" stroke="#010101" stroke-width=".3" d="m1552 22 10 8c-2 11 1 21 4 31-1 8-3 15-6 23l-6-6c3-5 5-11 6-18-4-12-8-24-8-38zm55 3 24 8 4-9c6-3 11 6 16 8l2-8c11-1 20 7 30 10l10-7 15 9 18-7c9 6 19 12 26 21l10-1c13 11 23 25 37 35v3l-6 2 7-1v-7c7 1 11 7 15 12 19 24 23 58 13 87-5-10 1-21 1-32-1-20-7-42-23-56 5 14 13 27 15 42 3 14 1 29-3 43l-17-7 2-24-10-3 2-22c0-8-3-16-6-23-7-4-12-9-16-15l-5 6 1-14-9 3 2-9-7-3c-7-13-17-23-29-29l-18 5-14-8-11 7-23-11-7 9-14-9-4 9-23-6-5 12-18-7-1 12-11-1 4-5c1-4 2-9 1-14l21 8 4-13z"/><path fill="#676767" stroke="#676767" stroke-width=".3" d="M1562 30v-2c5 6 9 15 19 16l-4 5 11 1 1-12 18 7 5-12 23 6 4-9 14 9 7-9 23 11 11-7 14 8 18-5c12 6 22 16 29 29l7 3-2 9 9-3-1 14 5-6c4 6 9 11 16 15 3 7 6 15 6 23l-25-17c2 12 6 23 6 35-10-14-19-29-31-42l19 40-1 5c-8-7-16-14-25-19 3 13 13 26 9 40l-14-22-3-7-11-20 5 43c-9-4-16-10-19-19l-1-9c0-11-1-22-5-32-1 14-1 28-3 41-6-2-12-4-17-8-3-16 3-32 2-48-8 15-8 31-12 46l-17-8c3-15 7-30 7-45-9 11-7 27-13 39-20-14-36-34-55-49 8 22 28 35 44 51l-22 14c10 1 19-4 27-10 18 10 35 23 54 33l2 4-9 3c-15 3-23-11-34-17l8 18c-14-1-28-2-42-1 9 6 19 9 30 11l-3 14c9-10 20-18 35-16l-5 19 15-18c6-3 13 0 19 0-11 14-28 21-42 31-5 11-17 11-27 12l-23-19h-1l6-6 4 4-1-22h-16l-5-13-6 9 1-8 16-8-13-9v-5l-17-14v-6l-9-7 13-5-10-11 6-9c-7-7-15-15-20-23-3-10-6-20-4-31z"/><path fill="#101010" stroke="#101010" stroke-width=".3" d="M1566 61c5 8 13 16 20 23l-6 9 10 11-13 5 9 7v6l17 14v5l13 9-16 8-1 8 6-9 5 13-7 9-12-8 2-15-24-16 7-8c-10-12-20-24-23-39l11 1-1 9c3-3 8-4 12-5l1-2-11 4c0-6-2-11-5-16 3-8 5-15 6-23z"/><path fill="#232323" stroke="#232323" stroke-width=".3" d="M1591 65c19 15 35 35 55 49 6-12 4-28 13-39 0 15-4 30-7 45l17 8c4-15 4-31 12-46 1 16-5 32-2 48 5 4 11 6 17 8 2-13 2-27 3-41 4 10 5 21 5 32-2 8-6 16-10 24-19-10-36-23-54-33-8 6-17 11-27 10l22-14c-16-16-36-29-44-51z"/><path fill="#292929" stroke="#292929" stroke-width="1.3" d="M1806 92c16 14 22 36 23 56 0 11-6 22-1 32 8-8 12-19 23-24 7-5 16-3 24-3 4 31 32 50 61 56 2 18 10 35 20 50 117-14 238 6 341 61l-2-17 53 13c9 112-49 220-134 290-11 10-28 16-30 32-1 18 4 36 13 51 14 20 42 30 65 20 25-12 34-52 13-71-20-16-50 2-53 25-1 11 9 20 19 22 13 2 26-13 19-25-4-6-13-5-20-5 6-5 14-8 21-4 12 9 10 30-2 37-16 10-40 1-44-17-9-37 49-63 71-34 17 22 11 56-10 73a53 53 0 0 1-50 11c-27-8-48-33-53-61l-19 29c6 32 19 63 40 89 5-9 10-20 20-25 19-11 45-3 58 15 15 22 17 52 3 75-4 9-13 14-18 22 13 21 25 44 30 69 14 56 10 116-9 171 26 50 32 109 23 164l54 63c18-5 36-16 54-11 11 3 17 13 20 23 6 18 9 36 12 54-27-4-57-8-75-30-12-12-11-30-23-40-15-16-28-34-45-48l-7 30c12 55 28 114 72 153l6 2-8 4c-18-13-32-33-41-53l-11 19c10 14 30 27 24 47-11 32-42 51-64 76 0-17-2-34 1-50h-2c-2 18-13 40-34 39-9 10-22 26-36 15l2-4 2-3c15 8 22-11 35-16 6-3 15-4 18-11 3-5-3-8-6-12l14-14c13 0 16-14 19-24 2-8 3-18-1-25-6-5-14-5-22-6l-4 16-13-7 3-7c4-6 2-12 0-18l-1-5c8 3 15 7 23 9-4-15-10-30-18-44l-12 6 2-6 11-5c-11-12-20-24-27-38-10 0-17 10-17 20l-6-4c-8-8-16-17-25-24-18 1-38 0-54 11l-3 8c18-1 37-10 55-1-14 2-29 4-42 10l-19 9 2-9-8-2c7-5-1-10-4-14 13-8 26-17 41-18l34-5c7 9 17 16 28 20 9-10 13-25 25-33 8-6 19-10 23-20 5-11 13-22 16-33-2-31-3-62-1-92 0-11 4-24-2-34-11 16-20 35-34 50-20 22-44 41-71 53-19 9-42 7-62 1-8 25-20 47-35 69 1-33-20-67-6-99l-8-15c-16 11-34 22-53 27-5 13-10 25-10 39 0 12-6 23-15 30-16 14-36 22-55 29 13-23 14-51 28-74 8-13 25-5 38-5 4-4 4-12 7-17-26 8-52 0-74-14-15 1-27-14-24-29l9 4c9 3 14 12 17 21 16 9 34 17 53 16 29-1 54-18 75-36-3-11-3-21-3-32l-38 10c-9 4-17 10-27 9-21-1-40-15-55-28 13-8 27-22 44-18 16 6 26 19 36 31l42-10c4-15 11-28 21-40-15-5-22-23-16-38-6-3-13-3-14-10-2-10 6-22 0-32-9-19-5-45 12-59 9-7 21-7 31-9-15-32-21-69-20-104 1-36 9-73 28-104-7-22-12-44-14-67-20 6-41 11-61 13-28 0-52 19-69 39-27 30-21 83 13 105 32 21 84 1 90-37 2-31-34-50-60-44-21 4-28 35-13 49 10 8 29 9 36-4 3-10-4-19-8-27 11 4 22 14 18 26-6 23-41 30-55 10-16-18-12-48 9-59 27-18 62 0 78 24 10 14 9 33 1 47a76 76 0 0 1-74 35c-27-4-54-22-62-50-12-41 8-87 41-113-55-2-109-16-164-22-26 29-51 60-66 96-11 27-18 58-10 87 5 17 13 35 30 45 28 15 63 16 92 1 21-10 36-33 35-57-1-18-13-36-31-41-22-7-47 5-61 23-7 9-13 21-8 32 11 20 44 23 57 3 5-7 6-20-3-25s-19-1-29-1c10-7 23-15 35-7 17 9 15 36 0 46-18 13-45 15-62 1-15-12-15-35-5-50 12-20 36-30 58-34 18-3 38 3 50 17 16 19 17 47 6 68a102 102 0 0 1-178-4 81 81 0 0 1-5-61c12-53 39-101 73-142-38-4-78-2-114 9-38 13-72 34-104 57-5 4-12 7-11 14l-5-2-9-11c-9-3-17-4-25-10-9-6-16-15-27-16l-5-4 9-4c10 7 19 16 31 21 8 3 16 4 25 6 60-51 137-83 216-88 14-1 29 4 43 1 46-41 100-75 159-93 49-15 100-11 151-17 18-31 41-60 58-92 11-24 19-49 27-75 3-8 1-17 0-26-3-14-4-29-6-44-18-10-35 3-52 9-41 17-84 35-115 69 0 15 3 31-4 45-6 10-19 9-29 8 2 16 3 34-6 48-7 16-22 28-40 30-9 16-18 34-36 41-13 4-20-10-24-19a51 51 0 0 1-38 20l-4 7c-4-7-8-13-14-18l-3 25c-1 8-9 14-11 22l-10 5c-14-14 3-34-5-50v-14l-11 10c1-7-2-15-8-18l-19-2c-2 5-4 11-4 16l13 19-17-8v-31c-19 3-33-11-50-12 9 9 22 9 33 14-2 5-6 7-9 11-2-5-5-9-10-10-9-5-17 4-25 7l11-14c-12-9-25 1-37 3 11-12 28-18 44-18v-18l-15 3-3-9-18 5-4-16c-7 3-12 8-16 14l-9 3 9-14-5-8 5-2-5-6 6-2-8-4 12-7c1-13-10-21-17-30-45 28-93 50-140 72l11 16-5 14c0-9-4-18-8-25-3-11-14-13-22-17l-1-3 160-83c8-6 13-14 19-21l-21-17 35-48c-13-5-26-13-33-26 11-6 19-16 28-25-9-7-19-14-24-25-4-10-16-13-23-21l6-2 23 19c10-1 22-1 27-12 14-10 31-17 42-31-6 0-13-3-19 0l-15 18 5-19c-15-2-26 6-35 16l3-14c-11-2-21-5-30-11 14-1 28 0 42 1l-8-18c11 6 19 20 34 17l-30 5c16 6 34 2 50-1 6 3 12 9 19 6l-20-19-1-13c3 9 10 15 19 19l-5-43 11 20c-6 11-2 23 3 33l8 1-8-27 14 22c4-14-6-27-9-40 9 5 17 12 25 19l1-5c3 6 4 12 5 18h8l-1-16c0-12-4-23-6-35l25 17-2 22 10 3-2 24 17 7c4-14 6-29 3-43-2-15-10-28-15-42m-26 67c8 6 16 2 19-6-7 0-15-1-19 6m-57 19c-21 3-37 20-48 36l11 16c-15 10-28 23-40 36 3 14 17 20 28 25-10 15-18 31-26 47 2 9 8 20 20 19 10-7 19-14 26-24 9-1 17-4 26-2l-19 10c-23 16-42 40-41 69-13-9-8-26-4-38l-12 18c4 8 8 17 15 23 4 7 7 14 12 20 9 11 21 19 32 27l16 11c-3 11-9 28 5 34 19 4 38-3 57-3 1 9 2 20 12 23l28 2c7 7 13 14 23 15h6c14-3 23-15 30-26 4 11 10 30 25 21 12-10 20-23 28-36 8-8 20-9 28-15 6-5 8-13 11-19 12-10 4-28 6-41 8 1 17 2 26 0 6-30 7-62-5-90-8-8-19-12-28-20 2-7 6-14 3-21-8-16-21-27-33-40-9-12-11-27-18-39-9-5-18-7-25-13-14-10-23-24-33-38-6 1-14-1-19 5-4 6-6 13-11 19-20-1-42-8-58-22-17 6-36 9-54 11m-69 51c-1 5 6 9 10 6 1-4-6-8-10-6m320 51c4 6 9 11 11 18 0 6-4 10-6 15l31 13 3 19c32-26 73-38 109-59-49-10-99-11-148-6m246 36c5 63 2 126-4 189 29-23 56-48 76-80 7-21 8-44 9-66-26-17-53-32-81-43m-23 92c-13 45-40 83-58 126 19-4 38-8 55-17 6-36 7-73 3-109m14 129c-2 14-5 27-6 41 25-24 47-51 62-83-17 16-35 31-56 42m-402-2c-1 15-8 31-3 45 5-13 10-27 9-41l-6-4m368 17c-13 22-22 45-29 69 10-7 26-12 29-26l12-48-12 5m-55 17c-11 26-22 51-27 79l11-6c4-24 8-49 17-72l-1-1m-199 31c-38 9-76 25-105 53 46 9 92 21 138 22 39-2 78-7 115-19 0-28 4-55 14-80-54 8-108 11-162 24m233 46-10 7 1 11c5-5 7-11 9-18m-67 34c1 20 0 40 9 58l4-9v-55l-13 6m39 53c0 28 1 56 7 84 18 27 48 48 81 49-26-51-62-97-79-152-3 6-9 11-9 19m72 55 16 19c1-8-1-18 6-24 10-10 28-3 32 9 5 17-2 36-17 44l13 19c20-16 31-46 21-71-8-18-29-30-48-24-13 3-20 16-23 28m-104-9a196 196 0 0 0-2 186c9 2 13-11 16-18 9-3 17 3 21 11 7-1 14-3 20-6-21-45-32-94-40-142-2-12-8-22-15-31m121 30 15 20c15-6 23-29 8-40-13-10-21 10-23 20m-77 31c8 38 22 76 40 112 15 4 27 13 37 25l-9 5c6 8 13 16 20 22l-12 11c16 24 34 46 50 71 4 1 2-8 4-10 18-69-13-138-46-197-34 6-62-17-84-39m-51 141c5 7 16 8 24 8 8-5 12-12 16-20 0-7-8-11-12-15-8 10-17 20-28 27m46-8c11 0 22-2 33-4 13 0 23 11 35 10-6-19-29-20-46-24-8 5-18 9-22 18m-82 6c-11 11-13 28-9 43l12-3v4c-9 4-11 15-13 24l5 19 5-5c3 7 2 20 12 19v-10h17l-8-8c2-7 8-13 11-20l-1-1c9-10 24-13 32-24 6-7 12-13 16-21l6 5c10-1 21-4 31 1-11-1-23-1-31 7-7-3-11 4-16 6-13 11-30 25-23 43l-13 1c-3 7-4 13-3 20 1 10-2 20 3 29l6 4 4 14c3 5 13 12 18 5l9-1c7 2 17 2 17-8l4-2c9 3 18 6 27 6 3-5 4-12 3-18l12-6 8 4-12 3c-2 7-2 18-10 21-8 1-16-1-23-2 4 20 3 44-12 59a36 36 0 0 1-41 8c6 10 8 22 7 33 35 9 72-4 97-28 25-23 44-52 56-83-9-19-22-35-31-52l-3 11h-6l-2-18-3 19c-3-12-8-24-14-35 5 5 19 14 18 2 0-13-12-21-20-29l3-1 5 3 3-4 9-10c0-7-5-6-9-5-8-8-17-13-28-15l8 15c-5-3-9-9-16-10h1l-10-1c-3-10-17-4-25-6v2c-13 5-25 10-36 18l-8-16-11 7c-6 3-10 10-17 8 8-8 15-18 17-30-10 1-20 2-28 9m1 103c-2 10 5 17 14 22 5 8 7 25 20 20-4-16-15-30-26-42h-8m3 62 26-11c-5-2-9-6-12-10-8 4-10 13-14 21m32-16c2 2 2 2 0 0m32 7c3 9 3 19 0 28-3-7-3-17-11-22-6-4-15-1-17 6v31c6 10 21 14 31 7 16-11 21-32 18-50h-21m-65 16c-2 8-1 16 0 25 10-10 22-20 26-35l-26 10m29 7c-3 4-2 7 2 8 3-4 3-7-2-8m-7 10-18 19 7 14 17-16-6-17m202 2c-4 24-3 48-1 71 0 6 6 8 9 12 2-28 0-56-8-83m-1 85 4 23 4-13-8-10m-22 47c3 10 5 20 9 29 3-9 8-18 10-28l-5-26c-6 8-10 17-14 25m2 71c3 7 3 16 5 24 4 12 11 22 17 33l-5 11c5 2 9 6 15 6 13-9 17-25 24-39-13-25-24-51-31-77-10 13-15 29-25 42z"/><path fill="#080808" stroke="#080808" stroke-width=".3" d="M1745 97c12 13 21 28 31 42l1 16h-8c-1-6-2-12-5-18l-19-40z"/><path fill="#0A0A0A" stroke="#0A0A0A" stroke-width=".3" d="M1694 153c4-8 8-16 10-24l1 9 1 13 20 19c-7 3-13-3-19-6-16 3-34 7-50 1l30-5 9-3-2-4z"/><path fill="#111" stroke="#111" stroke-width=".3" d="M1733 167c-5-10-9-22-3-33l3 7 8 27-8-1z"/><path fill="#141414" stroke="#141414" stroke-width=".3" d="M1780 159c4-7 12-6 19-6-3 8-11 12-19 6z"/><path fill="#444" stroke="#444" stroke-width="1.3" d="M1723 178c18-2 37-5 54-11 16 14 38 21 58 22 5-6 7-13 11-19 5-6 13-4 19-5 10 14 19 28 33 38 7 6 16 8 25 13 7 12 9 27 18 39 12 13 25 24 33 40 3 7-1 14-3 21 9 8 20 12 28 20 12 28 11 60 5 90-9 2-18 1-26 0-2 13 6 31-6 41l-16-14v-1c8-10 16-21 21-33l2-7 10 7c9-23 15-49 8-74-4-17-28-14-40-9l-7 27-21-13 14-19c-1-10-5-19-9-28l26 3c-10-21-22-41-36-60-6-8-16 1-21 7l-8-13c8-3 16-8 23-13-24-12-42-31-54-54-15 3-26 17-25 33l-16 3a93 93 0 0 0-49-34c-27 5-54 13-77 28-6 3-10 8-12 15l19 1c-12 11-27 23-29 41l-2 19 9 14c15-9 31-19 49-22 29-12 61-9 91-6-4-15-9-29-15-43l10-1 5 7-5-1c7 27 23 50 41 71 12 13 24 27 40 38l2 15c8 5 10 14 11 23l4 5c1 7 3 14 7 20l-2 13h8l-10 7c-4-11-7-23-20-27l-6-18c2-24-15-42-28-59-14-15-29-29-47-36-16-6-32-17-50-15-16 2-30 12-42 22-9-6-19 2-27 6-17 11-33 25-43 44l23-9-10 22 13-14 13-2c-7 10-16 17-26 24-12 1-18-10-20-19 8-16 16-32 26-47-11-5-25-11-28-25 12-13 25-26 40-36l-11-16c11-16 27-33 48-36m-65 90 9 2 4-15c-5 3-15 5-13 13z"/><path fill="#292929" stroke="#292929" stroke-width=".3" d="M1610 170h16l1 22-4-4-2-2-18-7 7-9z"/><path fill="#6B6B6B" stroke="#6B6B6B" stroke-width=".3" d="M1697 203c23-15 50-23 77-28 19 5 37 18 49 34h-4c-12 0-25-2-37-4-27-8-54 1-78 14l-19-1c2-7 6-12 12-15zm142 3c-1-16 10-30 25-33 12 23 30 42 54 54-7 5-15 10-23 13s-17 7-26 5c-10-6-17-15-25-23l-5-16z"/><path fill="#292929" stroke="#292929" stroke-width="1.3" d="M1090 238c14-20 37-37 63-38 20-2 40 8 55 21 19 16 33 38 37 63 4 24-7 48-23 65-11 12-29 21-46 17-28-9-46-47-28-73 7-12 27-14 35-2 7 10-2 28-15 23 3-5 11-9 7-16-4-4-13-3-16 2-17 24 17 60 41 45 23-12 35-41 27-66-7-24-23-45-46-56s-52-3-70 15c-36 39-46 103-18 149 35 58 98 91 160 112-2 5-5 11-6 17l-29-11-26-11-3 16 7 3 7-10 9 12-4 7 36 6c0 9 1 18 5 27-22 7-43 13-63 25 1 56 36 105 76 143l32 29 11-15c-7-17-13-34-18-52-4-14-6-29-14-41-22 5-22 30-37 41-1-21 12-40 29-52-8-23 1-46 8-67l25 6 4 20c4 9 14 12 23 16-6 11-14 21-22 30 32 26 32 74 15 108l6 15c2-6 6-12 11-16l4 6-5 11 5 5 5 5c-7 5-18 9-20 19 1 9 7 16 7 25l-1 13c3 5 10 8 16 11-3 13-12 27-4 40 9 4 19 3 28 5 5 15 19 27 32 36l-6 5-23-16-8-19c-11 1-25 0-31-10-4-13 1-26 4-38-20-5-11-27-18-40-4-7-1-14 0-21-6-3-11-7-17-8-9-2-15 6-22 9a99 99 0 0 1-70 8c-43-3-82-21-120-40l47-15c-16-29-15-65-5-96-20 1-37-12-52-25-15-14-28-30-42-46l21-1c22 7 45 0 68 3 10 2 18 6 27 11 9-7 19-13 26-22-34 0-69 0-104-3l5-17c33 2 67 5 100 2l2-7c-69-33-137-69-206-102-67-32-137-61-212-63-46-1-91 6-135 16-28 8-57 15-80 33-47 36-72 95-72 153 0 37 13 75 41 100 27 24 64 32 100 29 28-3 56-14 74-36 22-26 27-62 19-93-5-20-18-38-38-44-23-7-49-5-68 9-17 12-21 37-10 55 7 11 25 17 35 7 8-7 3-18 3-27 6 1 13 4 15 11 3 16-8 32-23 37-13 3-27-2-36-12-20-22-19-62 5-81s57-22 85-12c22 7 38 27 44 49 12 42 3 91-30 120-37 33-92 40-138 25-39-13-69-45-82-82-22-58-11-125 23-176-53 31-103 67-158 93-43 20-89 36-136 38-34 2-69-6-100-20-22-10-44-24-57-45a77 77 0 0 1-6-69c2-5 13-2 12 4-2 12-6 24-3 36 5 26 26 44 48 56 36 19 79 27 121 22 61-7 117-34 169-65 30-18 60-36 89-56-68 25-137 55-211 54-64-1-123-33-167-77-23-24-42-53-47-85-5-35 5-73 30-98 15-16 38-27 60-23 24 3 44 20 56 40 4 5-3 14-9 10-9-10-17-23-30-29-15-9-35-10-50-1a92 92 0 0 0-43 70c-5 30 7 60 24 84 22 30 53 54 86 71 26 15 56 21 86 22 61 1 119-18 174-40 39-16 77-35 115-52a504 504 0 0 1 229-42c75 4 145 30 210 64 64 33 124 73 190 100 2-8 4-15 8-22-51-26-100-64-120-119-16-45-5-96 22-134m100 301c1 12 11-5 0 0m-23 92c7 4 17 4 25 6-7-15-11-30-12-46-13 9-18 25-13 40m-14 7c-9 30-8 63 7 91 18-4 37-8 55 0s28 26 43 38c9 1 22 3 27-7-40-29-71-68-90-113-14-3-27-9-42-9m134 10c-2 11 4 22 7 33 5 14 7 30 16 42 5-18 6-39-3-56-4-8-10-17-20-19m23 108c-6 3 1 13 6 12 2-4 0-12-6-12m16 11c-2 4 5 9 9 6 2-5-5-9-9-6m-74 6c1 12 11-5 0 0z"/><path fill="#212121" stroke="#212121" stroke-width=".3" d="M1704 219c24-13 51-22 78-14-28 8-61 12-83 34-8 6-17 13-24 21 2-18 17-30 29-41z"/><path fill="#444" stroke="#444" stroke-width=".3" d="M1782 205c12 2 25 4 37 4-27 0-52 11-76 22-15 1-29 7-44 8 22-22 55-26 83-34z"/><path fill="#202020" stroke="#202020" stroke-width=".3" d="m1823 209 16-3 5 16a252 252 0 0 0-37 0c-32 1-65 12-88 35 2-13 14-20 24-26 24-11 49-22 76-22h4z"/><path fill="#0D0D0D" stroke="#0D0D0D" stroke-width=".3" d="m1817 221 27 1c8 8 15 17 25 23 9 2 18-2 26-5l8 13-12 14c-20-18-45-27-69-39l-5-7z"/><path fill="#6B6B6B" stroke="#6B6B6B" stroke-width="1.3" d="M1719 257c23-23 56-34 88-35 6 14 11 28 15 43-30-3-62-6-91 6l1-4c-20 0-42-1-59 12l2-19c7-8 16-15 24-21 15-1 29-7 44-8-10 6-22 13-24 26m34-15c18 8 38 17 58 14-1-7-4-14-9-18-17-4-33 2-49 4z"/><path fill="#565656" stroke="#565656" stroke-width=".3" d="M1654 229c4-2 11 2 10 6-4 3-11-1-10-6z"/><path fill="#9D9D9D" stroke="#9D9D9D" stroke-width=".3" d="m1817 227 5 1c24 12 49 21 69 39 12 12 21 26 32 38 7 11 15 25 6 37-20-13-31-37-53-47-6-3-13-1-18 3-18-21-34-44-41-71z"/><path fill="#CFCFCF" stroke="#CFCFCF" stroke-width=".3" d="M1753 242c16-2 32-8 49-4 5 4 8 11 9 18-20 3-40-6-58-14z"/><path fill="#6B6B6B" stroke="#6B6B6B" stroke-width=".3" d="M1903 253c5-6 15-15 21-7 14 19 26 39 36 60a257 257 0 0 1-39-6l2 5c-11-12-20-26-32-38l12-14z"/><path fill="#646464" stroke="#646464" stroke-width=".3" d="M1658 268c-2-8 8-10 13-13l-4 15-9-2z"/><path fill="#C6C6C6" stroke="#C6C6C6" stroke-width=".3" d="M1673 279c17-13 39-12 59-12l-1 4c-18 3-34 13-49 22l-9-14z"/><path fill="#0E0E0E" stroke="#0E0E0E" stroke-width=".3" d="M1725 286c12-10 26-20 42-22 18-2 34 9 50 15 2 11 4 23 9 34-12-6-23-11-35-15-13-4-26-4-40-2l4-3c19-3 38 0 57 2a73 73 0 0 0-49-15c-16 1-31 9-45 15l7-9z"/><path fill="#454545" stroke="#454545" stroke-width=".3" d="M1718 295c14-6 29-14 45-15 17 0 36 4 49 15-19-2-38-5-57-2l-4 3-33 8-7 2 7-11z"/><path fill="#9D9D9D" stroke="#9D9D9D" stroke-width=".3" d="M1817 279c18 7 33 21 47 36 13 17 30 35 28 59l-8 18h14c13 4 16 16 20 27v1c-6 24-13 47-12 72-6 4-13 8-18 13l10-49-18 6c-6-18 16-27 24-39-11-7-24-13-28-26 1-12 5-25 0-37-6-15-17-27-25-40-2 14 6 25 16 34-3 13-4 26-3 40-3-14-2-28-2-41a99 99 0 0 1-36-40c-5-11-7-23-9-34z"/><path fill="#6B6B6B" stroke="#6B6B6B" stroke-width=".3" d="M1698 292c8-4 18-12 27-6l-7 9-7 11-33 21-23 9c10-19 26-33 43-44z"/><path fill="#9D9D9D" stroke="#9D9D9D" stroke-width="1.3" d="M1751 296c14-2 27-2 40 2 6 11 12 23 23 29 12 6 21 16 22 30 8 5 18 10 18 22 5 25 0 59-27 71l11-10-2-5-5-3c2-15 0-29 6-43-8 4-16 8-25 7l-3-5 19-2-4-37-14 19 2-7c-18-17-40-35-66-34l-8 1h-18c-9-2-17 1-26 2l-13 2c9-8 19-13 30-15l55 1c20 6 34 27 55 30-18-18-37-36-63-42-12-6-26-6-40-5l33-8m87 137c15-12 15-32 13-49-18 8-12 33-13 49z"/><path fill="#CFCFCF" stroke="#CFCFCF" stroke-width=".3" d="M1858 298c5-4 12-6 18-3 22 10 33 34 53 47l-4 5c0 16 9 29 17 42 7 13 25 13 32 26l3 4c-5 12-13 23-21 33l-4-8v-11l1-9c-12 0-24-1-35-4v-1l10-7 11-5c-7-22-20-42-28-64l-13-7c-16-11-28-25-40-38z"/><path fill="#444" stroke="#444" stroke-width=".3" d="M1791 298c12 4 23 9 35 15 7 17 21 29 36 40 0 13-1 27 2 41 1 8 4 16 8 24-7 16-20 27-31 39l-27 4 13-11c27-12 32-46 27-71 0-12-10-17-18-22-1-14-10-24-22-30-11-6-17-18-23-29z"/><path fill="#0D0D0D" stroke="#0D0D0D" stroke-width=".3" d="m1921 300 13 3c4 9 8 18 9 28l-14 19-4-3 4-5c9-12 1-26-6-37l-2-5z"/><path fill="#212121" stroke="#212121" stroke-width=".3" d="m1678 327 33-21 7-2c14-1 28-1 40 5-15 6-31 8-47 11-11 2-21 7-30 15l-13 14 10-22z"/><path fill="#4A4A4A" stroke="#4A4A4A" stroke-width=".3" d="M1758 309c26 6 45 24 63 42-21-3-35-24-55-30l-55-1c16-3 32-5 47-11z"/><path fill="#CFCFCF" stroke="#CFCFCF" stroke-width=".3" d="M1851 320c8 13 19 25 25 40 5 12 1 25 0 37 4 13 17 19 28 26-8 12-30 21-24 39l18-6-10 49-3 3h-16v-12l-1-9-3-10-1-6c1-15 9-28 17-40l-9-13c-4-8-7-16-8-24-1-14 0-27 3-40-10-9-18-20-16-34z"/><path fill="#464646" stroke="#464646" stroke-width=".3" d="M1720 331h18c-14 7-24 18-26 33v-9a72 72 0 0 0-13 78l-24-16 11-3c2-25 7-50 19-73h-4l19-10z"/><path fill="#222" stroke="#222" stroke-width=".3" d="m1738 331 8-1a518 518 0 0 0-32 52c-3 17-3 36 7 52-6-5-11-11-11-19-2-17-1-34 2-51 2-15 12-26 26-33z"/><path fill="#454545" stroke="#454545" stroke-width="1.3" d="M1746 330c26-1 48 17 66 34l-2 7c-2 6-2 13-1 20l3 5c9 1 17-3 25-7-6 14-4 28-6 43l5 3c-16 5-26 22-44 24 15-14 29-34 22-56-7 10-8 25-20 33-12 9-29 2-41-4l-1-4c13-5 26-9 37-18-10-5-23-6-31-16-6-8-7-18-8-28-14 11-13 29-13 45-3-4-8-8-8-14 0-17 7-32 12-47l-11 7 16-27m14 17c-5 4-4 12 0 16 9 11 18 22 30 28 10 4 10-12 7-17-9-13-23-23-37-27z"/><path fill="#6B6B6B" stroke="#6B6B6B" stroke-width=".3" d="M1957 336c12-5 36-8 40 9 7 25 1 51-8 74l-10-7-2 7-3-4v-35l-9 6-7-19-8-4 7-27z"/><path fill="#0E0E0E" stroke="#0E0E0E" stroke-width=".3" d="m1898 336 13 7c8 22 21 42 28 64l-11 5h-8l2-13c-4-6-6-13-7-20l-4-5c-1-9-3-18-11-23l-2-15z"/><path fill="#6A6A6A" stroke="#6A6A6A" stroke-width="1.3" d="M1660 410c-1-29 18-53 41-69h4c-12 23-17 48-19 73l-11 3c-5-2-10-4-16-4-7-6-11-15-15-23l12-18c-4 12-9 29 4 38m16-3h6c-2-14 2-27 7-39-12 9-14 24-13 39z"/><path fill="#030303" stroke="#030303" stroke-width=".3" d="M1760 347c14 4 28 14 37 27 3 5 3 21-7 17-12-6-21-17-30-28-4-4-5-12 0-16z"/><path fill="#9D9D9D" stroke="#9D9D9D" stroke-width=".3" d="M1942 389c-8-13-17-26-17-42l4 3a253 253 0 0 0 29 17l7 19 9-6v35c-7-13-25-13-32-26z"/><path fill="#9D9D9D" stroke="#9D9D9D" stroke-width="1.3" d="m1730 357 11-7c-5 15-12 30-12 47 0 6 5 10 8 14 0-16-1-34 13-45 1 10 2 20 8 28 8 10 21 11 31 16-11 9-24 13-37 18l1 4c12 6 29 13 41 4 12-8 13-23 20-33 7 22-7 42-22 56l-8 7 30-5 27-4-3 6-5 5c-10 8-23 12-32 22 10-2 21-6 30-1 5 3 4 9 6 13l-9 8 15-1c12 0 27-3 37 7-7 11-16 23-30 26l13-16c-12 0-24-2-35-7 4 8 10 15 16 23-10-1-16-8-23-15l-13-3 9-9c-11 3-22 2-28-8l2 9 10 9h-8c-10-3-11-14-12-23-19 0-38 7-57 3-14-6-8-23-5-34l-16-11c8 2 16 2 24 2-7-10-18-13-28-19l-27-18-1 8c-5-6-8-13-12-20 6 0 11 2 16 4l24 16c-11-26-7-58 13-78v9c-3 17-4 34-2 51 0 8 5 14 11 19a73 73 0 0 1-7-52l7-5c2-7 5-14 9-20m7 80c1 13 10 25 23 29 5-1 14-6 13-12-13-4-24-11-36-17m-4 22c2 9 7 17 16 21 17 6 35 1 51-5-12-4-25 1-36-3s-20-10-31-13m-7 34c17 12 40 6 59 1-4-3-9-7-15-6l-44 5z"/><path fill="#CDCDCD" stroke="#CDCDCD" stroke-width=".3" d="m1810 371 14-19 4 37-19 2c-1-7-1-14 1-20z"/><path fill="#010101" stroke="#010101" stroke-width=".3" d="M1338 385c27-22 77-4 78 33 13-8 28-13 43-9 8 3 17 7 19 17 2 12-5 24-7 36l1 3c8 4 19 6 22 17-11-6-22-10-34-13 6-15 15-30 11-46-16-18-42-7-58 6-2-4 0-13-6-13-6 9-9 21-18 29-1-17-4-34-3-51l4-7c-16-9-46-12-52 10-5 10-6 22 0 32l-5 13c-5-9-13-17-22-22-17-8-38 3-42 22l-2-7c7-24 42-31 60-13-3-13 0-29 11-37z"/><path fill="#101010" stroke="#101010" stroke-width=".3" d="m1892 374 6 18h-14l8-18z"/><path fill="#505050" stroke="#505050" stroke-width="1.3" d="M1338 397c6-22 36-19 52-10l-4 7c-1 17 2 34 3 51 9-8 12-20 18-29 6 0 4 9 6 13 16-13 42-24 58-6 4 16-5 31-11 46 12 3 23 7 34 13 4 7 8 16 8 25-7 20-32 15-48 17 11 8 27 15 30 30 2 12-3 29-17 31-11-1-21-6-32-10 1 10 4 22-3 31-9 7-21 4-29-2-12-7-20-19-25-31-11 11-23 22-38 24-14 2-29-5-34-18-1-5 2-10 4-15-19 1-41 2-54-14-12-16-4-39 10-52 8-7 19-10 29-15-16-8-24-24-26-41 4-19 25-30 42-22-8 2-17 3-25 7-3 10-3 20-1 30 20 5 40 8 61 11l-13-26 5-13c4 12 8 25 14 37 6-24 20-55-1-76l-13 7m34 69 8 3h-12l1-2c-15-3-25 12-33 22-11-2-24-9-34-2 11 4 22 5 34 9 1 23 13 46 34 56 12 5 19-10 30-13 9 14 20 28 35 35-6-17-21-27-29-42 5-16 15-32 12-50-4-19-31-23-46-16m54 41c17 18 45 11 67 7-8-11-19-21-33-21-12 2-23 9-34 14m-165 11c-2 10-5 25 6 32l2-2c10 5 22 5 33 5 22 3 28-25 26-41-17-6-33-15-51-14-10 0-15 11-16 20m53 55c-7 8 6 20 14 13 11-9 18-23 21-37-15 2-27 12-35 24z"/><path fill="#CFCFCF" stroke="#CFCFCF" stroke-width=".3" d="M1838 433c1-16-5-41 13-49 2 17 2 37-13 49z"/><path fill="#CACACA" stroke="#CACACA" stroke-width=".3" d="m1338 397 13-7c21 21 7 52 1 76-6-12-10-25-14-37-6-10-5-22 0-32z"/><path fill="#242424" stroke="#242424" stroke-width=".3" d="M1841 457c11-12 24-23 31-39l9 13c-8 12-16 25-17 40l-1-23c-9 5-17 9-25 15l3-6z"/><path fill="#A2A2A2" stroke="#A2A2A2" stroke-width=".3" d="M1286 427c8-4 17-5 25-7 9 5 17 13 22 22l13 26c-21-3-41-6-61-11-2-10-2-20 1-30z"/><path fill="#444" stroke="#444" stroke-width=".3" d="M1906 492c-1-25 6-48 12-72 11 3 23 4 35 4-15 11-24 26-37 39 16-4 28-16 36-30v11c-14 17-28 35-46 48z"/><path fill="#D0D0D0" stroke="#D0D0D0" stroke-width=".3" d="m1672 425 27 18c10 6 21 9 28 19-8 0-16 0-24-2-11-8-23-16-32-27l1-8z"/><path fill="#262626" stroke="#262626" stroke-width=".3" d="M1916 463c13-13 22-28 37-39l-1 9c-8 14-20 26-36 30z"/><path fill="#292929" stroke="#292929" stroke-width=".3" d="M873 435c20-1 36 13 51 25l1-16c16 6 11 29 27 34l-4 1c-18-10-41-7-57-21-8-6-13-14-18-23z"/><path stroke="#000" stroke-width=".3" d="m1267 435 2 7c2 17 10 33 26 41-10 5-21 8-29 15-14 13-22 36-10 52 13 16 35 15 54 14-2 5-5 10-4 15 5 13 20 20 34 18 15-2 27-13 38-24 5 12 13 24 25 31 8 6 20 9 29 2 7-9 4-21 3-31 11 4 21 9 32 10 14-2 19-19 17-31-3-15-19-22-30-30 16-2 41 3 48-17l5-14c1 10 1 21-6 29-7 7-18 7-27 9 17 13 22 39 8 56-10 10-25 2-37-1-1 8 0 17-6 24-7 10-22 13-33 7-12-6-19-19-30-27-16 8-32 23-51 18-9-4-19-7-23-16l-4-20-25-6c-9-3-16-8-24-11-4-9-5-18-5-27l3-12c1-6 4-12 6-17 9-5 18-13 28-16a43 43 0 0 1-14-48z"/><path fill="#0D0D0D" stroke="#0D0D0D" stroke-width=".3" d="M1737 437c12 6 23 13 36 17 1 6-8 11-13 12-13-4-22-16-23-29z"/><path fill="#222" stroke="#222" stroke-width=".3" d="M1792 459c18-2 28-19 44-24l2 5a698 698 0 0 1-24 21l-30 5 8-7z"/><path fill="#020202" stroke="#020202" stroke-width=".3" d="m1629 452 12-10 8 4-6 2 5 6-5 2 5 8a184 184 0 0 0-13 23l28 3v3c-10 1-21 4-32 4-7-4-7-12-8-18 11-6 7-18 6-27z"/><path fill="#222" stroke="#222" stroke-width=".3" d="M1906 492c18-13 32-31 46-48l4 8v1c-19 17-38 34-54 54l-17 1 3-3c5-5 12-9 18-13z"/><path fill="#6B6B6B" stroke="#6B6B6B" stroke-width=".3" d="M1838 463c8-6 16-10 25-15a596 596 0 0 0 2 29l-5-2c-6 4-12 12-20 9-8-1-5-11-7-16l5-5zm64 44c16-20 35-37 54-54l16 14c-3 6-5 14-11 19-8 6-20 7-28 15-8 13-16 26-28 36l-14-5c2-9 6-17 11-25z"/><path fill="#D0D0D0" stroke="#D0D0D0" stroke-width=".3" d="M1733 459c11 3 20 9 31 13s24-1 36 3c-16 6-34 11-51 5-9-4-14-12-16-21z"/><path stroke="#000" stroke-width=".3" d="M1372 466c15-7 42-3 46 16 3 18-7 34-12 50 8 15 23 25 29 42-15-7-26-21-35-35-11 3-18 18-30 13a65 65 0 0 1-34-56c-12-4-23-5-34-9 10-7 23 0 34 2 8-10 18-25 33-22l-1 2c-8 3-15 8-20 15-6 14-9 34 3 47 6 7 17 5 25 6 21-3 34-27 27-47-4-10-12-18-23-21l-8-3z"/><path fill="#676767" stroke="#676767" stroke-width=".3" d="M1648 475c4-6 9-11 16-14l4 16 18-5 3 9 15-3v18c-16 0-33 6-44 18 12-2 25-12 37-3l-11 14c8-3 16-12 25-7 5 1 8 5 10 10l-11 8h-33l26 11c-4 5-7 10-13 12-15-6-28-19-45-20 10 12 26 17 38 28l-63 38-1-15-3 3c-3-4-8-6-13-8 15-5 23-19 34-29-3-7-7-13-8-20 1-12 18-11 21-22l-19-4-1-10-5-2-5-16 3-3c1 6 1 14 8 18 11 0 22-3 32-4v-3l-28-3 4-9 9-3z"/><path fill="#CFCFCF" stroke="#CFCFCF" stroke-width=".3" d="M1348 484c5-7 12-12 20-15h12c11 3 19 11 23 21 7 20-6 44-27 47 10-10 11-23 11-36l-16 2 1-17-13 10-1-12h-10z"/><path fill="#444" stroke="#444" stroke-width=".3" d="M1801 490c9-10 22-14 32-22 2 5-1 15 7 16 8 3 14-5 20-9l5 2 3 10c-10 5-20 11-31 15-2-4-1-10-6-13-9-5-20-1-30 1z"/><path fill="#424242" stroke="#424242" stroke-width=".3" d="m948 479 4-1 3-2v3l-1 6c18 7 33 19 47 33l-14 31c7 9 24 14 21 27-7 12-20 18-32 25h-14l33-24v-3c-16-11-36-14-51-26 12-12 27-20 41-29-16-5-29-19-45-22h-1l-9-16 18-2z"/><path fill="#0E0E0E" stroke="#0E0E0E" stroke-width=".3" d="M886 484c15-3 29-2 44-3l9 16-39-1-10-1c-8 1-15 3-22 6 4-7 9-16 18-17z"/><path fill="#010101" stroke="#010101" stroke-width=".3" d="m954 485 1-6c17 6 37 3 52 13 13 8 20 22 23 36 17-10 46-10 52 12l-5 17-10 9-2-5 9-11c-3-8-6-17-15-19l-27 3c0 10-1 21-5 30-9 20-27 38-51 37 12-7 25-13 32-25 3-13-14-18-21-27l14-31c-14-14-29-26-47-33z"/><path fill="#444" stroke="#444" stroke-width=".3" d="M1351 531c-12-13-9-33-3-47h10l1 12 13-10-1 17 16-2c0 13-1 26-11 36-8-1-19 1-25-6z"/><path fill="#C6C6C6" stroke="#C6C6C6" stroke-width=".3" d="m1726 493 44-5c6-1 11 3 15 6-19 5-42 11-59-1z"/><path fill="#2C2C2C" stroke="#2C2C2C" stroke-width=".3" d="M1837 502c11-4 21-10 31-15l1 9-26 13-15 1 9-8z"/><path fill="#CFCFCF" stroke="#CFCFCF" stroke-width=".3" d="M868 501c7-3 14-5 22-6l4 18c-11-1-22-1-32 2l5-14h1z"/><path fill="#949494" stroke="#949494" stroke-width=".3" d="m890 495 10 1c9 8 19 15 29 21l-14 15-7 4c8 9 16 17 26 24l11 7-26 2 12 16-25 11 5 2 9 6-14 1c-5-7-13-9-20-12 11-7 28-11 28-28-19 2-39 2-57-4-3-1-6-4-7-7 11 1 23-1 34-5l11-4 4-3a64 64 0 0 0-42-26l5-1c10-3 21-3 32-2l-4-18z"/><path fill="#292929" stroke="#292929" stroke-width=".3" d="m900 496 39 1h1c6 8 14 15 24 19-18 2-32 12-49 16l14-15c-10-6-20-13-29-21z"/><path fill="#686868" stroke="#686868" stroke-width=".3" d="M940 497c16 3 29 17 45 22-14 9-29 17-41 29 15 12 35 15 51 26v3l-33 24c-11-2-23-5-32 4l1-8c10-10 22-17 34-25l-27-18-3-5c10-13 22-21 34-31l-5-2c-10-4-18-11-24-19z"/><path fill="#767676" stroke="#767676" stroke-width=".3" d="m1192 494 26 11-6 10-9-12-7 10-7-3 3-16z"/><path stroke="#000" stroke-width=".3" d="M1426 507c11-5 22-12 34-14 14 0 25 10 33 21-22 4-50 11-67-7z"/><path fill="#454545" stroke="#454545" stroke-width=".3" d="m1843 509 26-13v12h16l17-1c-5 8-9 16-11 25l14 5c-15 9-21-10-25-21-10-10-25-7-37-7z"/><path fill="#A2A2A2" stroke="#A2A2A2" stroke-width=".3" d="M1261 518c1-9 6-20 16-20 18-1 34 8 51 14 2 16-4 44-26 41 10-8 17-18 20-30l-50 21-3 4-2 2c-11-7-8-22-6-32z"/><path fill="#020202" stroke="#020202" stroke-width=".3" d="m1625 498 5 2 1 10c-1 11-5 22-8 33a305 305 0 0 0-18-8c3-5 7-8 12-12l-8-7c5-7 10-13 16-18z"/><path stroke="#000" stroke-width=".3" d="M1697 503c17 1 31 15 50 12v31c-1 7-2 15-1 22 2 7 6 13 9 19l-14-9-4 8v-33c2-8 2-17 1-26-12 7-21 18-31 28-2-6 0-13 3-19l11-8c3-4 7-6 9-11-11-5-24-5-33-14z"/><path fill="#292929" stroke="#292929" stroke-width=".3" d="M806 526c-2-8-2-15-1-23 5 4 12 8 15 14s4 15 12 17l-8 4c-8 16-26 21-43 18 1-9 8-14 14-19-19 6-40-3-48-22 20-8 42 0 59 11z"/><path fill="#282828" stroke="#282828" stroke-width=".3" d="m1631 510 19 4c-3 11-20 10-21 22 1 7 5 13 8 20-11 10-19 24-34 29 4-6 8-12 10-20l-11-5 12-21 9 4c3-11 7-22 8-33z"/><path fill="#0D0D0D" stroke="#0D0D0D" stroke-width=".3" d="M837 534c5-8 12-13 20-18 17 2 32 12 42 26l-4 3c-7-10-17-17-30-16l-3 4 12 5-7 9 17 2c-11 4-23 6-34 5-7-3-14-9-13-17l-13 1 8-4h5zm78-2c17-4 31-14 49-16l5 2c-12 10-24 18-34 31l3 5-4 6c-10-7-18-15-26-24l7-4z"/><path fill="#CFCFCF" stroke="#CFCFCF" stroke-width=".3" d="M1828 519c11 5 23 7 35 7l-13 16h-6c-6-8-12-15-16-23z"/><path fill="#676767" stroke="#676767" stroke-width=".3" d="m1755 519 19 2c6 3 9 11 8 18l-7 29c7-8 13-16 18-25 8 16-9 36 5 50-11 1-19 8-28 15l-8-13-20 25-15-6-20 17c-4-3-7-11-13-7-12 4-23 7-36 8l2-13-17 6c-7-5-14-12-23-11-10-1-24 3-30-7l2-1 20 8c25-9 48-21 69-37 4 8 8 16 7 24-3 7-8 13-12 19 9-4 16-12 17-22 0-8-3-16-5-23l19-20c10-10 19-21 31-28 1 9 1 18-1 26-1 6-3 11-6 16l-23 12 21 1c-8 12-15 23-21 36 14-6 22-20 29-32l4-8 14 9c-3-6-7-12-9-19-1-7 0-15 1-22l17 8-13-19c0-5 2-11 4-16z"/><path fill="#4E4E4E" stroke="#4E4E4E" stroke-width=".3" d="M865 529c13-1 23 6 30 16l-11 4-17-2 7-9-12-5 3-4z"/><path fill="#7A7A7A" stroke="#7A7A7A" stroke-width=".3" d="m1032 534 27-3 4 12c-4 5-10 6-15 9l17 9 2 5 1 2c20 1 40 0 60 3-23-3-46 4-68-3l-21 1-12-5c4-9 5-20 5-30z"/><path fill="#141414" stroke="#141414" stroke-width=".3" d="M1059 531c9 2 12 11 15 19l-9 11-17-9c5-3 11-4 15-9l-4-12z"/><path fill="#040404" stroke="#040404" stroke-width=".3" d="m1782 539 11-10v14c-5 9-11 17-18 25l7-29z"/><path fill="#282828" stroke="#282828" stroke-width=".3" d="M1677 536h33c-3 6-5 13-3 19l-19 20c2 7 5 15 5 23-1 10-8 18-17 22 4-6 9-12 12-19 1-8-3-16-7-24-21 16-44 28-69 37l4-17-4 1 4-5 3-3 1 15 63-38c-12-11-28-16-38-28 17 1 30 14 45 20 6-2 9-7 13-12l-26-11z"/><path fill="#0D0D0D" stroke="#0D0D0D" stroke-width=".3" d="m1809 535 6 4c1 14-4 28-9 41-5-14 2-30 3-45z"/><path fill="#979797" stroke="#979797" stroke-width=".3" d="M1190 539c11-5 1 12 0 0z"/><path fill="#666" stroke="#666" stroke-width=".3" d="M1822 541c6 5 10 11 14 18-6 12-15 23-28 29 2-8 10-14 11-22l3-25z"/><path fill="#CACACA" stroke="#CACACA" stroke-width=".3" d="M1314 573c8-12 20-22 35-24-3 14-10 28-21 37-8 7-21-5-14-13z"/><path fill="#292929" stroke="#292929" stroke-width=".3" d="m938 554 27 18c-12 8-24 15-34 25-5 6-14 1-20 1l-5-2 25-11-12-16 26-2-11-7 4-6z"/><path fill="#353535" stroke="#353535" stroke-width=".3" d="M1731 569c3-5 5-10 6-16v33c-7 12-15 26-29 32 6-13 13-24 21-36l-21-1 23-12z"/><path fill="#CFCFCF" stroke="#CFCFCF" stroke-width=".3" d="M857 561c18 6 38 6 57 4 0 17-17 21-28 28-4-5-10-8-15-10l-5-4c-5-5-6-12-9-18z"/><path fill="#292929" stroke="#292929" stroke-width=".3" d="M817 587c15-7 33-6 49-8l5 4c-12 3-14 14-22 21-6 6-14 11-21 16 1-8 5-16 10-22-18 9-36 26-58 18 11-11 22-23 37-29z"/><path fill="#020202" stroke="#020202" stroke-width=".3" d="m1592 606 20-8 4-1-4 17-20-8z"/><path fill="#292929" stroke="#292929" stroke-width=".3" d="m893 606 13-1a10036 10036 0 0 1 24-3c2 15-12 24-25 29l1-11a77 77 0 0 1-49 17c12-15 31-19 47-25-4-1-8-3-11-6z"/><path fill="#3C3C3C" stroke="#3C3C3C" stroke-width=".3" d="M1405 710c1-7 2-18 11-20 16-2 32 2 48 3l7 19 5 4-7 3-9-12c-13-10-32-5-47 0l1 6a105 105 0 0 0-22 17l15 3-1 22c-13 3-27 3-41 5-4 2-8 5-11 9-4 3-5 7-5 11l27 7c-8 3-14 9-15 17l12 3-14 18v-19c-5-4-11-1-16-1 3-11 10-24 1-33l-5-5c20-10 38-24 53-41l-6-8c-8 2-15 7-19 14-6 10-18 14-28 19l-4-6 21-10c6-20 29-30 49-25z"/><path fill="#6B6B6B" stroke="#6B6B6B" stroke-width=".3" d="M1413 707c15-5 34-10 47 0l-1 21-15 7-11-11-1-5-16-2-10 1 8-5-1-6z"/><path fill="#444" stroke="#444" stroke-width=".3" d="m1460 707 9 12 7-3c11 1 18 10 27 16 8 6 16 7 25 10l9 11 2 10-15-16c-9 10-6 24-6 36v5l-4-6c2-9 3-18-2-26l2-11-39-20 2 15c-7-2-14-2-21-1l1 4 2 5-10 1-5-14 15-7 1-21z"/><path fill="#6B6B6B" stroke="#6B6B6B" stroke-width=".3" d="M1367 732c4-7 11-12 19-14l6 8c-15 17-33 31-53 41l-5-5 5-11c10-5 22-9 28-19z"/><path fill="#CFCFCF" stroke="#CFCFCF" stroke-width=".3" d="m1406 718 10-1c4 17 17 29 33 32l10-1c7 17 30 24 29 45-11-7-22-15-29-27-10-14-28-16-41-26l-5 8-2 4c-2-7-3-15-3-22h-16c4-5 9-9 14-12z"/><path fill="#9E9E9E" stroke="#9E9E9E" stroke-width=".3" d="m1416 717 16 2 1 5 11 11 5 14c-16-3-29-15-33-32z"/><path fill="#6C6C6C" stroke="#6C6C6C" stroke-width=".3" d="m1475 725 39 20-2 11-11 12-27-20 6 1a45402 45402 0 0 1-5-24z"/><path fill="#9E9E9E" stroke="#9E9E9E" stroke-width=".3" d="M1392 730h16c0 7 1 15 3 22 8 7 14 14 14 25l6-3 3-2c8 1 16 0 22 5 17 10 33 23 44 41l-12-2c-14-2-27-9-35-21l17 3c-7-5-15-11-24-15s-18-1-27-2c-7-3-9-11-13-18-7 7-15 12-24 17v-14c-9 1-19 1-28 3 3-4 7-7 11-9 14-2 28-2 41-5l1-22-15-3z"/><path fill="#0D0D0D" stroke="#0D0D0D" stroke-width=".3" d="M1456 739c7-1 14-1 21 1l3 9-6-1-17-5-1-4z"/><path fill="#0E0E0E" stroke="#0E0E0E" stroke-width=".3" d="M1418 740c13 10 31 12 41 26-16-3-32-10-46-18l5-8z"/><path fill="#9D9D9D" stroke="#9D9D9D" stroke-width=".3" d="m1457 743 17 5 27 20 13 14 4 6 13 19-8 4c-12-4-24-10-35-18 1-21-22-28-29-45l-2-5z"/><path fill="#454545" stroke="#454545" stroke-width=".3" d="m1411 752 2-4c14 8 30 15 46 18 7 12 18 20 29 27 11 8 23 14 35 18l-12 5 4 12 1 2-2 9-14-21c-11-18-27-31-44-41-6-5-14-4-22-5-2-8-12 0-3 2l-6 3c0-11-6-18-14-25z"/><path fill="#6B6B6B" stroke="#6B6B6B" stroke-width=".3" d="M1518 783c0-12-3-26 6-36l15 16c8 5 18 7 25 14-3 10-12 16-21 20l-25-14z"/><path fill="#323232" stroke="#323232" stroke-width=".3" d="m1537 753 5 2c10 4 19 10 30 9 6 12-1 24-9 33 5 13 15 22 25 30-1 11-2 22-1 33 1 21-10 39-22 55l-11-10c-9 11-19 21-25 33-10-4-19-10-24-19-12 7-23 18-35 25l-16-13c-7 8-17 13-27 17l-31-22 6-5 5 2c23 5 46-9 58-28l6-10v24c14-16 6-37 4-56-6-12-17-21-23-33 19 16 38 37 39 63l-1 6c-7 13-15 26-21 40 17-4 25-22 36-34l4-3-5 16c8 1 16 3 22 9l6-7 22-24 8 11c14-19 16-45 12-67-8-11-18-19-29-26l-2-7c9-4 18-10 21-20-7-7-17-9-25-14l-2-10z"/><path fill="#1C1C1C" stroke="#1C1C1C" stroke-width=".3" d="m1501 768 11-12c5 8 4 17 2 26l-13-14z"/><path fill="#D0D0D0" stroke="#D0D0D0" stroke-width=".3" d="M1382 780c9-5 17-10 24-17 4 7 6 15 13 18 9 1 18-2 27 2s17 10 24 15l-17-3-4-5c-18 4-36 0-50-12l-12 6-11 3-27-7c0-4 1-8 5-11 9-2 19-2 28-3v14z"/><path fill="#9D9D9D" stroke="#9D9D9D" stroke-width=".3" d="M1326 767c4-3 11 1 9 6-4 3-11-2-9-6z"/><path fill="#1E1E1E" stroke="#1E1E1E" stroke-width=".3" d="M1431 774c-9-2 1-10 3-2l-3 2z"/><path fill="#797979" stroke="#797979" stroke-width=".3" d="M1252 773c11-5 1 12 0 0z"/><path fill="#9D9D9D" stroke="#9D9D9D" stroke-width="1.3" d="M1324 791c2-10 13-14 20-19 9 9 2 22-1 33 5 0 11-3 16 1v19l14-18 7-1c-4 11-7 23-9 35l13-12c9-6 21-9 33-6-10 5-24 7-27 19-1 8 3 16 5 23 5-8 10-17 16-24 3 5 5 11 9 16 5 7 15 7 23 9-9 9-22 8-34 8 15 12 32-1 49-1l-17 10c-14 10-32 8-48 1 15 15 38 7 56 8-5 6-13 9-20 11l-24-2-10-4 2 13c-10-7-16-18-21-28l-6-2v5c-9-2-19-1-28-5-8-13 1-27 4-40-6-3-13-6-16-11l10 3-1-18-8 2c0-9-6-16-7-25m12 13 1-22c-10 4-13 18-1 22m38 70-1-11c4 6 11 8 17 9l-11-25-10 8c-6-8-1-18 0-26-14 8-18 41 5 45m-26 1c3-12 7-25 6-38-9 10-12 26-6 38z"/><path fill="#424242" stroke="#424242" stroke-width=".3" d="M1399 778c14 12 32 16 50 12l4 5c8 12 21 19 35 21l11 19-6 16-5-15c-16-5-24-24-41-29l-12-10c-13 0-28-3-39 6l-2 7-10 19-13 12c2-12 5-24 9-35l7-22 12-6z"/><path fill="#CACACA" stroke="#CACACA" stroke-width=".3" d="M1336 804c-12-4-9-18 1-22l-1 22z"/><path fill="#6B6B6B" stroke="#6B6B6B" stroke-width=".3" d="m1376 787 11-3-7 22-7 1-12-3c1-8 7-14 15-17z"/><path fill="#1D1D1D" stroke="#1D1D1D" stroke-width=".3" d="m1518 783 25 14 2 7 3 15c-1 16-4 31-9 46l-3-5c5-18 7-38-5-53l-13-19v-5z"/><path fill="#CACACA" stroke="#CACACA" stroke-width=".3" d="M1396 803c11-9 26-6 39-6-10 10-27 14-39 6z"/><path fill="#9D9D9D" stroke="#9D9D9D" stroke-width=".3" d="M1396 803c12 8 29 4 39-6l12 10c17 5 25 24 41 29l5 15-2 32c-1-26-20-47-39-63 6 12 17 21 23 33 2 19 10 40-4 56v-24c0-10-1-19-3-29-6-12-15-21-23-31l4-9c-9-2-17-2-26 0l1-6h-30l2-7z"/><path fill="#6B6B6B" stroke="#6B6B6B" stroke-width=".3" d="M1531 807c12 15 10 35 5 53-4 6-8 13-11 21l16-13-1 22c-3 7-8 13-12 20l-10-2-2-38a100 100 0 0 0-2-31l2-9 16 24c0-14 3-33-15-37l-2 11-4-12 12-5 8-4zm14-3c11 7 21 15 29 26 4 22 2 48-12 67l-8-11c7-17 9-38-1-55l-5-12-3-15z"/><path fill="#454545" stroke="#454545" stroke-width="1.3" d="M1394 810h30l-1 6-2 9c8 2 16 1 24 0 8 10 17 19 23 31 2 10 3 19 3 29l-6 10c-12 4-23 11-36 8 7-2 15-5 20-11-18-1-41 7-56-8 16 7 34 9 48-1l-3 7c7-1 15-1 22-4 6-4 7-11 8-18l-10 5c-17 0-34 13-49 1 12 0 25 1 34-8-8-2-18-2-23-9-4-5-6-11-9-16-6 7-11 16-16 24-2-7-6-15-5-23 3-12 17-14 27-19-12-3-24 0-33 6l10-19m29 26c7 12 18 26 34 24-4-13-19-33-34-24z"/><path fill="#C4C4C4" stroke="#C4C4C4" stroke-width=".3" d="m1331 816 8-2 1 18-10-3 1-13z"/><path fill="#D0D0D0" stroke="#D0D0D0" stroke-width=".3" d="M1423 816c9-2 17-2 26 0l-4 9c-8 1-16 2-24 0l2-9z"/><path fill="#0E0E0E" stroke="#0E0E0E" stroke-width=".3" d="m1488 816 12 2 14 21 1 6c1 14-5 26-15 35 4-15 7-31-1-45l-11-19z"/><path fill="#D0D0D0" stroke="#D0D0D0" stroke-width=".3" d="M1517 817c18 4 15 23 15 37l-16-24-1-2 2-11z"/><path fill="#464646" stroke="#464646" stroke-width=".3" d="m1548 819 5 12c-2 20-2 41-13 59l1-22-16 13c3-8 7-15 11-21l3 5c5-15 8-30 9-46z"/><path fill="#C4C4C4" stroke="#C4C4C4" stroke-width=".3" d="M1374 874c-23-4-19-37-5-45-1 8-6 18 0 26l4 8 1 11z"/><path fill="#010101" stroke="#010101" stroke-width=".3" d="M1423 836c15-9 30 11 34 24-16 2-27-12-34-24z"/><path fill="#292929" stroke="#292929" stroke-width=".3" d="M1540 890c11-18 11-39 13-59 10 17 8 38 1 55l-22 24h-4c4-7 9-13 12-20z"/><path fill="#434343" stroke="#434343" stroke-width=".3" d="m1493 851 6-16c8 14 5 30 1 45 10-9 16-21 15-35 2 8 2 17 1 25l-7 22-4 3v-15l-15 9 1-6 2-32z"/><path fill="#C9C9C9" stroke="#C9C9C9" stroke-width=".3" d="M1348 875c-6-12-3-28 6-38 1 13-3 26-6 38z"/><path fill="#0D0D0D" stroke="#0D0D0D" stroke-width=".3" d="m1369 855 10-8 11 25c-6-1-13-3-17-9l-4-8z"/><path fill="#292929" stroke="#292929" stroke-width=".3" d="m1458 873 10-5c-1 7-2 14-8 18-7 3-15 3-22 4l3-7 17-10z"/><path fill="#D0D0D0" stroke="#D0D0D0" stroke-width=".3" d="m1516 870 2 38 10 2h4l-6 7c-6-6-14-8-22-9l5-16 7-22z"/><path fill="#6B6B6B" stroke="#6B6B6B" stroke-width=".3" d="m1490 889 15-9v15c-11 12-19 30-36 34 6-14 14-27 21-40z"/><path fill="#6E6E6E" stroke="#6E6E6E" stroke-width=".3" d="M1429 903c13 3 24-4 36-8-12 19-35 33-58 28l-1-5 4-8c9 10 25 6 34-2l-16-1c-8-1-15-4-23-6l24 2z"/><path fill="#595959" stroke="#595959" stroke-width=".3" d="m1395 897 10 4c8 2 15 5 23 6l-18 3-4 8-9-8-2-13z"/><path fill="#B0B0B0" stroke="#B0B0B0" stroke-width=".3" d="m1410 910 18-3 16 1c-9 8-25 12-34 2z"/><path fill="#6B6B6B" stroke="#6B6B6B" stroke-width=".3" d="M2089 981c11-7 20-17 28-27 4 4 12 8 12 15-4 8-8 15-16 20-8 0-19-1-24-8zm46-8c4-9 14-13 22-18 17 4 40 5 46 24-12 1-22-10-35-10-11 2-22 4-33 4zm1 8c8 2 22-4 25 6-8-1-16 1-22 8 11 0 21-2 31-7 7 1 11 7 16 10l-8-15c11 2 20 7 28 15 4-1 9-2 9 5l-9 10c-1-12-16-10-24-10l16 11-3 1c8 8 20 16 20 29-9-10-22-17-30-29-4-6-9-11-16-13-10-5-21-2-31-1l-6-5 4-13v-2z"/><path fill="#9D9D9D" stroke="#9D9D9D" stroke-width=".3" d="M2100 1001c11-8 23-13 36-18l-4 13c-4 8-10 14-16 21l-6-4c-10 4-18 12-26 19v9l1 1c-10 8-19 17-32 19 5-8 11-16 21-20l5-3 6-21 15-16z"/><path fill="#6B6B6B" stroke="#6B6B6B" stroke-width=".3" d="m2081 992 11-7 8 16-15 16v-3l-11 3-6-3 13-22z"/><path fill="#424242" stroke="#424242" stroke-width=".3" d="M2064 1000c7 2 11-5 17-8l-13 22 6 3c-1 7 0 15 5 21l-5 3c-4-8-10-14-18-18v-4l-1-9 9-10z"/><path fill="#1C1C1C" stroke="#1C1C1C" stroke-width=".3" d="M2138 1009c8-8 20-8 31-7 7 2 12 7 16 13-11-3-23-6-34-5-5 4-10 15-17 9l4-10z"/><path fill="#B3B3B3" stroke="#B3B3B3" stroke-width=".3" d="M2182 1003c8 0 23-2 24 10l-3 4-5-3-16-11z"/><path fill="#989898" stroke="#989898" stroke-width=".3" d="M2122 1015c5-2 9-9 16-6l-4 10c-3 8-9 15-17 20l3-14c-9 9-17 19-18 33 1 8-7 11-12 15l9 17-10-1-3 19c-5-9-2-19-3-29-1-7 0-13 3-20l13-1c-7-18 10-32 23-43z"/><path fill="#454545" stroke="#454545" stroke-width="1.3" d="M2134 1019c7 6 12-5 17-9 11-1 23 2 34 5 8 12 21 19 30 29 1 12-13 3-18-2 6 11 11 23 14 35l3-19 2 18h6l-28 30-8-4 12-8c4-4 6-9 9-13l-18 7c4-12 4-24 1-35h-4c0 12 0 24-5 34 3-14 2-29-8-41 1 9 3 19 0 28l-2-16-4-4c-2 11-11 17-21 20l16 13-16 2c-9-4-10-14-14-21-2 13 4 24 11 34h-4l-3-1-20-7-13-7-3-9c5-7 10-14 11-22l2 9 5 18v3c7-6 7-16 8-24l11 1 1-17c17-15 42-15 63-8-9-7-21-9-33-8-12-1-22 9-33 13 6-15 24-18 37-24h-21c-7 9-19 14-24 25l-14 10-1-11 5-4c8-5 14-12 17-20m8 46c9-5 22-10 22-21-11-3-26 9-22 21m56-6c-2 5-2 11 1 16 5-1 4-14-1-16z"/><path fill="#2B2B2B" stroke="#2B2B2B" stroke-width=".3" d="m2074 1017 11-3v3l-6 21c-5-6-6-14-5-21z"/><path fill="#CACACA" stroke="#CACACA" stroke-width=".3" d="M2084 1032c8-7 16-15 26-19l6 4c-8 11-23 14-32 24v-9z"/><path fill="#C9C9C9" stroke="#C9C9C9" stroke-width=".3" d="M2151 1019h21c-13 6-31 9-37 24 11-4 21-14 33-13 12-1 24 1 33 8-21-7-46-7-63 8l-1 17-11-1 1-18c5-11 17-16 24-25z"/><path fill="#6C6C6C" stroke="#6C6C6C" stroke-width=".3" d="M2043 1047c2-9 4-20 13-24 8 4 14 10 18 18-10 4-16 12-21 20l-5 5-5-19z"/><path fill="#CFCFCF" stroke="#CFCFCF" stroke-width=".3" d="M2102 1058c1-14 9-24 18-33l-3 14-5 4-1 13c-1 8-6 15-11 22l3 9v14l-5 13a439 439 0 0 0-12-6l3-19 10 1-9-17c5-4 13-7 12-15z"/><path fill="#C2C2C2" stroke="#C2C2C2" stroke-width=".3" d="M2053 1061c13-2 22-11 32-19-3 7-9 13-11 20l8 8h-17v10c-10 1-9-12-12-19z"/><path fill="#959595" stroke="#959595" stroke-width=".3" d="m2111 1056 1-13 1 11 14-10-1 18c-1 8-1 18-8 24v-3c5-8 4-18 3-27l-8 9-2-9z"/><path fill="#0E0E0E" stroke="#0E0E0E" stroke-width=".3" d="M2142 1065c-4-12 11-24 22-21 0 11-13 16-22 21z"/><path fill="#9D9D9D" stroke="#9D9D9D" stroke-width=".3" d="M2173 1046c10 12 11 27 8 41 5-10 5-22 5-34h4c3 11 3 23-1 35l18-7c-3 4-5 9-9 13v-5l-25 11 1 8c1 6 0 13-3 18-4-6-10-9-17-11 5-4 19-8 11-16l3-8-18 5 3 9-14-3h4c-7-10-13-21-11-34 4 7 5 17 14 21l16-2-16-13c10-3 19-9 21-20l4 4 2 16c3-9 1-19 0-28z"/><path fill="#B8B8B8" stroke="#B8B8B8" stroke-width=".3" d="m2113 1065 8-9c1 9 2 19-3 27l-5-18z"/><path fill="#BCBCBC" stroke="#BCBCBC" stroke-width=".3" d="M2198 1059c5 2 6 15 1 16-3-5-3-11-1-16z"/><path fill="#666" stroke="#666" stroke-width=".3" d="M2054 1082h8c11 12 22 26 26 42-13 5-15-12-20-20-9-5-16-12-14-22z"/><path fill="#6E6E6E" stroke="#6E6E6E" stroke-width=".3" d="m2103 1087 13 7 6 7-8 6-11-6v-14z"/><path fill="#101010" stroke="#101010" stroke-width=".3" d="m2150 1096 18-5-3 8-12 6-3-9z"/><path fill="#BEBEBE" stroke="#BEBEBE" stroke-width=".3" d="m2173 1100 25-11v5l-12 8-12 6-1-8z"/><path fill="#9D9D9D" stroke="#9D9D9D" stroke-width=".3" d="m2116 1094 20 7-4 1 10 8 2 10-4 2-18 1 1 7-9 1 4-9c-8 0-15 1-22 4l-4-14 6 2 18 6v-11l13-1-7-7-6-7z"/><path fill="#343434" stroke="#343434" stroke-width=".3" d="m2103 1101 11 6 8-6 7 7-13 1v11l-18-6 5-13z"/><path fill="#BABABA" stroke="#BABABA" stroke-width=".3" d="m2132 1102 4-1 3 1 14 3 12-6c8 8-6 12-11 16 7 2 13 5 17 11-9 0-18-3-27-6l-2-10-10-8z"/><path fill="#ADADAD" stroke="#ADADAD" stroke-width=".3" d="M2096 1126c7-3 14-4 22-4l-4 9c-5 7-15 0-18-5z"/><path fill="#AAA" stroke="#AAA" stroke-width=".3" d="m2122 1123 18-1c0 10-10 10-17 8l-1-7z"/><path fill="gray" stroke="gray" stroke-width=".3" d="M2089 1128c2 2 2 2 0 0z"/><path fill="#787878" stroke="#787878" stroke-width=".3" d="M2085 1158c5 1 5 4 2 8-4-1-5-4-2-8z"/><path fill="#6B6B6B" stroke="#6B6B6B" stroke-width=".3" d="M2121 1351c16-11 36-10 54-11 9 7 17 16 25 24l-13-1-14-5c-18-9-37 0-55 1l3-8zm85 17c0-10 7-20 17-20 7 14 16 26 27 38l-11 5-19-1c-7-6-10-14-14-22z"/><path fill="#3F3F3F" stroke="#3F3F3F" stroke-width=".3" d="m2173 1358 14 5-23 3 23 5c-18 0-37 1-53 11l11-13-14-1c13-6 28-8 42-10z"/><path fill="#3F3F3F" stroke="#3F3F3F" stroke-width="1.3" d="M2104 1366h2l8 2-2 9-6 10c2 4 0 11 6 11l19-5h8l-4 8c13-2 27-2 39 4l-6 7c-9-4-18-4-27-4 16 10 32 21 41 37-7-4-13-10-19-16-8-9-21-8-31-10-9-3-17 0-25 2l36 5-7 10c-7 7-15 14-19 23l-2 23c-3-15 2-31 6-46-6 6-12 12-15 20-2 7-1 15-1 22l-18-14 2 10c5 12 15 20 25 28-3 7-4 13-5 20 12 3 24 4 36 4l2 12 2 1c3 3 7 4 12 4l11 8c5 7 15 3 21 0l6-9a168 168 0 0 1 18-11c3-12 6-26 15-36l17 4v17c-16 12-36 22-47 39l-2 3-4-3c-8 6-19 10-27 2-9-10-29-8-30-25-11-1-23-1-33-7-6-7-1-17-2-24-4-3-9-5-12-9-7-14-15-28-24-41 4-7 10-13 17-18l-10-13 24-22c-7-5-13-11-16-18l21-14m-16 56c12-3 24-8 35-12 6-2 7-9 10-13-18 0-34 12-45 25m8 42c6-1 4-8 6-12l4-11c-8 5-11 14-10 23z"/><path fill="#1B1B1B" stroke="#1B1B1B" stroke-width=".3" d="m2164 1366 23-3 13 1 6 4c4 8 7 16 14 22l19 1a461 461 0 0 0-8 15c-9-11-21-20-33-29l-11-6-23-5z"/><path fill="#6C6C6C" stroke="#6C6C6C" stroke-width="1.3" d="m2112 1377 19-9 14 1-11 13c16-10 35-11 53-11l11 6-6 1-4 18-14-3c-11-3-23-2-35 0h-8l8-5c-11-2-22-2-33-1l6-10m42 0c11 5 21 12 32 13l-2-8c-9-6-20-4-30-5z"/><path fill="#4F4F4F" stroke="#4F4F4F" stroke-width=".3" d="m2188 1396 4-18a146 146 0 0 0 37 67c0 16 2 32 8 46l-4 3c-3-8-6-15-14-18 4-3 5-6 2-10 1-23-13-43-29-58l-18-15 14 3z"/><path fill="#9D9D9D" stroke="#9D9D9D" stroke-width=".3" d="m2192 1378 6-1c12 9 24 18 33 29l14 25c2 6 4 12 0 18-13-9-17-34-36-31-8-12-13-26-17-40z"/><path fill="#A9A9A9" stroke="#A9A9A9" stroke-width=".3" d="M2106 1387c11-1 22-1 33 1l-8 5-19 5c-6 0-4-7-6-11z"/><path fill="#0F0F0F" stroke="#0F0F0F" stroke-width=".3" d="M2139 1393c12-2 24-3 35 0l18 15-5-4 1 17-16-7-4-2 6-7c-12-6-26-6-39-4l4-8z"/><path fill="#6B6B6B" stroke="#6B6B6B" stroke-width=".3" d="m2237 1397 12-6c8 14 14 29 18 44-8-2-15-6-23-9l1 5-14-25 6-9z"/><path fill="#646464" stroke="#646464" stroke-width=".3" d="M2088 1422c11-13 27-25 45-25-3 4-4 11-10 13-11 4-23 9-35 12z"/><path fill="#9B9B9B" stroke="#9B9B9B" stroke-width=".3" d="M2141 1408c9 0 18 0 27 4l4 2c7 18 23 32 27 52l-14 7 1-2-13-2-3-5 13 4c5-7 2-15 1-22l-8 5c-9-10-18-22-33-25l-36-5c8-2 16-5 25-2 10 2 23 1 31 10 6 6 12 12 19 16-9-16-25-27-41-37z"/><path fill="#9D9D9D" stroke="#9D9D9D" stroke-width=".3" d="m2187 1404 5 4c16 15 30 35 29 58l-5 8 3 2c8 3 11 10 14 18l-1 1c-9 10-12 24-15 36l-8 5 5-21-10-3c3-8 11-13 18-17-5-7-14-13-11-22 5-15-1-30-9-43l-1 15c-6-6-10-15-13-24l-1-17z"/><path fill="#444" stroke="#444" stroke-width="1.3" d="m2172 1414 16 7c3 9 7 18 13 24l6 6c-6 15-6 31 1 45l-6 9-18 4c-10-3-22-2-33-2 10-8 23-16 23-30l-15 14c-9 4-17-4-24-8l23-6c-10-7-18-16-18-29-8 5-9 15-12 23-3-12 4-24 8-35l7-10c15 3 24 15 33 25l-6 13 3 5 13 2-1 2c-1 8-2 17 0 25 9-9 12-20 14-32-4-20-20-34-27-52m-26 23c-1 13 9 22 18 30 10-12-6-27-18-30z"/><path fill="#CFCFCF" stroke="#CFCFCF" stroke-width=".3" d="M2209 1418c19-3 23 22 36 31l-3 7c0 15 8 30 21 38v8l-14 14v-17l-17-4 1-1 4-3 7-4c-5-14-4-31-15-42-8-8-15-17-20-27z"/><path fill="#D0D0D0" stroke="#D0D0D0" stroke-width=".3" d="M2202 1430c8 13 14 28 9 43-3 9 6 15 11 22-7 4-15 9-18 17l10 3-5 21-10 6-3-4v-24l6-9 6-9c-7-14-7-30-1-45l-6-6 1-15z"/><path fill="#9D9D9D" stroke="#9D9D9D" stroke-width="1.3" d="M2106 1456c3-8 9-14 15-20-4 15-9 31-6 46l2-23c4-9 12-16 19-23-4 11-11 23-8 35 3-8 4-18 12-23 0 13 8 22 18 29l-23 6c7 4 15 12 24 8l15-14c0 14-13 22-23 30 11 0 23-1 33 2a1286 1286 0 0 0-24 11l17 5-3 12 22 1 3 4-6 9c-7-4-14-7-22-9l1 9-11-8 2-6c-4-1-8-5-13-2l-1 4-2-1-2-12c-12 0-24-1-36-4 1-7 2-13 5-20l3-7c-8-8-16-17-28-21l-2-10 18 14c0-7-1-15 1-22m20 30 2 12c-5 6 1 11 5 14l28 1c-9-2-20 0-27-8 5-1 9-2 12-6l-20-13m-4 33c2 5 10 2 14 3 2 1 13-1 7-4-7-1-15-2-21 1z"/><path fill="#050505" stroke="#050505" stroke-width=".3" d="M2146 1437c12 3 28 18 18 30-9-8-19-17-18-30z"/><path fill="#BDBDBD" stroke="#BDBDBD" stroke-width=".3" d="m2176 1451 8-5c1 7 4 15-1 22l-13-4 6-13z"/><path fill="#0E0E0E" stroke="#0E0E0E" stroke-width=".3" d="M2237 1491c-6-14-8-30-8-46 11 11 10 28 15 42l-7 4z"/><path fill="#6B6B6B" stroke="#6B6B6B" stroke-width=".3" d="M2259 1447c8 1 16 1 22 6 4 7 3 17 1 25-3 10-6 24-19 24v-8l4-18h-6l-6-13 4-16z"/><path fill="#9D9D9D" stroke="#9D9D9D" stroke-width=".3" d="m2242 1456 13 7 6 13h6l-4 18c-13-8-21-23-21-38z"/><path fill="#030303" stroke="#030303" stroke-width=".3" d="M2369 1465c5-5 12-3 18-2l-1 1-4 9-12 5c3 6 9 11 15 15 6-6 12-11 20-14 10-5 22-5 32-1l-25 5 3 21c-6 3-12 5-17 10-3 11-1 21-2 32-15-12-22-32-13-49-13-3-24-14-22-28l8-4z"/><path fill="#CBCBCB" stroke="#CBCBCB" stroke-width=".3" d="m2185 1473 14-7c-2 12-5 23-14 32-2-8-1-17 0-25z"/><path fill="#272727" stroke="#272727" stroke-width=".3" d="M2221 1466c3 4 2 7-2 10l-3-2 5-8z"/><path fill="#7B7B7B" stroke="#7B7B7B" stroke-width=".3" d="m2382 1473 4-9c7 4 12 11 19 15-8 3-14 8-20 14-6-4-12-9-15-15l12-5z"/><path fill="#C2C2C2" stroke="#C2C2C2" stroke-width=".3" d="M2089 1474c12 4 20 13 28 21l-3 7c-10-8-20-16-25-28z"/><path fill="#424242" stroke="#424242" stroke-width=".3" d="m2437 1478 11 8-26 2 15 35c-12 0-23-1-35-3 6 11 11 23 14 36l-1 5-11-1-8-14c1-11-1-21 2-32 5-5 11-7 17-10l-3-21 25-5z"/><path fill="#0D0D0D" stroke="#0D0D0D" stroke-width=".3" d="m2126 1486 20 13c-3 4-7 5-12 6l-6-7-2-12z"/><path fill="#676767" stroke="#676767" stroke-width=".3" d="M2448 1486c5 7 12 13 21 16l3 2h-34l4 24h-29c3 9 5 18 3 28-3-13-8-25-14-36 12 2 23 3 35 3l-15-35 26-2z"/><path fill="#292929" stroke="#292929" stroke-width=".3" d="M2469 1502c1-11 14-5 21-6l-2 6c11 1 22 5 30 13-9 2-18-2-27-5l-4-1c-6 1-11-2-15-5l-3-2z"/><path fill="#6A6A6A" stroke="#6A6A6A" stroke-width=".3" d="m2184 1509 18-4-6 9c-3 4-6 7-10 9-5 0-8-6-12-9l10-5z"/><path fill="#1D1D1D" stroke="#1D1D1D" stroke-width=".3" d="M2438 1504h28l10 10-18-3v12l-12-8 5 29h-20c3 10 4 22 11 30l11 2c0 9-13 6-17 3l-21-15v-3l1-5c2-10 0-19-3-28h29l-4-24z"/><path fill="#949494" stroke="#949494" stroke-width=".3" d="M2466 1504h6c4 3 9 6 15 5l4 1c-4 3-14 5-8 13-8 0-16 0-24 2 9 8 19 16 26 27l2 6c-10-6-20-10-31-13 1 10 3 20 7 30-7-1-11-7-15-12l-6 11c-7-8-8-20-11-30h20l-5-29 12 8v-12l18 3-10-10z"/><path fill="#3F3F3F" stroke="#3F3F3F" stroke-width=".3" d="m2160 1520 14-6c4 3 7 9 12 9 4-2 7-5 10-9v24l-22-1 3-12-17-5z"/><path fill="#C9C9C9" stroke="#C9C9C9" stroke-width=".3" d="M2122 1519c6-3 14-2 21-1 6 3-5 5-7 4-4-1-12 2-14-3z"/><path fill="#6C6C6C" stroke="#6C6C6C" stroke-width=".3" d="M2202 1555c11-17 31-27 47-39 3 4 9 7 6 12-3 7-12 8-18 11-13 5-20 24-35 16z"/><path fill="#D0D0D0" stroke="#D0D0D0" stroke-width=".3" d="M2459 1525c8-2 16-2 24-2h3l2 14 3 4-6 11c-7-11-17-19-26-27z"/><path fill="#BCBCBC" stroke="#BCBCBC" stroke-width=".3" d="M2150 1535c5-3 9 1 13 2l-2 6c-5 0-9-1-12-4l1-4z"/><path fill="#292929" stroke="#292929" stroke-width=".3" d="m2491 1541-3-4c12 1 25-5 37-2l-10 8c12 3 27 3 34 15-21 5-43-2-58-17z"/><path fill="#B9B9B9" stroke="#B9B9B9" stroke-width=".3" d="M2171 1542c8 2 15 5 22 9-6 3-16 7-21 0l-1-9z"/><path fill="#191919" stroke="#191919" stroke-width=".3" d="M2456 1545c11 3 21 7 31 13l1 1v19h14l-12 2c-8-5-18-3-27-5-4-10-6-20-7-30z"/><path fill="#292929" stroke="#292929" stroke-width=".3" d="M2400 1582c0-8 2-16 8-21 10 14 22 29 18 48-14-4-13-21-17-32-2 5-5 6-9 5z"/><path fill="#2A2A2A" stroke="#2A2A2A" stroke-width=".3" d="M2502 1578c8-2 17 4 21 12l-15 2c12 5 17 18 16 30-15-1-22-16-26-27l-10 10c-3-9-1-17 2-25l12-2z"/></svg>